<svg width="158" height="60" xmlns="http://www.w3.org/2000/svg"><path d="M1.797 5.52H8.54l-.005 52.33c0 1.053.862 1.91 1.92 1.91a1.918 1.918 0 0 0 1.919-1.91l-.005-55.742a.19.19 0 0 0-.19-.19l-10.4.002A1.813 1.813 0 0 0 0 3.72c0 .986.811 1.793 1.797 1.8zm51.893 7.187v31.617H31.105v-.188l22.457-31.428h.13l-.002-.001zm3.656-10.854h-.438a.193.193 0 0 0-.157.08l-32.34 45.27a.187.187 0 0 0-.037.112v.42c0 .105.085.19.19.19h29.127v10.076c0 1.057.864 1.916 1.925 1.916 1.063 0 1.925-.86 1.925-1.916V47.925l7.424.002c.997 0 1.808-.808 1.808-1.802 0-.961-.78-1.764-1.743-1.798-.017-.002-7.49-.003-7.49-.003V2.043a.19.19 0 0 0-.194-.19zM157.31 3.97a1.912 1.912 0 0 0-.375-1.625 1.942 1.942 0 0 0-1.513-.723 1.93 1.93 0 0 0-1.84 1.36l-17.234 46.475L117.675 0 97.671 49.458 82.626 2.98a1.94 1.94 0 0 0-2.17-1.133 1.926 1.926 0 0 0-1.55 1.884c0 .11.014.216.031.32L97.145 60l20.49-49.857L136.345 60 157.31 3.971z" fill="#111" fill-rule="evenodd"/></svg>