<svg width="151" height="60" xmlns="http://www.w3.org/2000/svg"><path d="M20.072 29.971c12.203 0 17.763 7.223 17.763 13.934 0 9.463-9.206 13.773-17.762 13.773-12.206 0-17.767-7.14-17.767-13.773 0-6.711 5.56-13.935 17.767-13.935l-.001.001zM35.058 14.86c0 6.364-4.634 12.785-14.985 12.785-7.22 0-14.988-3.975-14.988-12.703 0-8.67 7.769-12.62 14.989-12.62 7.217 0 14.985 3.923 14.985 12.538h-.001zm-7.734 13.845c6.254-2.073 10.124-7.32 10.124-13.763C37.445 7.747 32.008 0 20.072 0 11.538 0 2.859 5.103 2.778 14.861c0 5.893 3.482 11.042 9.087 13.44l1.019.222C5.05 30.655 0 36.646 0 43.823 0 51.615 6.282 60 20.072 60c13.846 0 20.151-8.385 20.151-16.177 0-7.315-4.8-12.947-12.901-15.116l.002-.002zm42.525 26.23l21.98-52.11H94.3L70.6 58.711h-1.576L45.396 2.824h2.556L69.85 54.935zm81.08-8.383c-3.752 6.42-12.603 13.141-24.228 13.141-15.902 0-28.803-12.16-28.803-28.925 0-16.766 12.901-28.925 28.802-28.925 11.85.076 20.25 7.098 24.3 13.443h-2.625C146.277 12.341 139 3.958 126.7 3.882c-14.702 0-26.553 11.404-26.553 26.886 0 15.483 11.851 26.885 26.553 26.885 12.975 0 20.1-8.911 21.675-11.1h2.554z" fill="#111" fill-rule="evenodd"/></svg>