<svg width="179" height="85" xmlns="http://www.w3.org/2000/svg"><path d="M37.254.224c-7.875 1-15.583 4.273-21.58 9.153C8.193 15.454 2.756 24.365.833 33.716.227 36.686 0 39.036 0 42.49c0 7.062 1.348 12.85 4.437 19.064 3.286 6.608 8.117 12.11 14.266 16.246 5.648 3.79 11.903 6.108 18.854 6.972 2.483.303 7.511.303 9.995 0 5.058-.622 9.42-1.94 13.977-4.213 4.225-2.107 8.208-5.017 11.464-8.381a41.547 41.547 0 0 0 7.527-10.624c3.09-6.213 4.437-12.002 4.437-19.064 0-7.063-1.348-12.852-4.437-19.065-2.105-4.228-5.013-8.214-8.375-11.472A41.517 41.517 0 0 0 61.53 4.422C56.971 2.148 52.61.83 47.552.209 45.219-.08 39.51-.064 37.254.224zm7.42 28.93v3.41H28.168v9.396h14.689v6.668h-14.69v14.7h-7.269V25.745h23.776v3.41zm19.506-1.333l-.046 2.076-1.439 1.121c-.787.607-2.014 1.561-2.71 2.107l-1.272 1 1.12.318c1.47.425 2.302.925 3.286 1.97 2.545 2.683 2.378 7.002-.348 9.73-1.635 1.652-3.862 2.485-6.663 2.485-2.787 0-4.952-.803-6.679-2.5-.938-.925-1.893-2.592-2.105-3.683l-.106-.485h2.817c2.59 0 2.802.015 2.893.288.166.515 1.166 1.364 1.938 1.622 1.454.485 3.256-.03 3.998-1.137.757-1.121.788-2.273.106-3.455-.697-1.213-2.56-1.743-4.165-1.182-.348.136-.696.182-.757.12-.151-.166-2.241-3.44-2.21-3.47.348-.227 5.345-4.38 5.375-4.47.03-.076-1.999-.137-4.573-.137h-4.634v-4.395h16.219l-.045 2.077zm82.26-4.577v6.29h2.424v-12.58h-2.423v6.29zm-47.55.151v6.138h2.422v-4.698h4.846v-2.273h-4.846v-2.88h5.452v-2.424h-7.875v6.137zm12.826-2.636c-.787.12-1.817.666-2.332 1.227-.727.803-1.03 1.637-1.075 3.122-.06 1.349-.03 1.47.424 2.41.348.712.681 1.121 1.166 1.454.954.682 1.469.834 2.847.85.969.014 1.363-.061 1.984-.35.802-.378 1.62-1.212 1.862-1.94.167-.484.106-.53-1.18-.878-.607-.167-.637-.152-1.197.454-.56.576-.636.607-1.47.607-.802 0-.908-.046-1.453-.591-.333-.319-.59-.728-.59-.91 0-.318.045-.318 3.043-.318h3.06l-.076-1.258c-.076-1.47-.424-2.243-1.333-3.03-.863-.743-2.287-1.077-3.68-.85zm2.196 2.546c.757.848.651.924-1.393.924-1 0-1.818-.03-1.818-.076 0-.06.106-.288.212-.515.53-1.015 2.227-1.212 2.999-.333zm9.813-2.577c-.59.121-1.15.394-1.545.743-.242.212-.272.197-.272-.091 0-.318-.076-.334-1.136-.334h-1.136v8.487h2.423v-5.637l.44-.44c.514-.5 1.377-.606 1.938-.212.515.364.651 1.152.651 3.819v2.47h2.423v-5.637l.44-.44c.575-.56 1.332-.59 1.938-.076l.424.364.045 2.895.045 2.894h2.257v-3.258c0-3.546-.076-3.986-.863-4.804-1.045-1.107-3.817-.985-4.634.182-.212.303-.212.288-.576-.091-.681-.728-1.772-1.046-2.862-.834zm31.454.03c-.788.122-1.817.667-2.332 1.228-.727.803-1.03 1.637-1.076 3.122-.06 1.349-.03 1.47.424 2.41.349.712.682 1.121 1.167 1.454.954.682 1.468.834 2.847.85.969.014 1.362-.061 1.983-.35.803-.378 1.62-1.212 1.863-1.94.167-.484.106-.53-1.181-.878-.606-.167-.636-.152-1.197.454-.56.576-.636.607-1.468.607-.803 0-.91-.046-1.454-.591-.333-.319-.59-.728-.59-.91 0-.318.045-.318 3.043-.318h3.06l-.077-1.258c-.075-1.47-.424-2.243-1.332-3.03-.863-.743-2.287-1.077-3.68-.85zm2.196 2.547c.757.848.65.924-1.394.924-1 0-1.817-.03-1.817-.076 0-.06.106-.288.212-.515.53-1.015 2.226-1.212 2.999-.333zm-19.96-2.198a3.2 3.2 0 0 0-1.711 1.894c-.091.288-.167.53-.167.561 0 .03 2.014.515 2.18.515.062 0 .092-.106.092-.242 0-.121.197-.44.439-.682.363-.349.575-.44 1.105-.44.727 0 1.257.288 1.379.758.12.5-.243.713-1.59.894-.697.106-1.5.258-1.788.349-1.908.576-2.574 2.773-1.272 4.213.667.743 1.318.955 2.635.879.788-.045 1.151-.136 1.651-.47.59-.394.621-.394.621-.106 0 .273.09.303 1.106.303h1.12l-.06-3.076c-.076-3.759-.091-3.925-.697-4.607-.727-.819-1.469-1.107-2.983-1.107-1.045 0-1.439.076-2.06.364zm3.286 5.38c-.181.803-.515 1.182-1.226 1.394-.667.197-1.394-.06-1.484-.515-.091-.455.09-.97.378-1.091.273-.121 2.363-.5 2.438-.455.015.015-.03.319-.106.667zM148.41 38.4v2.364l-.424-.318c-.817-.606-2.847-.652-3.937-.091-.697.363-1.408 1.136-1.787 1.985-.288.606-.363 1.015-.363 2.046 0 1.56.378 2.5 1.363 3.38.863.788 1.53 1.045 2.756 1.045.848 0 1.15-.076 1.711-.409.651-.379.681-.379.681-.076 0 .273.091.303 1.227.303h1.242l-.09-1.03c-.062-.56-.107-3.38-.107-6.29V36.05h-2.272v2.349zm-1.302 3.925c1 .41 1.484 1.576 1.166 2.773-.5 1.85-3.029 2.107-3.755.394-.515-1.273-.046-2.667 1.09-3.167.59-.258.878-.258 1.5 0zm-48.218.167v6.137h2.423V43.93h4.846v-2.273h-4.846v-2.88h5.452v-2.424H98.89v6.138zm13.009-2.652a4.342 4.342 0 0 0-3.256 2.5c-.288.606-.364 1.015-.364 2.046 0 1.03.076 1.44.364 2.046.848 1.849 2.786 2.834 4.891 2.5 1.06-.181 1.802-.545 2.514-1.257.894-.895 1.212-1.758 1.227-3.289.015-1.121-.046-1.41-.41-2.152-.877-1.788-2.846-2.728-4.966-2.394zm1.953 2.53c1.257.788 1.257 3.244 0 4.032-.969.62-2.362.227-2.877-.804-.621-1.242-.197-2.728.939-3.303.727-.364 1.287-.349 1.938.075zm43.145-2.515c-.787.12-1.817.666-2.332 1.227-.727.803-1.03 1.637-1.075 3.122-.06 1.349-.03 1.47.424 2.41.348.712.681 1.121 1.166 1.455.954.682 1.469.833 2.847.848.969.015 1.363-.06 1.984-.348.802-.38 1.62-1.213 1.862-1.94.167-.485.106-.53-1.18-.88-.607-.166-.637-.15-1.197.456-.56.575-.636.606-1.47.606-.802 0-.908-.046-1.453-.591-.333-.319-.59-.728-.59-.91 0-.318.045-.318 3.043-.318h3.06l-.076-1.258c-.076-1.47-.424-2.243-1.333-3.03-.863-.743-2.287-1.077-3.68-.85zm2.196 2.546c.757.848.651.924-1.393.924-1 0-1.818-.03-1.818-.076 0-.06.106-.288.212-.515.53-1.015 2.227-1.212 2.999-.333zm14.81-2.334c-1.166.53-1.665 1.318-1.665 2.622 0 1.515.727 2.227 2.756 2.697 1.59.38 2.09.97 1.257 1.516-.727.485-1.908.03-2.12-.804-.046-.212-.167-.348-.273-.303-.106.046-.575.152-1.06.258-.636.121-.863.242-.863.424 0 .485.681 1.455 1.317 1.91.56.394.818.454 1.924.515 1.423.076 2.135-.09 2.832-.682.65-.56.893-1.121.893-2.122 0-1.53-.727-2.273-2.665-2.712-1.53-.349-1.727-.455-1.727-.88 0-.408.5-.848.954-.848.485 0 1.166.455 1.257.849.06.212.182.348.273.318.09-.045.575-.152 1.06-.258.848-.166.863-.197.772-.576-.166-.697-.787-1.485-1.393-1.788-.787-.379-2.802-.454-3.528-.136zm-39.45.167c-.241.136-.575.348-.71.484-.258.213-.273.197-.273-.166 0-.41 0-.41-1.136-.41h-1.136v8.487h2.423v-2.712c0-2.683 0-2.728.379-3.168.212-.257.575-.5.817-.56.546-.122 1.439.242 1.666.651.106.197.167 1.38.167 3.046v2.743h2.423V45.4c0-3.652-.106-4.107-1.151-4.895-.5-.394-.712-.44-1.787-.485-.909-.03-1.348.03-1.681.213zm30.364 4.076v4.32h2.423v-2.274c0-2.516.137-3.122.833-3.576.273-.167.712-.273 1.227-.273l.818-.015v-2.35h-.848c-.879 0-1.273.137-1.833.652l-.348.303V39.99h-2.272v4.32zm-44.947-.94l.046 3.244.454.727c.682 1.091 1.484 1.47 2.983 1.41.91-.03 1.257-.122 1.62-.394.455-.334.47-.334.47-.03 0 .272.091.302 1.227.302h1.242l-.091-1.03c-.06-.56-.106-2.47-.106-4.244v-3.212h-2.423v2.788c0 2.683-.015 2.819-.348 3.198-.47.56-1.409.667-1.954.227-.59-.455-.727-1.152-.727-3.834v-2.38h-2.453l.06 3.229zm17.234 14.125v2.364l-.424-.318c-.818-.606-2.847-.652-3.937-.091-.697.364-1.409 1.137-1.787 1.985-.288.606-.364 1.016-.364 2.046 0 1.561.379 2.5 1.363 3.38.863.788 1.53 1.045 2.756 1.045.848 0 1.151-.075 1.712-.409.65-.379.681-.379.681-.076 0 .273.09.303 1.227.303h1.241l-.09-1.03c-.06-.56-.106-3.38-.106-6.29v-5.258h-2.272v2.349zm-1.302 3.925c1 .41 1.484 1.576 1.166 2.773-.5 1.85-3.029 2.107-3.756.394-.515-1.273-.045-2.667 1.09-3.167.591-.258.879-.258 1.5 0zm-37.012.167v6.137h2.423v-4.698h4.846v-2.273h-4.846v-2.88h5.452v-2.424H98.89v6.138zm24.457-2.258c-.242.136-.575.348-.711.485-.258.212-.273.197-.273-.167 0-.41 0-.41-1.136-.41h-1.135v8.487h2.423v-2.712c0-2.683 0-2.728.378-3.168.212-.257.576-.5.818-.56.545-.122 1.439.242 1.666.651.106.197.166 1.38.166 3.046v2.743h2.423v-3.228c0-3.652-.106-4.107-1.15-4.895-.5-.394-.712-.439-1.788-.485-.908-.03-1.347.03-1.68.213zm-14.583 3.137l.045 3.243.455.727c.681 1.091 1.484 1.47 2.983 1.41.909-.03 1.257-.122 1.62-.394.455-.334.47-.334.47-.03 0 .272.09.302 1.227.302h1.241l-.09-1.03c-.061-.56-.107-2.47-.107-4.243v-3.213h-2.423v2.788c0 2.683-.015 2.819-.348 3.198-.47.56-1.408.667-1.953.227-.591-.454-.727-1.152-.727-3.834v-2.38h-2.454l.06 3.229z"/></svg>