<svg width="192" height="37" xmlns="http://www.w3.org/2000/svg"><g fill="#172321"><path d="M105.027 20.181v15.403h-3.902V1.356h3.902V16.76h8.606V1.356h3.902v34.228h-3.902V20.181zM136.998 9.62v3.08h-3.703V9.424c0-3.08-1.25-4.939-4.102-4.939-2.802 0-4.103 1.859-4.103 4.94v18.091c0 3.08 1.301 4.938 4.103 4.938 2.852 0 4.102-1.858 4.102-4.938v-4.45h3.703v4.254c0 5.183-2.502 8.607-7.905 8.607-5.354 0-7.856-3.424-7.856-8.607V9.62c0-5.183 2.502-8.607 7.856-8.607 5.403.001 7.905 3.424 7.905 8.607zm19.562-8.264l-13.809 34.228h-3.402l13.81-34.228zm14.76 15.94v3.472h-8.055v14.816h-3.902V1.356h13.908v3.472h-10.006v12.468zm10.156 18.288V4.828h-6.454V1.356h16.81v3.472h-6.453v30.756zM15.632 36.963c-2.704 0-5.041-.462-7.01-1.387a13.055 13.055 0 0 1-4.859-3.838 16.519 16.519 0 0 1-2.83-5.795 27.264 27.264 0 0 1-.925-7.305c-.021-2.48.29-4.954.926-7.354a16.753 16.753 0 0 1 2.83-5.87A12.961 12.961 0 0 1 8.62 1.551C10.591.627 12.928.165 15.632.164c2.705 0 5.042.462 7.011 1.387a12.974 12.974 0 0 1 4.858 3.863 16.779 16.779 0 0 1 2.83 5.87c.635 2.4.946 4.873.926 7.354a27.295 27.295 0 0 1-.927 7.305 16.545 16.545 0 0 1-2.83 5.794 13.069 13.069 0 0 1-4.857 3.839c-1.97.924-4.307 1.387-7.01 1.387zm0-6.042c5.175 0 7.762-4.094 7.762-12.282 0-4.094-.626-7.164-1.878-9.212-1.251-2.047-3.196-3.07-5.834-3.071-5.242 0-7.862 4.094-7.862 12.282 0 8.187 2.604 12.282 7.812 12.283zM44.427.76c.702-.1 1.37-.174 2.004-.224a27.22 27.22 0 0 1 2.103-.074c.667 0 1.318.025 1.953.074.634.05 1.336.124 2.103.223l11.268 35.61a27.973 27.973 0 0 1-4.006.297 22.753 22.753 0 0 1-3.706-.297l-2.003-7.132H42.224l-2.053 7.132a21.262 21.262 0 0 1-3.456.297 22.378 22.378 0 0 1-3.655-.297L44.427.76zm8.014 22.485L48.284 8.288l-4.356 14.957h8.513zM67.914.71a18.683 18.683 0 0 1 1.853-.198 31.93 31.93 0 0 1 3.605 0c.62.035 1.24.101 1.853.198v35.708c-.614.097-1.232.163-1.853.198a32.817 32.817 0 0 1-3.604 0 18.71 18.71 0 0 1-1.853-.198L67.914.71zm8.364 17.73L86.043.76A18.143 18.143 0 0 1 88.17.511c.65-.033 1.244-.05 1.778-.05.567 0 1.201.033 1.903.1.7.065 1.435.131 2.203.197L84.19 17.945l10.717 18.423c-.768.066-1.511.132-2.229.198-.717.067-1.36.1-1.928.1a35.29 35.29 0 0 1-1.777-.05 19.807 19.807 0 0 1-2.179-.248L76.278 18.44z"/></g></svg>