<svg width="189" height="25" xmlns="http://www.w3.org/2000/svg"><path d="M67 24.745l-2.375-4.21c1.125-2.168 1.125-4.719 1.125-8.035 0-4.21 0-7.27-2.375-9.821C61.75.893 59.625 0 56.875 0s-4.874 1.02-6.5 2.679c-2.374 2.423-2.374 5.484-2.374 9.821 0 4.21-.125 7.27 2.375 9.821 1.75 1.786 3.75 2.679 6.5 2.679.75 0 1.374-.128 2-.255H67zm-13.25-5.357c-.874-1.02-1.124-2.169-1.124-6.888 0-4.72.25-5.867 1.125-6.888.625-.765 1.75-1.275 3-1.275s2.374.51 3 1.275c.874 1.02 1.124 2.169 1.124 6.888 0 4.72-.25 5.867-1.125 6.888-.625.765-1.75 1.275-3 1.275s-2.374-.51-3-1.275zM123 0h5v24h-5zM8.873 25C5.197 25 2.408 24.23 0 21.795l3.042-3.077c1.521 1.538 3.676 2.051 5.831 2.051 2.789 0 4.31-1.025 4.31-3.077 0-.897-.253-1.538-.76-2.051-.508-.513-1.015-.641-2.155-.897l-2.916-.385c-2.028-.256-3.676-1.026-4.69-2.051C1.522 11.154.887 9.488.887 7.436.887 3.076 4.057 0 9.38 0c3.296 0 5.831.77 7.86 2.82l-3.043 2.95c-1.52-1.54-3.422-1.667-4.943-1.667-2.536 0-3.803 1.41-3.803 3.076 0 .642.253 1.283.76 1.795.507.513 1.268.77 2.282 1.026l2.915.385c2.282.256 3.677.897 4.69 1.923C17.367 13.59 18 15.385 18 17.564 18 22.308 13.944 25 8.873 25M25 24V0h16v4.125H29.787V9.75h9.575V14h-9.575v5.875H41V24H25m57.064 1C77.085 25 73 21.52 73 16.237V0h4.851v16.108c0 2.835 1.66 4.51 4.213 4.51s4.213-1.675 4.213-4.51V0H91v16.237C91 21.521 87.043 25 82.064 25m31.528-2.679C111.944 24.107 109.789 25 107 25c-2.789 0-4.944-1.02-6.592-2.679C98 19.898 98 16.837 98 12.5c0-4.21-.127-7.27 2.408-9.821C102.057.893 104.212 0 107.001 0c2.788 0 4.816 1.02 6.59 2.679C116 5.102 116 8.163 116 12.5c0 4.21 0 7.27-2.408 9.821m-3.55-16.709c-.633-.765-1.774-1.275-3.041-1.275-1.268 0-2.409.51-3.043 1.275-.887 1.02-1.14 2.169-1.14 6.888 0 4.72.253 5.867 1.14 6.888.634.765 1.775 1.275 3.043 1.275 1.267 0 2.408-.51 3.042-1.275.887-1.02 1.14-2.169 1.14-6.888 0-4.72-.253-5.867-1.14-6.888M149.923 24l-1.432-4.25h-8.852L138.077 24H133l9.112-24h3.776L155 24h-5.077zm-5.858-17l-3.124 8.75h6.248L144.065 7zM183 0h6v6h-6zm-16 18.983V0h-3v22l3-3.017M170.017 22L167 25h22v-3h-18.983M173 12.976V0h-3v16l3-3.024M176.024 16L173 19h16v-3h-12.976M179 7.658V0h-3v11l3-3.342M181.342 9L178 12h11V9h-7.658" fill="#172321"/></svg>