<svg width="244" height="48" xmlns="http://www.w3.org/2000/svg"><path d="M21.636.004c0-.046-2.176.344-2.404.344-.27 0-.578.117-.84.168-.131.025-.609.074-.69.172-.08.14-1.33.207-1.33.367 0 .043-1.01.343-1.14.381-.123.037-1.194.379-1.194.468 0 .02-1.109.542-1.207.542-.128 0-.392.192-.51.25-.18.086-.504.202-.647.346-.18.17-.476.262-.687.393-.18.112-.363.253-.557.347-.908.399-1.562 1.239-2.408 1.728-.34.21-.652.554-.945.823-.624.567-1.158 1.22-1.759 1.806-.24.246-.452.529-.666.798-.077.105-.422.424-.422.55 0 .07-.69 1.067-.74 1.067-.111 0-.62.984-.685 1.12-.09.186-.21.351-.295.538-.053.114-.324.467-.308.58 0 .19-.237.542-.325.719-.061.122-.131.477-.238.55-.094.066-.189.456-.236.584-.077.218-.224.478-.25.704-.015.1-.324 1.131-.347 1.131-.04 0-.259.944-.259 1.031 0 .116-.264 1.339-.256 1.339-.1 0-.242 2.34-.252 2.468-.11 1.578.034 3.15.15 4.711.028.377.104.759.152 1.132.016.095.065.671.138.708.071.036.287 1.164.272 1.254-.02.156.249 1.212.36 1.28.071.037.338.908.338 1.008 0 .103.315.966.376.966.03 0 .473.972.48 1.081 0 .12.174.364.232.477.102.198.424.565.424.783 0 .183.3.489.388.659.057.114.242.506.355.557.102.039.34.498.412.607.072.11.438.478.438.61 0 .136.389.5.48.61.286.35.58.703.898 1.027.522.518 1.029 1.043 1.58 1.53.253.223.554.424.789.666.156.182.433.34.625.48.16.12.338.291.522.374.171.07.321.238.481.335.189.11.414.229.578.373.233.182.525.306.77.465.13.078.43.314.568.314.215 0 .59.311.789.406.1.048.886.346.886.407 0 .055 1.062.484 1.172.484.104 0 1.185.396 1.185.403 0 .058 1.178.363 1.296.363.212 0 .464.102.673.146.147.029.83.072.897.172.012.017.557.065.557.083 0 .01.668.084.742.091.854.07 1.708.117 2.566.12.218 0 4.089-.042 4.089-.257 0 .012 1.655-.319 1.825-.34.251-.02.56-.103.799-.183.072-.02.573-.114.602-.173.065-.173 1.272-.229 1.272-.414 0-.02 1.08-.425 1.128-.425.194 0 .49-.187.67-.266.218-.086.428-.177.645-.282 2.06-1.1 4.489-1.777 6.036-3.672.565-.693.329-1.613-.199-2.245-.409-.497-.911-.864-1.43-1.212-.185-.112-.495-.396-.703-.396-.242-.037-.476-.354-.721-.354-.124 0-.46-.165-.572-.228-.09-.05-.51-.116-.564-.197-.038-.078-.526-.154-.607-.174-.265-.054-.59-.168-.856-.168-.343 0-.71-.145-1.053-.188-.37-.05-.74-.11-1.109-.18-.706-.13-1.423-.216-2.131-.348-1.22-.227-2.437-.449-3.648-.685-.82-.209-1.604-.533-2.416-.756-.213-.078-.462-.167-.665-.28-.22-.104-.68-.253-.825-.44-.125-.146-.395-.254-.56-.366-.183-.122-.35-.297-.542-.404-.448-.27-.86-.762-1.187-1.166-.096-.118-.43-.418-.443-.57 0-.061-.514-.833-.528-.833-.027 0-.536-1.004-.497-1.096.014-.053-.27-.814-.251-.814-.208 0-.3-2.494-.25-2.528.102-.051.093-1.891.307-1.891-.017 0 .315-.886.315-.966 0-.14.5-1.296.62-1.296.024 0 .713-1.068.712-1.073-.062-.102.986-1.103.99-1.108.274-.272.636-.492.89-.772.171-.171.433-.335.642-.46l.367-.224c.15-.096-.039-.231-.092-.36-.042-.088-.483-.978-.542-.978-.034 0-.597-1.076-.597-1.19 0-.08-.423-.941-.481-.941-.044 0-.52-.92-.533-.97-.04-.14-.178-.304-.258-.424-.038-.061-.135-.245-.203-.287-.022-.013-.201.205-.201.239 0 .146-.365.522-.476.653-.06.071-.357.423-.357.512 0 .093-.27.39-.334.47-.125.155-.225.395-.373.523-.069.066-.66.893-.646.908.027.048-.603.893-.68.962-.077.068-.72.927-.69.974.02.026-.656.947-.727 1.025-.54.576-.845 1.403-1.392 1.973-.143.13-.261.363-.374.518-.06.08-.293.34-.293.432 0 .153-.59.908-.714 1.016-.55.532-.795 1.37-1.342 1.903-.12.102-.232.31-.317.442-.056.077-.37.422-.37.527-.004.133-.307.44-.38.548-.095.14-.21.355-.335.467-.149.129-.264.361-.377.526-.077.113-.359.392-.359.51 0 .105-.31.455-.37.532-.104.136-.198.335-.322.446-.582.54-.855 1.414-1.418 1.98-.186.16-.785.891-.551 1.079.128.117.254.38.346.533.058.096.312.337.312.447 0 .146.44.558.536.67.452.505.924 1.077 1.475 1.475.23 0 .546.554.776.637.13 0 .443.317.55.397.73.586 1.605 1.024 2.422 1.456.851.464 1.75.836 2.68 1.108 2.967 1.045 6.231 1.208 9.368.703.873-.141 1.72-.436 2.54-.724 1.007-.327 1.838-1.06 2.835-1.41a4.96 4.96 0 0 1 .963-.3c.178-.032 1.004-.192 1.075-.032.07.109.48.041.6.147-.005-.005-.995.69-1.103.757-.422.308-.91.498-1.326.802-.246.198-.62.238-.872.43-.017.009-.741.306-.741.335 0 .085-1.123.486-1.261.486-.103 0-1.09.284-1.112.342-.036.073-.596.159-.674.173-.228.057-.518.147-.752.147-.374 0-.79.126-1.165.168-.746.083-1.502.138-2.254.138-.794 0-1.593-.05-2.38-.139-.376-.03-.773-.167-1.148-.167-.883 0-1.724-.54-2.563-.69-.407-.049-.927-.327-1.295-.504-.216-.107-.428-.184-.638-.294-.124-.061-.392-.254-.527-.254-.089 0-1.08-.552-1.08-.617 0-.054-1.037-.705-1.18-.757-.155-.05-.341-.237-.474-.334-.188-.139-.413-.278-.573-.446-.215-.207-.473-.382-.701-.578a21.14 21.14 0 0 1-1.058-.983c-.098-.098-.62-.492-.62-.634 0-.133-.437-.463-.529-.593-.098-.148-.237-.287-.351-.423-.161-.189-.3-.443-.482-.609-.13-.096-.24-.328-.337-.457a4.078 4.078 0 0 1-.484-.715c-.039-.1-.595-1.093-.658-1.093-.047 0-.332-.605-.37-.703-.018-.048-.185-.465-.214-.465-.08 0-.501-1.085-.501-1.183 0-.057-.247-.739-.258-.739-.032 0-.258-.796-.258-.867 0-.162-.22-1.295-.294-1.33-.124-.072-.16-1.134-.172-1.263a22.966 22.966 0 0 1-.109-2.338c0-1.172.088-2.358.29-3.504.172-.842.395-1.66.573-2.466.394-1.583 1.222-2.981 2.039-4.389.19-.356.46-.68.691-1.008.148-.201.308-.44.49-.613.134-.132.23-.305.37-.433.108-.098.692-.64.692-.748 0-.156.593-.581.712-.686.186-.168.43-.338.588-.531.204-.211.467-.387.696-.57.367-.293.746-.569 1.138-.827 1.816-1.208 3.673-2.077 5.646-2.924C18.068.954 19.72.482 21.341.136c.119-.027.427-.03.512-.119.013-.016-.209-.017-.216-.013 0 .004 0 0 0 0z"/><path d="M31.336 3.042c-.092.242-.299.469-.424.69-.05.101-.27.33-.27.436 0 .149-.475.936-.591 1.038-.267.248-.32.744-.558 1.01-.056.077-.515.814-.477.88.022.038-.472.955-.499.955-.061 0-.413.741-.445.831-.04.115-.136.363-.225.454-.117.095-.167.357-.248.483-.05.076-.356.813-.427.813-.053 0-.496.907-.522 1.007 0 .046-.404.843-.448.843-.047 0-.52.905-.52.989 0 .046-.486.942-.528.942-.046 0-.545.91-.545.966 0 .135-.236.412-.31.542-.11.184-.266.37-.345.569-.05.156-.207.347-.294.486-.118.178-.23.428-.378.582-.125.108-.247.34-.34.486-.125.192-.325.361-.432.565 0 .138-.416.52-.507.638-.148.19-.29.402-.452.579-.102.097-.698.82-.643.945 0 .002-.553 1.027-.528 1.027-.218 0-.38 1.591-.38 1.718 0 .467.023.932.143 1.38.013.046.13.494.172.494.017 0 .206.43.238.484.04.07.335.624.43.624.042 0 .3.328.32.348.103.104.222.226.344.311.07 0 .254.21.322.255.156.11.41.223.531.36.337.293.938.559 1.36.684.35.103.702.266 1.05.39 4.208 1.2 8.694.976 13.083 1.073 2.081.045 4.115.182 6.154.495.199.039 2.398.683 2.369.73.043-.068-.45-.902-.53-.99-.232-.258-.364-.657-.542-.951-.237-.4-.463-.821-.673-1.242-.185-.345-.367-.813-.615-1.104-.166-.184-.305-.56-.418-.784-.055-.127-.285-.412-.285-.547 0-.08-.47-.965-.51-.965-.109 0-.496-1.01-.585-1.1-.163-.162-.264-.516-.368-.727-.03-.062-.244-.542-.288-.542-.146 0-.29-.86-.448-.86-.098 0-.583-1.138-.624-1.228-.143-.32-.387-.621-.489-.95-.026-.08-.402-.873-.455-.873-.118 0-.575-1.092-.637-1.23-.09-.218-.222-.42-.323-.636-.052-.116-.268-.37-.268-.495 0-.141-.196-.416-.265-.543-.104-.194-.193-.447-.327-.625-.2-.289-.291-.691-.502-.966-.112-.147-.536-1.268-.663-1.268-.064 0-.53-.942-.53-.975.013-.04-.497-1.04-.543-1.04-.046 0-.566-.948-.566-1.045-.005-.111-.496-1.06-.607-1.115-.084-.026-.252-.437-.298-.523-.09-.166-.183-.325-.267-.494-.134-.262-.315-.757-.54-.946-.138-.137-.245-.437-.347-.611-.071-.122-.288-.378-.288-.507 0-.125-.24-.408-.298-.513a7.94 7.94 0 0 0-.333-.565C31.967 4.01 31.534 3 31.358 3c-.011 0-.045.062-.019.041-.008.02 0 0 0 0h-.003zM52.04 35.168c-1.265.098-2.611.535-3.385 1.6-.797 1.097-.747 2.639.075 3.704.702.921 1.9 1.426 2.9 1.94.914.47 2.245 1.026 2.256 2.226.011 1.439-1.442 1.695-2.595 1.667-.624-.015-1.253-.18-1.83-.41-.256-.105-1.206-.85-1.386-.516-.077.143-.002.613-.003.783 0 .346-.15.982.203 1.182 1.184.667 2.875.764 4.188.563 1.238-.19 2.503-.749 3.04-1.956.48-1.077.333-2.373-.392-3.298-.735-.938-1.85-1.479-2.893-2-.93-.467-2.232-.981-2.237-2.197-.003-1.307 1.462-1.629 2.513-1.607.654.013 1.302.112 1.902.384.438.2.876.597.882-.124.005-.42.195-1.37-.268-1.572-.915-.399-1.992-.39-2.97-.369-.195.016 0 0 0 0zm141.833 0c-2.864.216-5.148 2.191-5.72 5.01-.55 2.704.288 5.858 2.89 7.19 1.204.616 2.62.719 3.946.56.639-.076 1.275-.216 1.869-.466.158-.066.514-.16.526-.372.022-.34.012-.684.01-1.024-.008-.63-.186-.564-.693-.317-.68.33-1.416.5-2.169.55-1.414.09-2.782-.304-3.686-1.447-1.063-1.345-1.2-3.39-.702-4.984.536-1.716 2.037-2.928 3.845-3.016.854-.041 1.7.071 2.493.393.168.068.805.517.9.159.09-.351.016-.813.013-1.171-.003-.316.043-.508-.283-.634a6.345 6.345 0 0 0-1.18-.316c-.685-.12-1.368-.123-2.06-.116-.592.045 0 0 0 0h.001zm-89.653.206c-.2.055-.137.412-.137.553-.004.48-.005.961-.006 1.441a1887.956 1887.956 0 0 0 .001 8.686c0 .317-.224 1.713.273 1.726.262.007 1.42.183 1.492-.17.07-.363.01-.79.01-1.16.002-1.12.001-2.24 0-3.359l-.002-3.102-.001-1.35c.606 1.35 1.208 2.703 1.814 4.054.43.955.857 1.912 1.285 2.868.208.464.416.93.626 1.393.083.183.227.777.443.817.166.05.82.112.915-.081.161-.321.302-.652.449-.98.365-.814.729-1.63 1.093-2.447l1.456-3.27.632-1.42c.056-.126.451-.827.409-.91.048.03-.013.737-.013.823-.004.596-.005 1.192-.006 1.787a1268.766 1268.766 0 0 0 .008 5.997c.003.342-.009.506.397.512.185.003 1.38.148 1.399-.15.015-.245.005-.494.006-.74.013-2.816.01-5.634.005-8.45 0-.943.004-1.885-.01-2.827-.004-.32-.349-.253-.59-.254a54.798 54.798 0 0 0-.98-.001c-.153.001-.452-.062-.552.095-.407.642-.664 1.44-.977 2.131-.876 1.94-1.75 3.881-2.624 5.822-.077.171-.677 1.319-.604 1.41-.82-1.903-1.652-3.8-2.488-5.696-.483-1.093-.962-2.188-1.452-3.278-.176-.387-.168-.476-.607-.481-.551-.005-1.119-.023-1.664.01-.03.009 0 0 0 0v.001zm19.451 1.254c-1.355.078-2.638.554-3.568 1.567-.959 1.045-1.383 2.436-1.444 3.83-.122 2.782 1.369 5.47 4.31 5.884 1.361.192 2.836-.052 3.964-.868 1.171-.845 1.825-2.162 2.05-3.562.424-2.642-.52-5.749-3.32-6.612-.653-.201-1.315-.247-1.992-.24-.518.031 0 0 0 0v.001zm.677 1.549c2.391.224 3.125 2.567 3.006 4.632-.06 1.045-.388 2.079-1.174 2.805-.768.71-1.847.915-2.863.798-2.281-.259-3.051-2.671-2.933-4.64.128-2.148 1.764-3.805 3.965-3.595.188.018 0 0 0 0zm6.428-1.364c-.28.074-.153.86-.153 1.037v1.49c0 1.221 0 2.442.005 3.662.004.858.014 1.691.282 2.519.42 1.307 1.447 2.127 2.785 2.367 1.268.227 2.787.061 3.815-.769.975-.781 1.367-2.14 1.395-3.345.04-1.707.006-3.42.005-5.128l-.002-1.64c0-.275-.437-.203-.617-.204-.327-.001-1.011-.158-1.02.305-.045 2.237.014 4.476-.018 6.713-.015 1.12-.498 2.282-1.69 2.548-1.26.286-2.598-.133-3.064-1.408-.327-.891-.22-1.908-.223-2.839-.005-1.26-.006-2.52-.01-3.78 0-.45.016-.908-.013-1.359-.022-.354-1.236-.184-1.477-.167-.038.01 0 0 0 0v-.002zm10.533.004c-.3.1-.15 1.074-.152 1.362-.002.958-.001 1.915-.001 2.871l.001 4.074c0 .822-.05 1.666.012 2.486.024.326 1.066.176 1.269.172.475-.009.375-.37.377-.75.005-1.073.002-2.145.001-3.218l-.003-3.442v-1.025c1.238 1.933 2.493 3.855 3.74 5.782.534.828 1.06 1.663 1.61 2.48.2.299.692.175 1.011.174.13 0 .862.093.911-.109.132-.527.018-1.248.019-1.795V37.09c0-.35-.327-.29-.618-.291-.267-.001-.591-.048-.854.01-.22.045-.168.33-.17.49-.009 1.274-.004 2.548-.003 3.822l.002 2.489v1.031c0 .076-.058.5 0 .558-.159-.079-.344-.533-.433-.674l-.693-1.081-1.837-2.878c-.728-1.14-1.455-2.28-2.192-3.415-.214-.329-.251-.35-.658-.354-.434-.002-.91-.048-1.34.02-.016.004 0 0 0 0zm10.243-.004c-.304.104-.156.978-.149 1.21.012.388.29.302.594.302l1.54.003.727.001c.274 0 .189.1.189.362v6.26c.001.888-.044 1.792.012 2.678.02.307 1.236.16 1.44.15.322-.016.195-.717.196-.903.008-1.817.005-3.634.005-5.452v-2.406c0-.095-.072-.62 0-.688.084-.079.59 0 .718 0h.893c.322 0 1.07.133 1.35-.035.254-.16.111-1.003.098-1.261-.021-.438-1.227-.23-1.505-.23l-1.48-.002c-1.54-.001-3.09-.06-4.627.011-.017.006 0 0 0 0zm10.722 0c-.173.048-.236.376-.29.516-.183.473-.366.945-.547 1.419-.54 1.4-1.077 2.8-1.615 4.2-.479 1.247-.958 2.494-1.435 3.741-.102.265-.204.53-.303.795-.173.463.851.302 1.048.302.453-.003.618.073.781-.359.16-.425.307-.856.46-1.283.078-.22.35-1.315.554-1.315h4.121c.055 0 .239.613.27.694.263.697.52 1.396.797 2.088.143.36 1.242.168 1.612.168.4 0-.406-1.715-.458-1.85-.838-2.188-1.681-4.373-2.525-6.557-.272-.701-.54-1.404-.82-2.102-.07-.178-.102-.444-.329-.463a8.999 8.999 0 0 0-1.32.004c-.032.01 0 0 0 0v.001zm.96 3.078c.42 1.132.839 2.267 1.256 3.4-.684.003-1.368.004-2.052.005-.197 0-.869.111-1.024-.004a329.2 329.2 0 0 1 1.24-3.404c.041-.11.344-.683.294-.767.129.23.195.523.286.77.077.206 0 0 0 0zm5.954-3.075c-.23.06-.143.495-.144.652l-.004 1.1c-.002 1.104-.003 2.208-.003 3.313-.001 1.266-.002 2.53-.001 3.797 0 .458 0 .916.003 1.375.001.255-.1.715.263.726.248.008 1.315.174 1.383-.168.07-.372.008-.814.008-1.189.003-1.025.002-2.05.001-3.075 0-2.058-.002-4.116-.004-6.174 0-.284-.068-.37-.373-.37-.37-.002-.767-.043-1.13.012-.029.007 0 0 0 0zm4.034 0c-.3.091-.15 1.08-.151 1.363-.003.957-.002 1.914-.002 2.87v4.074c.002.824-.045 1.664.013 2.486.023.326 1.067.176 1.27.172.475-.008.375-.37.377-.75.006-1.073.002-2.145 0-3.218l-.003-3.442v-1.025c.843 1.275 1.66 2.565 2.489 3.848.754 1.166 1.506 2.33 2.264 3.494.21.323.405.766.68 1.04.233.204 1.056.054 1.341.052.135-.001.49.061.505-.144.026-.328.011-.662.012-.992.002-.839.002-1.677.002-2.516v-6.574c0-.168.092-.59-.076-.714-.2-.147-1.54-.136-1.558.145-.082 1.247-.01 2.524-.01 3.771l.001 2.715v1.17c0 .113-.064.454-.003.556-1.2-1.797-2.33-3.645-3.494-5.464-.585-.917-1.159-1.84-1.76-2.746-.191-.289-.578-.19-.892-.19-.328 0-.678-.029-1.004.02-.015.005 0 0 0 0l-.001-.001zm29.023-.005c-.172.046-.237.38-.29.517l-.548 1.418c-.54 1.4-1.077 2.8-1.615 4.201-.478 1.247-.958 2.494-1.435 3.742-.1.264-.203.529-.302.794-.173.463.85.302 1.048.302.453-.002.617.073.78-.359.16-.425.308-.855.46-1.283.078-.219.35-1.314.553-1.314h4.123c.054 0 .239.613.269.694.264.696.521 1.396.798 2.088.142.359 1.243.168 1.611.168.4 0-.406-1.716-.458-1.851-.839-2.187-1.68-4.372-2.525-6.556-.272-.701-.541-1.404-.819-2.102-.07-.178-.103-.444-.33-.463a8.999 8.999 0 0 0-1.32.004c-.032.01 0 0 0 0zm1.445 4.393l.77 2.089c-.683.002-1.367.003-2.05.003-.228 0-.832.112-1.025-.004-.042-.085.193-.537.222-.618l.356-.978c.314-.862.628-1.726.952-2.586.153.102.255.688.32.861.151.41.304.82.455 1.232v.001zm5.479-4.388c-.3.099-.15 1.075-.15 1.363-.003.957-.003 1.914-.003 2.87l.001 4.074c.001.822-.05 1.666.013 2.486.024.326 1.066.176 1.269.172.52-.009.377-.507.378-.913.004-.726.002-1.452.002-2.178v-.884c0-.022.648-.016.72-.017 1.177-.008 2.327-.11 3.274-.894 1.658-1.373 1.73-4.379-.213-5.544-.825-.495-1.757-.538-2.69-.547-.86-.007-1.743-.056-2.601.011-.016.005 0 0 0 0zm3.016 1.524c.916.049 1.789.407 1.978 1.395.128.657 0 1.422-.484 1.903-.634.636-1.57.624-2.405.624h-.562c-.067 0-.031-.269-.031-.325v-3.602c0-.018 1.466.004 1.504.005.293.016 0 0 0 0zm5.467-1.525c-.3.1-.15 1.075-.15 1.363-.003.958-.002 1.915-.002 2.871l.001 4.074c0 .823-.05 1.666.012 2.486.024.326 1.067.176 1.269.172.429-.008.373-.263.375-.613.007-1.007.005-2.016.005-3.024l-.003-4.515-.002-2.336c0-.241.042-.491-.278-.491-.402 0-.832-.049-1.228.014-.016.004 0 0 0 0v-.001zm2.94-.003c-.304.104-.154.978-.148 1.21.012.386.29.3.594.3.755.004 1.51.005 2.266.005.274 0 .189.1.189.362v6.262c.001.887-.045 1.79.012 2.676.02.309 1.233.16 1.439.151.321-.016.195-.718.195-.903.008-1.818.005-3.635.005-5.452v-2.405c0-.095-.072-.62 0-.688.083-.079.59 0 .719 0h.893c.321 0 1.069.133 1.35-.035.25-.158.11-1.004.097-1.261-.022-.438-1.226-.23-1.504-.23l-1.48-.002c-1.54-.001-3.089-.042-4.626.01-.017.006 0 0 0 0zm10.723-.001c-.173.048-.236.377-.29.516l-.548 1.42-1.614 4.2c-.479 1.247-.958 2.494-1.435 3.741-.101.265-.204.53-.303.795-.173.463.852.302 1.05.302.453-.003.616.073.78-.359.16-.425.308-.854.46-1.283.077-.219.349-1.314.552-1.314h4.123c.054 0 .238.613.269.694.264.696.52 1.396.798 2.088.144.36 1.243.167 1.613.167.398 0-.407-1.715-.458-1.85-.839-2.187-1.682-4.372-2.526-6.556-.271-.701-.54-1.404-.819-2.102-.091-.232-.105-.454-.387-.468-.421-.02-.843-.016-1.264.01-.032.009 0 0 0 0l-.001-.001zm1.445 4.393l.77 2.088-1.151.003-.9.001c-.163 0-.914.105-1.024-.004a246.6 246.6 0 0 1 1.531-4.182c.167.167.237.64.319.86.152.41.307.822.455 1.233v.001zm5.479-4.39c-.301.1-.15 1.076-.152 1.364-.002.958-.002 1.915-.002 2.871 0 1.358 0 2.716.002 4.074 0 .824-.045 1.664.012 2.486.025.358 2.488.174 2.786.174.958-.001 1.921.02 2.88-.011.303-.01.227-.331.228-.56.002-.249.01-.499-.002-.747-.012-.25-.304-.205-.475-.207-.868-.01-1.735-.005-2.603-.005-.2 0-1.163.05-1.163-.046l-.001-1.913-.001-2.705-.003-2.99v-1.03c0-.15.062-.46 0-.6-.145-.329-1.22-.195-1.506-.153-.016.004 0 0 0 0v-.001zm-144.81.277c-2.852.17-4.987 2.41-5.096 5.248-.052 1.37.244 2.782 1.131 3.863a4.817 4.817 0 0 0 3.494 1.745c1.322.065 2.689-.185 3.85-.838.268-.15.169-.523.17-.79.003-.558.003-1.116.004-1.673V42.68c-.002-.44.002-.572-.467-.577-1.033-.01-2.07-.03-3.103 0-.415.012-.253.878-.246 1.148.012.518.841.329 1.21.329h.753c.377 0 .251.18.251.535v1.708c0 .358-.083.328-.46.453-.657.216-1.385.25-2.07.158-2.89-.39-3.678-4.328-2.11-6.426.881-1.179 2.219-1.56 3.64-1.4.691.076 1.376.276 1.974.637.601.366.432-.78.43-1.079-.003-.227.041-.445-.194-.557-.395-.189-.826-.303-1.253-.388a7.518 7.518 0 0 0-1.908-.131c-.78.047 0 0 0 0zm-35.763.179c-.245.066-.141.686-.141.843a3662.722 3662.722 0 0 0-.001 5.503c0 .952 0 1.904.004 2.855 0 .257-.179 1.308.197 1.308.226 0 1.319.137 1.379-.13.073-.321.017-.73.018-1.057a574.083 574.083 0 0 0 .004-1.943v-.517c0-.183-.009-.16.183-.162 1-.01 2.013.03 2.938-.417 2.052-.99 2.676-4.189.726-5.62-.768-.564-1.704-.665-2.626-.669-.892-.003-1.79-.028-2.68.005-.031.009 0 0 0 0zm3.204 1.497c.69.098 1.315.408 1.53 1.115.202.668.085 1.52-.427 2.02-.746.72-1.895.566-2.847.572v-3.736c.577.004 1.173-.035 1.744.029.204.029 0 0 0 0zm4.913-1.497c-.244.067-.142.686-.142.843-.002.498-.002.997-.002 1.495l.001 4.008c.001.952.001 1.904.004 2.855 0 .258-.18 1.308.197 1.308.23 0 1.31.137 1.378-.125.072-.274.017-.646.017-.928l.003-1.41.002-1.786c0-.086.68-.044.762-.043.622.009 1.06.282 1.431.771.449.59.798 1.268 1.179 1.904.294.492.556 1.142.948 1.565.117.113.401.056.546.056.325.001.652.006.978-.007.453-.017.08-.5-.031-.68l-1.06-1.698c-.552-.882-1.046-1.723-1.792-2.452.43-.272.873-.42 1.227-.815.376-.423.62-.946.701-1.506.17-1.136-.27-2.29-1.27-2.895-.737-.444-1.568-.467-2.398-.468-.89-.002-1.794-.045-2.68.008-.031.008 0 0 0 0zm3.374 1.498c1.392.22 1.828 1.89.762 2.819-.689.6-1.802.415-2.65.415-.047 0-.027-3.018-.027-3.263.632.003 1.291-.048 1.916.029.458.073 0 0 0 0h-.001zm5.286-1.498c-.244.067-.14.686-.14.843a3663.369 3663.369 0 0 0 .002 8.358c0 .258-.179 1.308.198 1.308.239 0 1.282.14 1.375-.117.083-.229.017-.58.018-.815.004-2.625.004-5.25.002-7.874 0-.505.08-1.094-.016-1.586-.052-.267-1.29-.13-1.438-.118-.032.008 0 0 0 0zm3.858 0c-.243.067-.141.686-.141.843-.002 1.834-.002 3.67-.001 5.504.001.95.001 1.902.004 2.854 0 .258-.18 1.308.197 1.308.233 0 1.297.137 1.377-.12.08-.252.017-.587.019-.853l.003-1.236.007-4.117.002-1.715c1.34 2.069 2.677 4.139 4.016 6.208.372.576.731 1.162 1.121 1.726.194.279 1.081.11 1.372.107.556-.005.463-.196.463-.663v-8.994c0-.229.143-.844-.215-.856-.248-.008-.499-.003-.748-.003-.127 0-.409-.048-.527.023-.153.107-.09.348-.09.508l-.003 1.62-.005 3.486-.003 2.373c-.934-1.468-1.874-2.932-2.811-4.398-.69-1.076-1.369-2.16-2.067-3.23-.26-.4-.324-.384-.803-.386-.388-.001-.78-.005-1.165.01-.032.008 0 0 0 0H78.3z"/></svg>