<?xml version="1.0" encoding="UTF-8" standalone="no"?>
<svg width="114px" height="28px" viewBox="0 0 114 28" version="1.1" xmlns="http://www.w3.org/2000/svg" xmlns:xlink="http://www.w3.org/1999/xlink" xmlns:sketch="http://www.bohemiancoding.com/sketch/ns">
    <!-- Generator: Sketch 3.3.2 (12043) - http://www.bohemiancoding.com/sketch -->
    <title>Maven Logo</title>
    <defs></defs>
    <g id="Page-1" stroke="none" stroke-width="1" fill="none" fill-rule="evenodd" sketch:type="MSPage">
        <g id="mvn-welcome" sketch:type="MSLayerGroup" fill="#FFFFFF">
            <g id="Group" sketch:type="MSShapeGroup">
                <g id="Clipped">
                    <path class="logo-a" d="M49.574,24.059 C45.759,24.059 42.436,21.892 40.748,18.715 C40.298,20.153 39.651,21.503 38.84,22.734 C41.375,25.888 45.245,27.909 49.574,27.909 C50.627,27.909 51.48,27.048 51.48,25.984 C51.48,24.921 50.627,24.059 49.574,24.059 M40.134,10.595 C40.304,10.11 40.509,9.642 40.748,9.193 C42.436,6.016 45.759,3.849 49.574,3.849 C50.627,3.849 51.48,2.988 51.48,1.924 C51.48,0.862 50.627,0 49.574,0 C45.245,0 41.375,2.02 38.84,5.175 C38.627,5.44 38.423,5.715 38.228,5.996 C38.028,6.288 37.836,6.588 37.658,6.894 C36.447,8.967 35.75,11.38 35.75,13.954 C35.75,15.131 35.548,16.261 35.18,17.313 C35.009,17.798 34.805,18.267 34.566,18.715 C32.879,21.892 29.556,24.059 25.741,24.059 C21.926,24.059 18.603,21.892 16.914,18.715 C16.465,20.153 15.819,21.503 15.006,22.734 C17.543,25.888 21.411,27.909 25.741,27.909 C30.07,27.909 33.939,25.888 36.475,22.734 C36.689,22.469 36.891,22.194 37.085,21.914 C37.287,21.622 37.478,21.322 37.658,21.015 C38.867,18.941 39.563,16.53 39.563,13.955 C39.563,12.776 39.766,11.646 40.134,10.595 M1.907,3.849 C5.722,3.849 9.045,6.016 10.734,9.193 C11.182,7.755 11.83,6.406 12.642,5.175 C10.105,2.02 6.237,0 1.907,0 C0.854,0 0,0.862 0,1.924 C0,2.988 0.854,3.849 1.907,3.849 M16.302,10.595 C16.471,10.11 16.676,9.642 16.914,9.193 C18.603,6.016 21.926,3.849 25.741,3.849 C29.556,3.849 32.879,6.016 34.566,9.193 C35.015,7.755 35.663,6.406 36.475,5.175 C33.939,2.02 30.07,0 25.741,0 C21.411,0 17.543,2.02 15.006,5.175 C14.793,5.44 14.59,5.715 14.395,5.996 C14.194,6.288 14.004,6.588 13.824,6.894 C12.614,8.967 11.917,11.38 11.917,13.954 C11.917,15.131 11.715,16.261 11.346,17.313 C11.176,17.798 10.972,18.267 10.734,18.715 C9.045,21.892 5.722,24.059 1.907,24.059 C0.854,24.059 0,24.921 0,25.983 C0,27.046 0.854,27.908 1.907,27.908 C6.237,27.908 10.105,25.887 12.642,22.733 C12.855,22.468 13.059,22.193 13.252,21.913 C13.454,21.621 13.644,21.321 13.824,21.014 C15.033,18.94 15.73,16.529 15.73,13.954 C15.73,12.776 15.933,11.646 16.302,10.595" id="Shape"></path>
                </g>
                <g id="Clipped" transform="translate(62.000000, 8.000000)">
                    <path d="M43.23,10.587 C43.23,10.728 43.356,10.854 43.496,10.854 L44.769,10.854 C44.922,10.854 45.035,10.728 45.035,10.587 L45.035,4.568 L45.049,4.568 L50.902,10.993 L51.238,10.993 C51.378,10.993 51.504,10.881 51.504,10.741 L51.504,1.321 C51.504,1.181 51.378,1.055 51.238,1.055 L49.951,1.055 C49.797,1.055 49.685,1.181 49.685,1.321 L49.685,7.102 L49.67,7.102 L43.847,0.915 L43.496,0.915 C43.356,0.915 43.23,1.027 43.23,1.167 L43.23,10.587 L43.23,10.587 Z M34.02,10.587 C34.02,10.728 34.13,10.854 34.285,10.854 L39.982,10.854 C40.135,10.854 40.248,10.728 40.248,10.587 L40.248,9.44 C40.248,9.301 40.136,9.175 39.982,9.175 L35.837,9.175 L35.837,6.722 L39.295,6.722 C39.436,6.722 39.562,6.61 39.562,6.456 L39.562,5.295 C39.562,5.156 39.436,5.03 39.295,5.03 L35.837,5.03 L35.837,2.732 L39.982,2.732 C40.135,2.732 40.248,2.606 40.248,2.466 L40.248,1.32 C40.248,1.181 40.136,1.055 39.982,1.055 L34.285,1.055 C34.131,1.055 34.02,1.181 34.02,1.32 L34.02,10.587 L34.02,10.587 Z M27.088,10.839 C27.13,10.923 27.2,10.993 27.326,10.993 L27.466,10.993 C27.592,10.993 27.662,10.923 27.704,10.839 L32.044,1.42 C32.128,1.238 32.017,1.056 31.807,1.056 L30.378,1.056 C30.252,1.056 30.168,1.14 30.141,1.21 L27.453,7.229 L27.355,7.229 L24.667,1.21 C24.64,1.14 24.556,1.056 24.429,1.056 L23,1.056 C22.79,1.056 22.678,1.238 22.762,1.42 L27.088,10.839 L27.088,10.839 Z M16.994,7.51 L18.366,4.429 L18.408,4.429 L19.808,7.51 L16.994,7.51 L16.994,7.51 Z M13.998,10.854 L15.216,10.854 C15.441,10.854 15.567,10.713 15.622,10.574 L16.309,9.062 L20.495,9.062 L21.182,10.574 C21.28,10.77 21.377,10.854 21.587,10.854 L22.806,10.854 C23.016,10.854 23.127,10.671 23.043,10.49 L18.731,1.07 C18.689,0.986 18.632,0.916 18.493,0.916 L18.353,0.916 C18.227,0.916 18.157,0.986 18.115,1.07 L13.761,10.49 C13.676,10.671 13.788,10.854 13.998,10.854 L13.998,10.854 Z M0.628,10.531 C0.601,10.727 0.712,10.853 0.895,10.853 L2.155,10.853 C2.281,10.853 2.393,10.741 2.407,10.643 L3.219,5.338 L3.261,5.338 L5.74,10.838 C5.782,10.922 5.852,10.992 5.978,10.992 L6.23,10.992 C6.356,10.992 6.44,10.922 6.467,10.838 L8.917,5.338 L8.959,5.338 L9.785,10.643 C9.813,10.741 9.925,10.853 10.051,10.853 L11.325,10.853 C11.507,10.853 11.619,10.727 11.577,10.531 L9.925,1.125 C9.911,1.013 9.827,0.915 9.673,0.915 L9.449,0.915 C9.323,0.915 9.253,0.971 9.211,1.055 L6.131,7.662 L6.089,7.662 L3.009,1.055 C2.967,0.971 2.883,0.915 2.772,0.915 L2.547,0.915 C2.394,0.915 2.31,1.013 2.295,1.125 L0.628,10.531 L0.628,10.531 Z" id="Shape"></path>
                </g>
            </g>
        </g>
    </g>
</svg>