<svg width="150" height="102" viewBox="0 0 150 102" xmlns="http://www.w3.org/2000/svg" xmlns:xlink="http://www.w3.org/1999/xlink"><title>Page 1</title><defs><path id="a" d="M.18.168h11.45V12.53H.18z"/></defs><g fill="none" fill-rule="evenodd"><path d="M27.706 65.268v-.828c3.937-.208 7.356-1.452 9.636-4.25 2.382-2.796 4.35-9.01 5.18-13.156h1.036c0 3.626 0 10.154 2.28 12.95 2.486 2.902 5.8 4.456 10.67 4.456v.828H27.705zm46.725.828h-.414l-25.9-52.317C45.63 8.805 43.35 5.8 40.345 3.73 37.756 2.073 34.234.933 31.954.828V0h21.238l26.73 53.975-5.49 12.12zM97.43 0h20.41v.828c-8.6.726-9.635 4.662-9.326 12.846l1.348 37.92c.31 9.22 2.382 12.12 9.947 12.846v.828H90.695v-.828c6.32-.623 8.806-2.9 8.806-9.43 0-.93 0-2.07-.104-3.417L97.43 0zM13.557 100.234c.032.675.282.864 1.555.864v.25h-4.037v-.25c1.272 0 1.587-.19 1.555-.864l-.408-9.88-4.666 10.995H7.51L2.75 90.384l-.41 9.11c-.046 1.225.158 1.603 1.697 1.603v.25H0v-.25c1.367 0 1.665-.33 1.73-1.618l.438-8.923c.048-1.006-.455-1.304-1.507-1.304v-.266h2.576L7.713 99.59l4.415-10.603h2.513v.266c-1.036 0-1.554.298-1.507 1.304l.424 9.677zM29.6 101.57c-3.787 0-6.598-2.562-6.598-6.473 0-3.926 2.81-6.393 6.597-6.393 3.77 0 6.58 2.576 6.58 6.488 0 3.91-2.81 6.377-6.58 6.377m0-12.41c-2.498 0-5.545 1.68-5.545 5.985 0 4.272 3.047 5.97 5.544 5.97 2.497 0 5.528-1.698 5.528-5.97 0-4.305-3.03-5.986-5.53-5.986M47.338 89.41c-2.247 0-2.67.865-2.702 3.44h-.157v-3.863h10.68v3.863h-.156c-.032-2.575-.456-3.44-2.702-3.44h-2.01v10.588c0 .912.282 1.1 1.868 1.1v.25h-4.68v-.25c1.587 0 1.87-.188 1.87-1.083V89.41h-2.012zM73.606 94.924H66.19v5.232c0 .674.284.94 1.556.94v.253h-4.052v-.253c1.272 0 1.554-.267 1.554-.94V90.1c0-.676-.282-.865-1.554-.865v-.25h4.052v.25c-1.272 0-1.555.19-1.555.865v4.336h7.416v-4.336c0-.676-.282-.865-1.555-.865v-.25h4.054v.25c-1.273 0-1.556.19-1.556.865v10.054c0 .674.283.94 1.556.94v.253H72.05v-.253c1.274 0 1.556-.267 1.556-.94v-5.233zM87.18 94.485h2.672c1.068 0 1.445-.11 1.68-1.603h.158v3.66h-.158c-.25-1.507-.612-1.634-1.68-1.634h-2.67v4.965c0 .942.203 1.05 1.193 1.05h2.67c2.043 0 2.514-.39 2.75-2.496h.157v2.923h-9.268v-.252c1.272 0 1.555-.19 1.555-.864V90.1c0-.674-.284-.863-1.556-.863v-.25h8.702v2.67h-.157c-.22-1.98-.74-2.247-3-2.247h-3.05v5.075zM106.474 88.986c2.72 0 5.168.486 5.168 3.094 0 1.667-1.35 3.127-3.66 3.236 2.184.094 3 .897 3.456 2.86.504 2.136 1.1 3.362 2.97 3.126l.015.032c-.33.14-.66.234-1.13.234-1.745 0-2.294-1.083-2.892-3.44-.61-2.45-1.506-2.512-3.91-2.512h-1.147v4.43c0 .91.456 1.052 1.886 1.052v.25h-4.384v-.25c1.272 0 1.554-.22 1.554-.943v-10.07c0-.722-.282-.863-1.554-.863v-.236h3.628zm-1.13 6.284h.69c2.183 0 4.54-.55 4.54-3.08 0-2.057-1.413-2.78-4.053-2.78h-1.177v5.86zM126.74 89.237c-1.272 0-1.554.19-1.554.864v9.993c0 .69.408.833 1.006.833h2.702c2.04 0 2.513-.393 2.748-2.498h.157v2.92h-9.112v-.25c1.273 0 1.555-.19 1.555-.864V90.1c0-.674-.282-.863-1.555-.863v-.25h4.053v.25z" fill="#111"/><g transform="translate(138 88.82)"><mask id="b" fill="#fff"><use xlink:href="#a"/></mask><path d="M9.118 1.58C9.605.75 9.243.42 7.892.42V.168h3.74V.42c-1.1 0-1.32.313-1.87 1.194L6.226 7.347v3.91c0 .913.283 1.023 1.79 1.023v.25H3.495v-.25c1.51 0 1.79-.14 1.79-1.006V7.472L1.8 1.347C1.484.78 1.185.42.18.42V.168h3.833V.42c-1.037 0-1.525.22-1.225.77l3.157 5.75 3.173-5.36z" fill="#111" mask="url(#b)"/></g></g></svg>