<svg width="150" height="75" viewBox="0 0 150 75" xmlns="http://www.w3.org/2000/svg" xmlns:xlink="http://www.w3.org/1999/xlink"><title>Page 1</title><defs><path id="a" d="M.13.268h61.684V34.33L.13 34.334z"/><path id="c" d="M.095.275h24.54v26.67H.094z"/></defs><g fill="none" fill-rule="evenodd"><g transform="translate(43.97 .01)"><mask id="b" fill="#fff"><use xlink:href="#a"/></mask><path d="M56.613 17.298c0 6.532-5.323 11.845-11.865 11.845-2.226 0-4.396-.622-6.277-1.8a14.07 14.07 0 0 0-7.5-2.164c-2.655 0-5.247.746-7.495 2.16a11.82 11.82 0 0 1-6.28 1.803c-6.542 0-11.864-5.313-11.864-11.845 0-6.53 5.323-11.843 11.865-11.843 2.225 0 4.397.623 6.28 1.802 4.482 2.82 10.507 2.823 14.993.002a11.815 11.815 0 0 1 6.28-1.805c6.542 0 11.865 5.313 11.865 11.843M44.748.268c-3.206 0-6.334.9-9.048 2.6-2.83 1.778-6.63 1.778-9.46-.002A17.006 17.006 0 0 0 17.195.268C7.785.268.13 7.908.13 17.298c0 9.392 7.655 17.034 17.065 17.034 3.2 0 6.33-.9 9.052-2.6 2.823-1.78 6.624-1.78 9.457 0a17.002 17.002 0 0 0 9.044 2.6c9.41 0 17.066-7.642 17.066-17.034 0-9.39-7.655-17.03-17.066-17.03" fill="#121313" mask="url(#b)"/></g><path d="M14.723 51.872c3.272 0 6.27-1.904 6.27-5.987 0-4.082-2.998-5.987-6.27-5.987H5.726v11.974h8.997zM0 34.455h14.45c7.09 0 12.27 4.627 12.27 11.43 0 6.804-5.18 11.43-12.27 11.43H5.727v16.873H0V34.455z" fill="#121313"/><g transform="translate(25.88 47.788)"><mask id="d" fill="#fff"><use xlink:href="#c"/></mask><path d="M5.82 10.18H18.91c-.273-2.83-3-5.007-6.27-5.007-3.818 0-6 2.177-6.817 5.007zm-.27 4.79c0 3.81 2.725 7.076 7.36 7.076 3.27 0 5.507-1.633 6.325-3.81l4.58 2.177c-2.18 3.81-5.997 6.532-11.178 6.532C5.82 26.945.095 21.5.095 13.61.095 5.717 5.55.275 12.637.275c6.544 0 11.997 5.17 11.997 13.062l-.546 1.633H5.548z" fill="#121313" mask="url(#d)"/></g><path d="M66.19 52.96c-5.18 0-7.96 3.81-7.96 8.437 0 4.627 2.78 8.436 7.96 8.436 4.635 0 7.907-3.81 7.907-8.436 0-4.626-3.272-8.436-7.907-8.436zM79.004 74.19h-4.907l-.545-2.177-.273-.27-.274.27c-1.635 1.633-4.362 2.722-7.088 2.722-7.09 0-13.088-5.443-13.088-13.335 0-7.892 6-13.335 13.088-13.335 2.726 0 5.453 1.09 7.088 2.722l.273.272.272-.272.545-2.177h4.907v25.58zM82.563 48.607h4.908l.546 2.177.272.272.274-.272c1.09-1.633 3.816-2.722 5.998-2.722 6.544 0 10.36 4.355 10.36 10.342v15.784h-5.453V58.404c-.164-3.484-1.853-5.443-5.453-5.443-3.217 0-5.89 2.613-5.998 5.77v15.458h-5.453v-25.58zM130.833 74.188h-4.907l-.545-2.177-.27-.27-.275.27c-1.09 1.633-3.816 2.722-5.997 2.722-6.544 0-10.36-4.354-10.36-10.34V48.606h5.452V64.39c.11 3.484 1.8 5.443 5.452 5.443 3.164 0 5.835-2.557 6-5.714V48.606h5.45v25.58zM133.526 48.607h4.96v-5.443l4.31-5.443h1.035v10.887h5.508v4.898h-5.507v13.063c0 1.633 1.147 2.72 2.782 2.72l3.272-.543v4.898l-3 .545c-5.452 0-8.397-2.722-8.397-7.62V53.505h-4.96v-4.898z" fill="#121313"/></g></svg>