<?xml version="1.0" encoding="UTF-8"?>
<svg width="150px" height="137px" viewBox="0 0 150 137" version="1.1" xmlns="http://www.w3.org/2000/svg" xmlns:xlink="http://www.w3.org/1999/xlink">
    <!-- Generator: Sketch 50.2 (55047) - http://www.bohemiancoding.com/sketch -->
    <title>Page 1</title>
    <desc>Created with Sketch.</desc>
    <defs></defs>
    <g id="Page-1" stroke="none" stroke-width="1" fill="none" fill-rule="evenodd">
        <g id="MMH3_3" transform="translate(-278.000000, -8292.000000)" fill="#121313">
            <g id="Panel-4" transform="translate(0.000000, 8115.000000)">
                <g id="Logos" transform="translate(278.000000, 74.000000)">
                    <g transform="translate(0.000000, 103.000000)" id="Page-1">
                        <g>
                            <path d="M74.9136792,0.000169834711 L74.9114151,0.000169834711 C69.0591509,0.000169834711 63.4780189,1.2858186 58.4091509,3.60915744 C50.804434,7.09359959 44.3527358,12.9042112 39.8012264,20.2020087 C35.249717,27.4998062 32.5966981,36.2915831 32.5966981,45.7428847 C32.5966981,56.7317566 36.1831132,66.827864 42.1706604,74.7234798 C48.1542453,82.6156988 56.5463208,88.3181822 66.1548113,90.5045211 C66.2182075,90.5203723 66.3642453,90.5543393 66.5742453,90.5888723 C66.8300943,90.6307649 67.1793396,90.6709591 67.5880189,90.6715252 C67.9740566,90.6709591 68.415,90.6358599 68.8808491,90.5169756 C69.2295283,90.4263971 69.5940566,90.2899632 69.9478302,90.0816326 C70.2127358,89.9259508 70.4714151,89.7283764 70.7063208,89.4872112 C71.0600943,89.1260293 71.3561321,88.6657773 71.5582075,88.1274012 C71.7614151,87.5890252 71.8746226,86.9753558 71.8961321,86.2841285 C71.9170755,85.6115831 71.925,84.897145 71.925,84.1057153 C71.925,82.9899012 71.9091509,81.7218021 71.8916038,80.2148021 C71.8825472,79.3741202 71.7348113,78.6449632 71.4970755,78.0329921 C71.3187736,77.5727401 71.0912264,77.180988 70.845,76.8560376 C70.4748113,76.3663475 70.0661321,76.0289426 69.7157547,75.8036285 C69.5408491,75.6915376 69.3795283,75.6077525 69.2385849,75.5437814 C69.1683962,75.5120789 69.1016038,75.4849054 69.0393396,75.463393 C68.9753774,75.4396161 68.9187736,75.4203682 68.8400943,75.4011202 L68.8389623,75.4005541 C63.2623585,74.0582938 58.3010377,70.9010665 54.5131132,66.5085748 C50.7319811,62.1262731 48.1287736,56.518331 47.2689623,50.2836988 C47.2678302,50.2729426 47.2666981,50.2582236 47.265566,50.2429384 C47.2559434,50.108769 47.2321698,49.8534508 47.1665094,49.5420872 C47.1178302,49.3077153 47.0442453,49.037112 46.9282075,48.7512236 C46.8404717,48.5366657 46.7278302,48.3124839 46.5783962,48.0894343 C46.4663208,47.9229963 46.3327358,47.7571244 46.1736792,47.6025748 C45.9348113,47.3693351 45.6336792,47.1604384 45.2827358,47.0172112 C44.9334906,46.8739839 44.5395283,46.7969921 44.1285849,46.7969921 L44.1234906,46.7969921 C43.964434,46.7969921 43.8014151,46.8088806 43.6361321,46.830393 L43.6366981,46.8298269 C43.1210377,46.8960624 42.6466981,47.0681616 42.2583962,47.3336698 C41.9663208,47.5312442 41.7263208,47.7763723 41.5440566,48.0356533 C41.2689623,48.4251409 41.1172642,48.8378393 41.0295283,49.2188351 C40.9412264,49.6015293 40.9168868,49.9598806 40.9163208,50.2746409 C40.9163208,50.5877029 40.9423585,50.8588723 40.9695283,51.0615417 C40.9831132,51.1628764 40.9966981,51.2466616 41.0074528,51.3083682 C41.0125472,51.3395045 41.0170755,51.3638475 41.0199057,51.3802649 L41.0204717,51.3830955 C42.0133019,58.4017979 44.8293396,64.777393 48.9365094,69.9250831 C53.0487736,75.0761698 58.4600943,79.0016161 64.635,81.0945459 L64.6582075,81.1019054 L64.6582075,81.1030376 L64.6604717,81.1030376 C64.6746226,81.1081326 64.7583962,81.1375707 64.8659434,81.1924839 C64.9468868,81.2343764 65.040283,81.2887236 65.1280189,81.3532607 C65.2604717,81.4511988 65.3753774,81.5683847 65.4466981,81.6855707 C65.4834906,81.7450128 65.5112264,81.8055872 65.5316038,81.8740872 C65.5508491,81.9425872 65.5633019,82.0195789 65.5638679,82.1214798 C65.5633019,82.2364012 65.5463208,82.3824591 65.4891509,82.5732401 C65.444434,82.7187318 65.3957547,82.8008186 65.3538679,82.8534674 C65.3227358,82.8942277 65.2938679,82.920269 65.2599057,82.944612 C65.2095283,82.9797112 65.1427358,83.0125459 65.0465094,83.0368888 C64.9519811,83.0612318 64.8314151,83.0753847 64.6995283,83.0753847 L64.6972642,83.0753847 L64.6904717,83.0753847 C64.4708491,83.0753847 64.2280189,83.0340583 64.0531132,82.9915996 C63.9642453,82.9706533 63.8923585,82.9480087 63.8470755,82.934988 C63.824434,82.9270624 63.8085849,82.9219674 63.8000943,82.9197029 L63.7751887,82.9095128 C56.5882075,80.3721822 50.3770755,75.4333888 45.9614151,68.9490996 C41.5457547,62.4636781 38.9295283,54.4401202 38.9295283,45.7428847 C38.9295283,35.7062194 42.4129245,26.5679798 48.1236792,19.6574054 C50.9787736,16.201269 54.3891509,13.3055872 58.1985849,11.1317029 C62.0068868,8.9578186 66.2125472,7.50686405 70.6678302,6.93735165 L70.6763208,6.93678554 C70.6819811,6.93565331 70.7085849,6.93338884 70.7470755,6.93338884 L70.7482075,6.93338884 L70.7510377,6.93338884 C70.8127358,6.93338884 70.9033019,6.94018223 70.9916038,6.96112851 C71.0606604,6.97584752 71.1274528,6.99849215 71.1874528,7.02962851 C71.2780189,7.07661612 71.3527358,7.13152934 71.4348113,7.24305413 C71.5146226,7.35514504 71.6091509,7.53856653 71.6674528,7.8799343 C71.6838679,7.97787231 71.6895283,8.06052521 71.6895283,8.12959132 C71.6895283,8.23602107 71.6753774,8.31188058 71.6583962,8.37188884 C71.6266981,8.47435579 71.5842453,8.54059132 71.5151887,8.6153186 C71.4631132,8.66909959 71.3951887,8.72344669 71.3170755,8.77100041 C71.2004717,8.84233099 71.0640566,8.8966781 70.965,8.92668223 C70.9163208,8.94140124 70.8772642,8.95159132 70.8557547,8.95612025 L70.8512264,8.9578186 C63.1033019,9.94455826 56.1517925,13.7250789 50.8865094,19.3149054 C45.6229245,24.9013351 42.0280189,32.2999012 40.9576415,40.5663227 C40.9440566,40.6280293 40.9253774,40.7169095 40.9078302,40.8295665 C40.8766981,41.0248764 40.8461321,41.2903847 40.8461321,41.6017483 C40.8461321,41.8763145 40.8687736,42.1876781 40.9457547,42.5233847 C41.0040566,42.7753062 41.0929245,43.0402483 41.2293396,43.3034921 C41.4331132,43.6997731 41.7568868,44.0937897 42.1989623,44.3830748 C42.4191509,44.5285665 42.6648113,44.6474508 42.930283,44.7368971 C43.1963208,44.8269095 43.4804717,44.8874839 43.7816038,44.9191864 C43.9021698,44.9316409 44.0210377,44.9384343 44.1393396,44.9384343 L44.1433019,44.9384343 C44.5021698,44.9384343 44.8508491,44.8755955 45.164434,44.756145 C45.4395283,44.6519798 45.6857547,44.5059219 45.8946226,44.3383517 C46.2619811,44.0451037 46.514434,43.6952442 46.6961321,43.3606698 C46.9672642,42.8551285 47.0912264,42.3716657 47.1631132,42.0019921 C47.2157547,41.7200665 47.235566,41.5038103 47.2423585,41.3979467 C48.2136792,34.0237236 51.6251887,27.5111285 56.5417925,22.8491657 C59.0040566,20.5156368 61.8416038,18.6451905 64.9400943,17.3584095 C68.0385849,16.0727607 71.3963208,15.3685128 74.9114151,15.3685128 C78.4061321,15.3685128 81.7440566,16.064269 84.8295283,17.3357649 C89.4529245,19.2435748 93.5012264,22.4523186 96.585566,26.5628847 C99.6704717,30.6734508 101.788585,35.6824426 102.550472,41.1782938 C102.551604,41.183955 102.553868,41.2065996 102.557264,41.2360376 C102.564623,41.301707 102.573679,41.404174 102.591792,41.5253227 C102.622358,41.7387483 102.671604,42.0144467 102.766698,42.3212814 C102.839151,42.5516905 102.936509,42.8007814 103.078019,43.0538351 C103.183302,43.24405 103.315755,43.4376616 103.478774,43.6199508 C103.723302,43.8956492 104.047075,44.1475707 104.437075,44.3208021 C104.824811,44.4945996 105.269717,44.5851781 105.739528,44.5851781 L105.746321,44.5851781 C105.90934,44.5851781 106.076887,44.5738558 106.246698,44.5534756 C106.755566,44.4940335 107.223679,44.3292938 107.608585,44.0728434 C107.896698,43.8809302 108.133302,43.6425955 108.312736,43.3918062 C108.581604,43.0130748 108.727075,42.6162277 108.810849,42.2578764 C108.892925,41.8972607 108.913868,41.5672153 108.914434,41.2903847 C108.914434,41.1211161 108.905943,40.9710955 108.895189,40.8482483 C108.886132,40.7254012 108.872547,40.626331 108.866321,40.5719839 C107.821415,32.4918145 104.363491,25.2387401 99.2934906,19.6992979 C94.2234906,14.1587236 87.5306604,10.324988 80.0357547,9.11180207 L80.025566,9.11010372 C80.0114151,9.10727314 79.8738679,9.0840624 79.6848113,9.0302814 C79.5376415,8.99008719 79.3593396,8.93007893 79.1883962,8.85478554 C79.0587736,8.79760785 78.9348113,8.73137231 78.8261321,8.66060785 C78.6636792,8.5541781 78.5493396,8.44095496 78.4882075,8.34754587 C78.4570755,8.29942603 78.4366981,8.25696736 78.4219811,8.20997975 C78.4078302,8.16299215 78.3976415,8.11034339 78.3976415,8.03618223 C78.3976415,7.98919463 78.4027358,7.93371529 78.4140566,7.86691364 C78.4593396,7.6166905 78.5283962,7.47063264 78.5917925,7.37382686 C78.6404717,7.30079793 78.6891509,7.25324421 78.7457547,7.20965331 C78.8295283,7.14681446 78.9393396,7.09473182 79.079717,7.05906653 C79.2178302,7.02396736 79.3791509,7.00811612 79.5308491,7.00811612 L79.5359434,7.00811612 L79.5376415,7.00811612 C79.6876415,7.00811612 79.8257547,7.02226901 79.9185849,7.0364219 C79.965566,7.04321529 80.0000943,7.05057479 80.0199057,7.0545376 L80.0374528,7.0579343 C80.0759434,7.06812438 80.0872642,7.06982273 80.1325472,7.07718223 C84.4689623,7.76105 88.5551887,9.28559959 92.249717,11.4974136 C97.7934906,14.8142855 102.454245,19.68005 105.729906,25.565955 C109.005566,31.4512938 110.893302,38.3533764 110.893302,45.7428847 C110.893302,54.3840748 108.311038,62.3600789 103.946887,68.8228558 C99.5833019,75.2856326 93.4412264,80.2272566 86.3261321,82.8110087 L86.3012264,82.8200665 L86.2995283,82.8206326 C86.2848113,82.8257277 86.1693396,82.8687525 86.0046226,82.9072483 C85.829717,82.949707 85.5993396,82.9876368 85.3904717,82.9876368 L85.3853774,82.9876368 L85.3836792,82.9876368 C85.2721698,82.9876368 85.1685849,82.9768806 85.0814151,82.9587649 C85.0163208,82.9457442 84.9591509,82.9264963 84.9121698,82.9061161 C84.8414151,82.8744136 84.7910377,82.8398806 84.7400943,82.788364 C84.6914151,82.7362814 84.6353774,82.6626864 84.5782075,82.5200252 C84.5199057,82.367174 84.5040566,82.259612 84.5040566,82.1707318 C84.5040566,82.0999674 84.5136792,82.0399591 84.5340566,81.9754219 C84.5674528,81.8638971 84.6387736,81.7365211 84.749717,81.6046161 C84.915,81.4076079 85.1663208,81.2151285 85.3723585,81.0905831 C85.4742453,81.0277442 85.5642453,80.9801905 85.6236792,80.9496202 C85.6457547,80.9394302 85.6616038,80.9315045 85.6746226,80.9247112 C91.7742453,78.7479963 97.1029245,74.7778269 101.13934,69.6040955 C105.183679,64.4184756 107.931792,58.0219343 108.855,50.9964384 L108.855,50.9953062 C108.856698,50.9834178 108.861792,50.9517153 108.866321,50.9132194 C108.87934,50.7943351 108.898585,50.5995913 108.898585,50.3572938 C108.898585,50.1149963 108.881038,49.8240128 108.812547,49.5013269 C108.761038,49.2607277 108.681226,49.0014467 108.552736,48.7376368 C108.455943,48.5400624 108.330849,48.3407897 108.173491,48.1522731 C107.936887,47.8686492 107.619906,47.6144632 107.244057,47.4355707 C106.868208,47.2555459 106.440283,47.1502483 105.977264,47.1179798 C105.888396,47.1117525 105.798396,47.1083558 105.710094,47.1083558 L105.70783,47.1083558 C105.367075,47.1083558 105.039906,47.1576079 104.737075,47.2538475 C104.47217,47.3370665 104.227642,47.4565169 104.014245,47.5997442 C103.639528,47.8522318 103.363302,48.1692566 103.164057,48.4811864 C102.865189,48.9527607 102.723679,49.4147112 102.638774,49.7821202 C102.596321,49.9655417 102.570849,50.1263186 102.554434,50.2502979 C102.546509,50.3114384 102.540283,50.3640872 102.535189,50.4025831 C102.533491,50.4212649 102.531792,50.4376822 102.53066,50.4473062 L102.529528,50.4569302 C101.802736,55.5270624 99.9217925,60.178269 97.1917925,64.0861657 C94.4629245,67.9946285 90.8872642,71.1586492 86.7716038,73.2572401 C86.730283,73.2781864 86.7189623,73.2849798 86.6827358,73.3081905 L86.6776415,73.310455 C86.6465094,73.330269 86.4540566,73.4423599 86.1976415,73.5448269 C86.0589623,73.6020045 85.9027358,73.6552194 85.7482075,73.6920169 C85.5936792,73.7282483 85.4436792,73.7486285 85.3174528,73.7486285 L85.3151887,73.7486285 C85.2251887,73.7486285 85.1476415,73.7395707 85.0848113,73.7242855 C84.9885849,73.6999426 84.9240566,73.6682401 84.8487736,73.6070996 C84.7757547,73.5448269 84.6840566,73.442926 84.585,73.2317649 C84.5165094,73.0794798 84.5023585,72.9821079 84.5006604,72.8983227 C84.5006604,72.8371822 84.5108491,72.7805707 84.5300943,72.7171657 C84.5640566,72.6067731 84.6393396,72.4703393 84.7565094,72.3288103 C84.930283,72.1159508 85.1917925,71.906488 85.4046226,71.7672236 C85.5110377,71.6975913 85.6038679,71.6438103 85.665,71.6104095 C85.6966981,71.593426 85.7199057,71.5809715 85.7329245,71.5753103 L85.7442453,71.5685169 L85.7572642,71.5628558 C90.3195283,69.3255665 94.169717,65.7312979 96.8810377,61.2680417 C99.5929245,56.8036533 101.165943,51.4668806 101.165943,45.7428847 C101.165943,37.945207 98.2468868,30.8693269 93.5080189,25.7357897 C91.1368868,23.1690211 88.3089623,21.0845831 85.1612264,19.6421202 C82.0151887,18.2007897 78.5465094,17.4020004 74.9136792,17.4020004 L74.9114151,17.4020004 C71.2774528,17.4014343 67.8087736,18.2007897 64.6616038,19.6421202 C59.939717,21.8069467 55.9395283,25.4108393 53.1195283,29.930707 C50.2989623,34.451707 48.6568868,39.8954756 48.6568868,45.7428847 C48.6568868,53.0361533 51.210283,59.698769 55.4187736,64.7315376 C57.5227358,67.2473558 60.0421698,69.3578351 62.865566,70.9339012 C65.6878302,72.5105335 68.8151887,73.5527525 72.1248113,73.9297855 C72.1672642,73.9343145 72.1916038,73.9360128 72.2295283,73.9365789 C72.2527358,73.9382773 72.359717,73.9479012 72.4961321,73.9880955 C72.6104717,74.020364 72.7434906,74.0735789 72.8742453,74.152269 C72.9727358,74.2117112 73.0700943,74.2847401 73.1634906,74.3809798 C73.3033019,74.5253393 73.439717,74.7166864 73.5540566,75.0218227 C73.665566,75.3241285 73.7521698,75.7453186 73.7521698,76.3289839 L73.7521698,89.7815913 C73.7521698,90.4218682 74.2712264,90.9409963 74.9114151,90.9409963 C75.5516038,90.9409963 76.0706604,90.4218682 76.0706604,89.7815913 L76.0706604,76.3289839 C76.0706604,75.8155169 76.0219811,75.3473393 75.9308491,74.9193558 C75.7723585,74.1732153 75.4729245,73.5527525 75.0982075,73.0760831 C74.8185849,72.7177318 74.4999057,72.4425996 74.1863208,72.2382318 C73.7148113,71.930831 73.2591509,71.7802442 72.914434,71.7026864 C72.6551887,71.6438103 72.4559434,71.6262607 72.345566,71.6205996 C69.3659434,71.2747029 66.5510377,70.3360831 63.9953774,68.9106037 C60.1457547,66.7604963 56.8893396,63.5008021 54.5963208,59.5108186 C52.304434,55.5208351 50.9753774,50.8056574 50.9753774,45.7428847 C50.9748113,38.5277401 53.6759434,32.0117483 58.0185849,27.307893 C60.1904717,24.9573806 62.7704717,23.0597607 65.6266981,21.7509012 C68.4846226,20.4420417 71.6170755,19.7208103 74.9114151,19.7202442 C78.2051887,19.7208103 81.3387736,20.4420417 84.1961321,21.7509012 C88.4799057,23.7141905 92.144434,27.0027566 94.7363208,31.1580459 C97.3287736,35.3144674 98.8474528,40.3302525 98.8474528,45.7428847 C98.8474528,51.0405955 97.3927358,55.960707 94.8999057,60.0633475 C92.4082075,64.1665541 88.8806604,67.448893 84.7400943,69.4789839 C84.6914151,69.5027607 84.5493396,69.572393 84.3540566,69.6907112 C84.1893396,69.7886492 83.9833019,69.9216864 83.7636792,70.0920872 C83.4359434,70.3474054 83.0668868,70.6819798 82.7527358,71.1388351 C82.5965094,71.3675459 82.455,71.6285252 82.3508491,71.9240376 C82.2472642,72.2184178 82.1827358,72.5490293 82.1827358,72.8983227 C82.1816038,73.3268723 82.2823585,73.7763682 82.4810377,74.2037855 C82.6270755,74.5219426 82.8070755,74.8055665 83.0199057,75.0512607 C83.339717,75.419236 83.7331132,75.6892731 84.1372642,75.8489178 C84.5408491,76.0108269 84.945,76.0674384 85.3140566,76.0674384 L85.3151887,76.0674384 C85.6848113,76.0668723 86.025566,76.0119591 86.3295283,75.9366657 C86.7857547,75.8228764 87.165566,75.6615335 87.4417925,75.5296285 C87.6421698,75.4322566 87.7893396,75.3484715 87.8646226,75.3031822 C92.3176415,73.0211698 96.164434,69.6080583 99.0936792,65.413707 C102.030849,61.2063351 104.047075,56.2126285 104.824811,50.7813145 L104.824811,50.7818806 C104.831038,50.734893 104.833868,50.71055 104.836698,50.6816781 C104.842925,50.6301616 104.849717,50.5724178 104.859906,50.5033517 C104.879151,50.3833351 104.909151,50.2327483 104.956132,50.0878227 C104.991226,49.9785624 105.035377,49.8732649 105.083491,49.7866492 C105.120283,49.7215459 105.15934,49.6671988 105.196132,49.6236079 C105.255,49.5596368 105.305377,49.5200087 105.373868,49.4883062 C105.442358,49.457736 105.536321,49.4282979 105.710094,49.4271657 C105.742925,49.4271657 105.777453,49.428864 105.815943,49.4299963 C106.074623,49.4498103 106.206509,49.5052897 106.283491,49.5483145 C106.34066,49.5828475 106.375189,49.6139839 106.407453,49.6553103 C106.455,49.7136202 106.503113,49.8092938 106.534811,49.9395004 C106.567642,50.0668764 106.581792,50.2225583 106.580094,50.3572938 C106.580094,50.4376822 106.576698,50.5095789 106.570472,50.5661905 C106.56934,50.5944963 106.565943,50.6188393 106.564245,50.6386533 C106.560849,50.6595996 106.559151,50.6754508 106.555755,50.695831 L106.555755,50.6946988 C105.686321,57.3103269 103.100094,63.319645 99.3116038,68.17805 C95.5208491,73.036455 90.5323585,76.7394178 84.855,78.7559219 L84.7961321,78.7791326 C84.765,78.7921533 84.6110377,78.8583888 84.3857547,78.9823682 C84.2176415,79.0752112 84.0099057,79.2008888 83.7874528,79.3644963 C83.4523585,79.6101905 83.0765094,79.9391037 82.7572642,80.3987897 C82.5987736,80.6275004 82.455566,80.8913103 82.3525472,81.1902194 C82.2478302,81.4874302 82.1861321,81.8203062 82.1861321,82.1707318 C82.1861321,82.5619178 82.2642453,82.9706533 82.4221698,83.3691988 C82.560283,83.7230211 82.7516038,84.040612 82.9853774,84.3044219 C83.1585849,84.5025624 83.3561321,84.6695665 83.5616038,84.8043021 C83.8700943,85.0052731 84.195,85.1315169 84.5057547,85.2056781 C84.8153774,85.2809715 85.1125472,85.3064467 85.3853774,85.3064467 C85.875,85.3053145 86.2938679,85.224926 86.6034906,85.1473682 C86.8757547,85.0788682 87.0636792,85.0109343 87.1287736,84.9860252 C94.7300943,82.2222483 101.249717,76.9602029 105.868585,70.120393 C110.489717,63.2771864 113.211792,54.8477236 113.211792,45.7428847 C113.211792,35.361455 109.674623,25.8603351 103.817264,18.5851822 C100.888585,14.9473227 97.3791509,11.8648227 93.4412264,9.50751694 C89.5129245,7.15700455 85.1566981,5.52772355 80.5321698,4.79290537 C80.3833019,4.75950455 80.0199057,4.68987231 79.5359434,4.68874008 C79.2682075,4.68874008 78.9619811,4.7108186 78.6336792,4.78271529 C78.3868868,4.83649628 78.1265094,4.91858306 77.864434,5.04482686 C77.4716038,5.23334339 77.0753774,5.52998802 76.7646226,5.94551694 C76.4516038,6.35821529 76.2336792,6.87677727 76.1317925,7.46214091 C76.0972642,7.65518636 76.079717,7.84653347 76.079717,8.03618223 C76.079717,8.40359132 76.1476415,8.75741364 76.2687736,9.07217397 C76.3751887,9.35013678 76.5212264,9.59639711 76.6848113,9.80812438 C76.9734906,10.1800624 77.3131132,10.4495335 77.6436792,10.6561657 C78.1423585,10.9641326 78.630283,11.1384963 79.005566,11.2483227 C79.3474528,11.347393 79.5953774,11.3887194 79.665566,11.4006079 C86.6108491,12.5254798 92.8366981,16.0784219 97.5834906,21.2646079 C102.327453,26.4490955 105.582736,33.2600335 106.567642,40.8691946 C106.57217,40.91505 106.580094,40.9705293 106.585189,41.042426 C106.591415,41.1143227 106.596509,41.1992401 106.596509,41.2903847 C106.596509,41.4222897 106.585755,41.5666492 106.560849,41.6923269 C106.543302,41.7868682 106.516132,41.8706533 106.48783,41.9346244 C106.465189,41.9833103 106.442547,42.0223723 106.419906,42.0512442 C106.384811,42.0965335 106.353679,42.1259715 106.294811,42.1599384 C106.235943,42.192207 106.141981,42.2301368 105.970472,42.2522153 C105.886698,42.2612731 105.811415,42.2658021 105.746887,42.2658021 L105.746321,42.2658021 C105.608774,42.2658021 105.515377,42.2476864 105.446887,42.2267401 C105.387453,42.2091905 105.346698,42.1876781 105.30934,42.1644674 C105.246509,42.1225748 105.190472,42.0659632 105.131604,41.9731202 C105.087453,41.903488 105.043868,41.8163062 105.008774,41.7183682 C104.956132,41.5723103 104.918208,41.4058723 104.895566,41.2592483 C104.884245,41.1856533 104.876321,41.1171533 104.870094,41.0554467 C104.865566,41.0237442 104.86217,40.9937401 104.858208,40.963736 C104.855943,40.9325996 104.853113,40.9025955 104.847453,40.8590045 L104.847453,40.8601368 C103.757264,33.0120748 100.087642,26.0692318 94.7833019,21.0789219 C92.130283,18.5834839 89.0657547,16.5760376 85.7119811,15.1924508 C82.3593396,13.808864 78.7146226,13.050269 74.9131132,13.050269 L74.9114151,13.050269 C71.0861321,13.0497029 67.4210377,13.8173558 64.0514151,15.2167938 C58.995,17.3165169 54.6036792,20.8315293 51.284434,25.302145 C47.9646226,29.7733269 45.7134906,35.2023764 44.9380189,41.1380996 C44.9323585,41.1845211 44.9312264,41.1930128 44.9295283,41.2383021 C44.9283962,41.2569839 44.9204717,41.3781326 44.8904717,41.5406079 C44.8666981,41.6730789 44.8293396,41.8327236 44.7761321,41.9833103 C44.7365094,42.0959674 44.6889623,42.2035293 44.6385849,42.2912773 C44.5995283,42.3575128 44.5599057,42.4129921 44.5236792,42.4537525 C44.4665094,42.5177236 44.4200943,42.5516905 44.3714151,42.5754674 C44.3210377,42.598112 44.2627358,42.6190583 44.1393396,42.6196244 C44.1059434,42.6196244 44.0685849,42.6173599 44.0266981,42.612831 C43.7572642,42.5845252 43.6038679,42.5228186 43.5093396,42.4679054 C43.4385849,42.4265789 43.394434,42.3875169 43.3570755,42.3427938 C43.3004717,42.2748599 43.2517925,42.1808847 43.2166981,42.0495459 C43.1810377,41.9199054 43.1634906,41.7579963 43.1646226,41.6017483 C43.1640566,41.4449343 43.1804717,41.2954798 43.1974528,41.1947112 C43.2053774,41.1437607 43.2127358,41.1046988 43.2172642,41.0820541 L43.2223585,41.061674 C43.2336792,41.0163847 43.2433019,40.9665665 43.2489623,40.9212773 C44.2474528,33.1139756 47.6368868,26.1445252 52.5733019,20.9056905 C57.5114151,15.6657236 63.9846226,12.1625996 71.1789623,11.2528517 L71.2168868,11.2471905 C71.2599057,11.2403971 71.4263208,11.2120913 71.6651887,11.137364 C71.8446226,11.0807525 72.0653774,10.9975335 72.3076415,10.8724219 C72.4882075,10.7784467 72.6817925,10.6595624 72.8736792,10.506145 C73.1612264,10.2780004 73.4516038,9.96663678 73.665566,9.5601657 C73.8812264,9.15595909 74.0091509,8.66060785 74.0080189,8.12959132 C74.0080189,7.92465744 73.9899057,7.71349628 73.9536792,7.4978062 C73.860283,6.93508719 73.6757547,6.44256653 73.4159434,6.03609545 C73.2223585,5.73095909 72.9868868,5.47733926 72.7372642,5.28146322 C72.3631132,4.98595083 71.9646226,4.81838058 71.6193396,4.72723595 C71.2712264,4.63552521 70.9706604,4.61514504 70.7482075,4.61457893 C70.5631132,4.61457893 70.4312264,4.63043017 70.3695283,4.63778967 C65.6051887,5.24693017 61.1080189,6.80091777 57.0489623,9.11746322 C50.9578302,12.595112 45.8487736,17.7869591 42.2623585,24.0900913 C38.6765094,30.3926574 36.6110377,37.8116037 36.6110377,45.7428847 C36.6110377,54.9077318 39.3687736,63.3870128 44.0448113,70.2545624 C48.7191509,77.1187153 55.3146226,82.3784963 62.9951887,85.0935872 C63.0580189,85.1162318 63.2414151,85.180769 63.509717,85.2458723 C63.8119811,85.3183351 64.2200943,85.3936285 64.6972642,85.3936285 C64.9491509,85.3936285 65.2225472,85.3726822 65.5083962,85.3098434 C65.7223585,85.2628558 65.9436792,85.1926574 66.164434,85.0901905 C66.495566,84.936207 66.824434,84.701269 67.095566,84.3853764 C67.3683962,84.0706161 67.5772642,83.6799963 67.7080189,83.2446533 C67.8240566,82.8596946 67.8823585,82.4820955 67.8823585,82.1214798 C67.8823585,81.8163434 67.8410377,81.525926 67.7651887,81.2570211 C67.634434,80.7860128 67.4006604,80.3914302 67.1431132,80.0851616 C66.7548113,79.6220789 66.3212264,79.3418517 65.984434,79.1618269 C65.6883962,79.0050128 65.4608491,78.9257566 65.3736792,78.8963186 C59.6465094,76.9551079 54.600283,73.3036616 50.7495283,68.4775252 C46.8965094,63.651955 44.2451887,57.6556574 43.3134906,51.038331 L43.3129245,51.0366326 C43.3078302,51.0009674 43.3061321,50.9936079 43.3038679,50.9834178 C43.3010377,50.9664343 43.2987736,50.955112 43.2965094,50.940393 C43.2868868,50.8900087 43.2721698,50.8028269 43.2585849,50.6856409 C43.245566,50.568455 43.2348113,50.4252277 43.2353774,50.2746409 C43.2348113,50.1110335 43.2478302,49.9406326 43.2772642,49.7923103 C43.2987736,49.6802194 43.3299057,49.5817153 43.364434,49.5035913 C43.3904717,49.4458475 43.4176415,49.399426 43.4459434,49.3614963 C43.4883962,49.3060169 43.5285849,49.2686533 43.5942453,49.2307236 C43.6604717,49.1933599 43.7595283,49.1520335 43.934434,49.1293888 L43.935,49.1293888 C44.0063208,49.1208971 44.069717,49.1169343 44.1234906,49.1169343 C44.2463208,49.1169343 44.3238679,49.1333517 44.3810377,49.1537318 C44.430283,49.1707153 44.4659434,49.1905293 44.5027358,49.2171368 C44.565,49.2641244 44.6334906,49.3388517 44.6985849,49.4549054 C44.7982075,49.6264384 44.8746226,49.8806244 44.9119811,50.0895211 C44.9312264,50.1936864 44.9419811,50.2853971 44.9487736,50.3527649 C44.9516038,50.3861657 44.9533019,50.4127731 44.955566,50.4354178 C44.9561321,50.446174 44.9566981,50.4569302 44.9578302,50.4688186 L44.9595283,50.495426 C44.9606604,50.5090128 44.9617925,50.5209012 44.9668868,50.5627938 L44.9668868,50.5633599 C45.8833019,57.2548475 48.675566,63.2907731 52.7572642,68.0240665 C56.8310377,72.747736 62.1965094,76.1783971 68.2610377,77.6463351 C68.2746226,77.6519963 68.2966981,77.6621864 68.3233019,77.6757731 C68.4008491,77.7137029 68.519717,77.7839012 68.6487736,77.8897649 C68.8417925,78.0505417 69.059717,78.286612 69.2391509,78.6506244 C69.4180189,79.015769 69.5646226,79.5167814 69.5731132,80.2414095 C69.5912264,81.7501079 69.6059434,83.0108475 69.6059434,84.1057153 C69.6059434,84.8807277 69.5985849,85.5725211 69.5787736,86.2122318 C69.5606604,86.7840087 69.4565094,87.1757607 69.3325472,87.4452318 C69.2380189,87.6473351 69.1333019,87.7854674 69.0195283,87.896426 C68.9334906,87.9785128 68.8406604,88.0464467 68.7359434,88.1041905 C68.580283,88.1913723 68.3968868,88.2547773 68.1987736,88.2949715 C68.0012264,88.3351657 67.7895283,88.3527153 67.590283,88.3527153 L67.5880189,88.3527153 L67.5857547,88.3527153 C67.335,88.3527153 67.1051887,88.3261079 66.9461321,88.3006326 C66.8657547,88.287612 66.8040566,88.2745913 66.765566,88.2666657 C66.7463208,88.2621368 66.7338679,88.2593062 66.7265094,88.2576079 L66.7219811,88.2559095 L66.6834906,88.2474178 C57.6393396,86.19355 49.7023585,80.8177153 44.0176415,73.3229095 C38.3351887,65.8281037 34.9151887,56.2250831 34.9151887,45.7428847 C34.9151887,33.72255 39.4123585,22.8570913 46.6621698,15.0033682 C50.2859434,11.0773558 54.5957547,7.90710785 59.3748113,5.71793843 C64.1533019,3.52707066 69.3993396,2.31897975 74.9114151,2.31897975 C80.4234906,2.31897975 85.6700943,3.52707066 90.4480189,5.71793843 C97.6151887,9.00027727 103.73066,14.4961285 108.054623,21.4293475 C112.378019,28.3625665 114.907642,36.726926 114.907642,45.7428847 C114.907642,55.6516079 111.852736,64.7739963 106.718208,72.0734921 C101.581981,79.3735541 94.3740566,84.8399674 86.0685849,87.4548558 L86.0674528,87.4548558 C85.9525472,87.4910872 85.6548113,87.5850624 85.2953774,87.6926244 C84.9382075,87.8001864 84.5204717,87.9196368 84.1825472,88.0045541 C83.3334906,88.2196781 82.6236792,88.3283723 82.0983962,88.3283723 L82.0887736,88.3283723 L82.0842453,88.3283723 C81.7242453,88.3283723 81.4587736,88.2785541 81.2793396,88.209488 C81.1429245,88.1568393 81.0512264,88.0985293 80.9668868,88.0204054 C80.9034906,87.9615293 80.8451887,87.8907649 80.7851887,87.7877318 C80.6951887,87.6360128 80.6063208,87.411831 80.5412264,87.0953723 C80.4766981,86.7783475 80.4382075,86.3718764 80.4382075,85.8782236 L80.4382075,85.845955 C80.4416038,84.8377029 80.4433019,83.2463517 80.4433019,81.4455376 C80.4433019,77.8456079 80.4382075,73.4129219 80.4382075,71.162612 C80.4399057,70.4855376 80.5791509,70.0111326 80.7648113,69.6465541 C80.9051887,69.3731202 81.0766981,69.1574302 81.2629245,68.9808021 C81.5408491,68.7152938 81.854434,68.5380996 82.0921698,68.4367649 C82.2104717,68.3846822 82.3083962,68.3507153 82.3700943,68.3320335 C82.4012264,68.3235417 82.4238679,68.3167483 82.4329245,68.3144839 L82.4380189,68.3133517 L82.4391509,68.3133517 C82.5008491,68.2997649 82.560283,68.2816492 82.6208491,68.2578723 C86.1251887,66.8601326 89.2038679,64.5430211 91.6146226,61.5878971 C94.0253774,58.6305087 95.7676415,55.035674 96.6019811,51.0700335 C96.6116038,51.0156864 96.6812264,50.6833764 96.6817925,50.1993475 C96.6812264,49.9564839 96.6636792,49.6728599 96.6031132,49.364893 C96.5583962,49.1333517 96.4876415,48.8876574 96.3783962,48.6380004 C96.2951887,48.4506161 96.1904717,48.2598351 96.0563208,48.0764136 C95.8565094,47.8012814 95.5865094,47.5420004 95.2582075,47.3427277 C94.9299057,47.1423227 94.5472642,47.0030583 94.1334906,46.9317277 L94.1340566,46.9317277 C93.9472642,46.9000252 93.7616038,46.884174 93.5787736,46.884174 L93.5753774,46.884174 C93.2566981,46.884174 92.9487736,46.9351244 92.670283,47.026269 C92.4246226,47.1066574 92.2010377,47.2181822 92.0040566,47.3455583 C91.6587736,47.5680417 91.394434,47.838645 91.1866981,48.1047194 C90.8770755,48.5049632 90.690283,48.8989798 90.5685849,49.2024178 C90.4485849,49.5064219 90.3970755,49.7204136 90.3863208,49.7623062 L90.3834906,49.7787236 C89.3000943,54.7288393 86.2633019,58.8411037 82.2506604,61.117455 C82.2121698,61.1400996 82.1810377,61.1587814 82.1453774,61.1842566 C82.1261321,61.1984095 82.0253774,61.2606822 81.8963208,61.3155955 C81.8238679,61.3461657 81.7423585,61.3739054 81.6636792,61.3920211 C81.5833019,61.411269 81.5051887,61.4203269 81.435566,61.4203269 L81.434434,61.4203269 C81.3693396,61.4203269 81.3121698,61.4129674 81.2561321,61.3971161 C81.1706604,61.372207 81.0846226,61.3342773 80.9623585,61.2261492 C80.8423585,61.1197194 80.6878302,60.9340335 80.5270755,60.6124798 C80.4948113,60.5456781 80.4931132,60.5213351 80.4914151,60.486236 C80.4914151,60.4601946 80.4959434,60.4267938 80.5112264,60.3792401 C80.534434,60.2971533 80.5983962,60.1714756 80.6968868,60.0384384 C80.8440566,59.8385996 81.0659434,59.6297029 81.2459434,59.488174 C81.3353774,59.4162773 81.4129245,59.3596657 81.465566,59.3240004 C81.4887736,59.3081492 81.5080189,59.2956946 81.5199057,59.2889012 C83.789717,58.0021202 85.6848113,56.0835541 87.0166981,53.7590831 C88.3519811,51.4232897 89.1217925,48.6747979 89.1200943,45.7428847 C89.1217925,42.485455 88.1725472,39.4550376 86.549717,36.9669591 C84.9274528,34.4783145 82.6270755,32.5246492 79.9174528,31.4258186 L79.8376415,31.3975128 L79.8376415,31.3969467 C79.8331132,31.3958145 79.7085849,31.3550541 79.5336792,31.2752318 C79.4017925,31.217488 79.2433019,31.1382318 79.0865094,31.0442566 C78.9693396,30.9740583 78.8538679,30.8936698 78.7536792,30.8121492 C78.6008491,30.6893021 78.4865094,30.5596616 78.4242453,30.4571946 C78.3925472,30.4045459 78.3733019,30.3603888 78.3625472,30.3207607 C78.3500943,30.2800004 78.3438679,30.243769 78.3438679,30.1984798 C78.3438679,30.1611161 78.3478302,30.1175252 78.3625472,30.0586492 C78.4185849,29.8339012 78.4882075,29.6940707 78.5521698,29.6017938 C78.6008491,29.5315955 78.6472642,29.4857401 78.6953774,29.4466781 C78.7683962,29.3900665 78.855566,29.3476079 78.9710377,29.3147731 C79.0848113,29.2836368 79.2257547,29.2672194 79.3729245,29.2672194 L79.3763208,29.2672194 L79.3808491,29.2672194 C79.5942453,29.2672194 79.8189623,29.3023186 79.9774528,29.3391161 C80.0583962,29.3577979 80.1212264,29.3764798 80.1614151,29.3883682 C80.1795283,29.3940293 80.1925472,29.3985583 80.1987736,29.4008227 C82.6157547,30.3286864 84.7740566,31.8798434 86.505566,33.8855913 C88.2387736,35.894736 89.5400943,38.3590376 90.2385849,41.0990376 C90.2516038,41.149988 90.300283,41.3390707 90.3925472,41.6068434 C90.4666981,41.8259302 90.5714151,42.0965335 90.7140566,42.3909136 C90.8210377,42.6122649 90.9483962,42.8472029 91.1046226,43.0815748 C91.3412264,43.4325665 91.6423585,43.79205 92.0589623,44.0886946 C92.265566,44.2370169 92.504434,44.3666574 92.7721698,44.4589343 C93.0376415,44.5512112 93.3314151,44.6038599 93.6336792,44.6038599 L93.6370755,44.6038599 C93.7774528,44.6038599 93.9195283,44.5925376 94.0621698,44.5704591 C94.5325472,44.4991285 94.9712264,44.3315583 95.3329245,44.0790707 C95.6046226,43.8905541 95.8299057,43.6595789 96.0036792,43.4138847 C96.2657547,43.0413806 96.4151887,42.6456657 96.5029245,42.2720293 C96.5900943,41.8972607 96.6166981,41.5372112 96.6166981,41.2065996 C96.6166981,40.724269 96.5583962,40.3008145 96.5000943,39.9866202 C96.4519811,39.7239426 96.4033019,39.5388227 96.3840566,39.4686244 C95.1099057,34.3860376 92.3295283,29.9675045 88.5716038,26.8085789 C86.6923585,25.2279839 84.5674528,23.9627153 82.2648113,23.0937277 C79.964434,22.224174 77.4880189,21.7509012 74.9119811,21.7509012 L74.9114151,21.7509012 C72.3274528,21.7503351 69.8408491,22.2270045 67.5325472,23.1027855 C64.0689623,24.4167401 61.0072642,26.6240252 58.5778302,29.4585665 C56.1512264,32.2908434 54.3523585,35.7498103 53.4116038,39.5829798 C53.3946226,39.6435541 53.3572642,39.7941409 53.3199057,40.0092649 C53.2746226,40.2657153 53.2299057,40.6133103 53.2293396,41.0163847 C53.2299057,41.311331 53.2536792,41.6357153 53.3289623,41.9799136 C53.3861321,42.2369302 53.4727358,42.5058351 53.6063208,42.7724756 C53.7065094,42.9728806 53.834434,43.1721533 53.9929245,43.3578393 C54.2312264,43.6375004 54.5431132,43.8854591 54.9059434,44.0603888 C55.2704717,44.2370169 55.680283,44.3440128 56.1206604,44.3819426 L56.1223585,44.3819426 C56.2033019,44.3893021 56.2859434,44.3926988 56.3680189,44.3926988 L56.3714151,44.3926988 C56.6946226,44.3926988 57.0076415,44.3332566 57.2866981,44.2296574 C57.5323585,44.1379467 57.7519811,44.0162318 57.9427358,43.8786657 C58.2772642,43.6369343 58.5285849,43.3544426 58.7278302,43.0798764 C59.024434,42.6643475 59.2089623,42.2578764 59.3306604,41.9442483 C59.4517925,41.6317525 59.5066981,41.4115335 59.5157547,41.3758682 L59.5174528,41.3679426 C60.194434,38.5350996 61.5138679,35.9870128 63.2895283,33.918426 C65.0640566,31.8504054 67.2908491,30.2641492 69.7870755,29.3391161 C69.795,29.3357194 69.9099057,29.2960913 70.0740566,29.2609921 C70.2421698,29.2236285 70.4646226,29.1907938 70.6757547,29.1907938 L70.680283,29.1907938 L70.6831132,29.1907938 C70.8195283,29.1907938 70.9485849,29.2043806 71.0578302,29.2298558 C71.1410377,29.2496698 71.2117925,29.2745789 71.2706604,29.3051492 C71.3606604,29.3515707 71.4263208,29.4013888 71.4965094,29.4914012 C71.565,29.5802814 71.6431132,29.7189798 71.7036792,29.9652401 C71.7314151,30.0767649 71.7404717,30.1633806 71.7404717,30.2324467 C71.7399057,30.3156657 71.7280189,30.3739756 71.7110377,30.4254921 C71.6951887,30.4719136 71.6748113,30.5138062 71.6465094,30.5579632 C71.595,30.634955 71.5134906,30.7221368 71.4042453,30.8030913 C71.2423585,30.9270707 71.0233019,31.0329343 70.8534906,31.095207 C70.7691509,31.1263434 70.6972642,31.1484219 70.6525472,31.1614426 C70.6293396,31.168236 70.6129245,31.1721988 70.605566,31.1738971 L70.6010377,31.1750293 C70.5563208,31.1846533 70.5065094,31.1982401 70.4640566,31.2152236 C67.6061321,32.2280045 65.1653774,34.1794054 63.4406604,36.7150376 C61.7153774,39.2501037 60.7021698,42.3744963 60.7021698,45.7428847 C60.7021698,48.9018103 61.5925472,51.8461781 63.1253774,54.2906657 C64.6440566,56.7136409 66.795566,58.6508888 69.3427358,59.8199178 C69.3919811,59.8550169 69.4983962,59.9388021 69.5776415,60.0424012 C69.6280189,60.1069384 69.6704717,60.1765707 69.6987736,60.2490335 C69.7270755,60.3226285 69.7440566,60.3979219 69.7440566,60.5015211 C69.7440566,60.5813434 69.7338679,60.6792814 69.6959434,60.8066574 C69.6104717,61.1021698 69.5153774,61.3093682 69.4310377,61.4491988 C69.3687736,61.5539302 69.3121698,61.6212979 69.2680189,61.6648888 C69.2012264,61.7311244 69.1616038,61.748674 69.1270755,61.763393 C69.0931132,61.7764136 69.0574528,61.7826409 69.0104717,61.7826409 L69.0059434,61.7826409 C68.9459434,61.7826409 68.8706604,61.7662236 68.819717,61.7498062 C68.7936792,61.7418806 68.775566,61.7333888 68.7693396,61.7311244 L68.7670755,61.729426 L68.7670755,61.7299921 L68.7257547,61.7101781 C66.4310377,60.6538062 64.4023585,59.0211285 62.7987736,56.9712236 C61.1968868,54.9224508 60.0206604,52.4581492 59.4319811,49.7447566 C59.4206604,49.6904095 59.3861321,49.5381244 59.3142453,49.325831 C59.2553774,49.1514674 59.1704717,48.9363434 59.0476415,48.7008393 C58.8619811,48.3492814 58.589717,47.9428103 58.1538679,47.5940831 C57.9359434,47.42255 57.675566,47.2668682 57.3783962,47.1587401 C57.0823585,47.0500459 56.7517925,46.9894715 56.4082075,46.9894715 L56.4036792,46.9894715 C56.3312264,46.9894715 56.2576415,46.9923021 56.1851887,46.9979632 C55.6457547,47.0347607 55.1578302,47.1576079 54.734434,47.3721657 C54.4168868,47.5318103 54.1412264,47.7429715 53.9210377,47.9830045 C53.7557547,48.1624632 53.6221698,48.3566409 53.5168868,48.5525169 C53.3589623,48.846331 53.265,49.1435417 53.2089623,49.4198062 C53.1529245,49.697769 53.1342453,49.9576161 53.1342453,50.191988 C53.1342453,50.524864 53.1716038,50.8067897 53.2089623,51.0145541 C53.2361321,51.1679715 53.2638679,51.2806285 53.280283,51.3429012 C54.2176415,55.5712194 56.1919811,59.3692897 58.905566,62.404236 C61.6236792,65.4420128 65.0866981,67.7177979 68.9895283,68.877769 C69.0008491,68.8817318 69.0348113,68.8930541 69.0772642,68.9060748 C69.2476415,68.960988 69.5770755,69.0606244 70.0010377,69.146674 C70.4266981,69.2321574 70.949717,69.3063186 71.5293396,69.3063186 C72.014434,69.3063186 72.5414151,69.2548021 73.0780189,69.0957236 C73.4804717,68.975707 73.8885849,68.7951161 74.2712264,68.5296079 C74.5582075,68.3303351 74.8299057,68.085207 75.0670755,67.7930913 C75.4265094,67.35605 75.7072642,66.8188062 75.8923585,66.1977773 C76.079717,65.5767483 76.1736792,64.8719343 76.1736792,64.0714467 C76.1736792,64.0425748 76.1736792,64.0131368 76.1725472,63.9831326 C76.1753774,63.8506616 76.1946226,63.0218682 76.2121698,62.0283351 C76.2314151,60.9419591 76.2506604,59.664236 76.2506604,58.8648806 C76.2517925,58.4114219 76.200283,57.9845707 76.1023585,57.5860252 C75.9308491,56.8880045 75.6042453,56.2862236 75.2085849,55.8004963 C74.9108491,55.4364839 74.5751887,55.1324798 74.234434,54.8715004 C73.7210377,54.4791822 73.1906604,54.1757442 72.6987736,53.8994798 C72.2080189,53.6249136 71.7540566,53.3752566 71.3934906,53.1272979 C70.5376415,52.5379715 69.870283,51.9124136 69.345566,51.2744012 C68.5582075,50.3165335 68.085566,49.3269632 67.8008491,48.3634343 C67.5166981,47.3999054 67.4261321,46.4629839 67.4261321,45.6432483 C67.4261321,45.1982814 67.4527358,44.7872814 67.4889623,44.4266657 C67.5240566,44.0654839 67.5687736,43.7558186 67.6061321,43.4993682 C67.6259434,43.3589715 67.6678302,43.1478103 67.7380189,42.8970211 C67.859717,42.4599798 68.0663208,41.9006574 68.3866981,41.3215211 C68.625566,40.8867442 68.9278302,40.4412112 69.3042453,40.0177566 C69.869717,39.3831409 70.5965094,38.7994756 71.5587736,38.3663971 C72.5216038,37.9338847 73.7261321,37.6451657 75.2714151,37.6445996 L75.2731132,37.6445996 C75.4593396,37.6445996 75.6512264,37.6485624 75.8465094,37.6576202 C76.8291509,37.7029095 77.6878302,37.9820045 78.4604717,38.4416905 C79.0378302,38.7870211 79.5636792,39.2393475 80.0289623,39.7765913 C80.7280189,40.5816079 81.2889623,41.5825004 81.6687736,42.6722731 C82.049717,43.7620459 82.2506604,44.9395665 82.2506604,46.0836864 C82.2512264,47.3263103 82.0146226,48.5242112 81.5476415,49.5437855 C81.3127358,50.0538558 81.0217925,50.519769 80.6736792,50.9324674 C80.325,51.3445996 79.9191509,51.7046492 79.4453774,52.0041244 C78.9059434,52.3471905 78.7451887,53.0633269 79.0882075,53.6045335 C79.3083962,53.9521285 79.6848113,54.1429095 80.0674528,54.1429095 C80.280283,54.1429095 80.4948113,54.0845996 80.6872642,53.9623186 C81.3642453,53.533769 81.9506604,53.0135087 82.4448113,52.4275789 C83.1846226,51.5517979 83.7172642,50.5333558 84.0625472,49.4543393 C84.4078302,48.3753227 84.5691509,47.2329012 84.5691509,46.0836864 C84.5691509,44.8280417 84.375566,43.562207 84.0053774,42.3569467 C83.4478302,40.5499054 82.4923585,38.8685417 81.1372642,37.5851574 C80.4608491,36.9426161 79.6814151,36.4042401 78.810283,36.0147525 C77.940283,35.6252649 76.9768868,35.3874963 75.9512264,35.342207 C75.719717,35.3314508 75.4921698,35.3257897 75.2714151,35.3257897 L75.2629245,35.3257897 C73.4029245,35.3257897 71.835,35.6881037 70.5461321,36.2796946 C69.5787736,36.7235293 68.7716038,37.2947401 68.1127358,37.9191657 C67.1227358,38.8555211 66.465,39.9034012 66.0336792,40.8403227 C65.8180189,41.3101988 65.6578302,41.7523351 65.5417925,42.1452194 C65.4257547,42.5398021 65.3527358,42.8823021 65.3114151,43.1670583 C65.2740566,43.4257731 65.2231132,43.7790293 65.1817925,44.197955 C65.1399057,44.6180128 65.1082075,45.1060045 65.1082075,45.6432483 C65.1082075,46.9605996 65.3000943,48.5876161 66.0274528,50.2587897 C66.390283,51.0943764 66.8889623,51.9373227 67.5551887,52.7474343 C68.2208491,53.5569798 69.0534906,54.3319921 70.080283,55.0379384 C70.5885849,55.3860996 71.1076415,55.6640624 71.5876415,55.9346657 C71.9482075,56.1362029 72.285,56.3332112 72.5793396,56.5341822 C72.7995283,56.6853351 72.9948113,56.8398847 73.1600943,56.997831 C73.409717,57.2361657 73.5908491,57.477331 73.7204717,57.7620872 C73.8478302,58.0485417 73.9321698,58.3887773 73.9333019,58.8648806 C73.9333019,59.6297029 73.9129245,60.907426 73.8936792,61.9858764 C73.8840566,62.5253847 73.874434,63.0173393 73.8665094,63.3728599 C73.8631132,63.5517525 73.860283,63.6955459 73.8580189,63.7957483 C73.8557547,63.8953847 73.8546226,63.9502979 73.8546226,63.9502979 L73.8546226,63.9870955 L73.8546226,64.0714467 C73.8546226,64.8056988 73.7510377,65.3418103 73.6078302,65.7228062 C73.5014151,66.0086946 73.3740566,66.2096657 73.2399057,66.3653475 C73.1380189,66.4808351 73.0304717,66.573112 72.9116038,66.6495376 C72.7333019,66.7661574 72.5266981,66.8505087 72.2912264,66.9071202 C72.0563208,66.9625996 71.7953774,66.9875087 71.5310377,66.9875087 L71.5293396,66.9875087 L71.5231132,66.9875087 C71.0827358,66.9875087 70.6366981,66.9161781 70.2999057,66.8380541 C70.1300943,66.7989921 69.9880189,66.7604963 69.8838679,66.7287938 C69.8317925,66.7135087 69.7899057,66.6999219 69.7570755,66.6902979 C69.7400943,66.6835045 69.7259434,66.6795417 69.7123585,66.6755789 C69.6970755,66.67105 69.6874528,66.6670872 69.6568868,66.6580293 C66.1876415,65.6276988 63.0851887,63.5993062 60.6331132,60.858174 C58.1821698,58.118174 56.3872642,54.6682649 55.5382075,50.8152814 L55.5206604,50.7467814 L55.5206604,50.7456492 L55.5189623,50.7382897 C55.5059434,50.690736 55.4516038,50.4444756 55.4533019,50.191988 C55.4527358,50.0617814 55.4668868,49.9321409 55.4923585,49.8274095 C55.5127358,49.7487194 55.5382075,49.6858806 55.5659434,49.6371946 C55.5868868,49.599831 55.6095283,49.5709591 55.6361321,49.5437855 C55.6768868,49.5030252 55.7278302,49.4616988 55.8336792,49.4164095 C55.9389623,49.3728186 56.1014151,49.3269632 56.3465094,49.311112 C56.3663208,49.3082814 56.385,49.3082814 56.4019811,49.3082814 L56.4036792,49.3082814 C56.4783962,49.3082814 56.5270755,49.3179054 56.5678302,49.3320583 C56.6040566,49.3428145 56.6357547,49.3586657 56.670283,49.3801781 C56.7280189,49.4175417 56.7953774,49.4792483 56.8616038,49.5664302 C56.9612264,49.6955045 57.0495283,49.8772277 57.1004717,50.0187566 C57.1265094,50.0895211 57.1440566,50.1500955 57.1542453,50.1851946 C57.1593396,50.2044426 57.1627358,50.2168971 57.1638679,50.2219921 L57.164434,50.2242566 L57.1661321,50.2321822 C57.8283962,53.2880748 59.1529245,56.0727979 60.9727358,58.3989674 C62.7874528,60.7206079 65.0968868,62.5876574 67.7363208,63.8070707 C67.8053774,63.8416037 67.9293396,63.8982153 68.1036792,63.955393 C68.3261321,64.0272897 68.6329245,64.1008847 69.0104717,64.1008847 L69.0116038,64.1008847 C69.2629245,64.1008847 69.5459434,64.0669178 69.8385849,63.9695459 C70.0587736,63.8982153 70.2823585,63.7912194 70.4951887,63.6462938 C70.815566,63.4294715 71.1048113,63.1305624 71.3425472,62.7642855 C71.5814151,62.3974426 71.7727358,61.9654963 71.9210377,61.4588227 C72.0172642,61.1316079 72.0636792,60.809488 72.0625472,60.5015211 C72.0642453,60.0424012 71.9583962,59.6223434 71.804434,59.2775789 C71.6889623,59.0171657 71.5474528,58.7963806 71.4036792,58.6129591 C71.1863208,58.3372607 70.965,58.1413847 70.7900943,58.0072153 C70.6146226,57.873612 70.485566,57.7994508 70.4436792,57.7779384 L70.3666981,57.7388764 C68.2299057,56.7736492 66.3925472,55.1375748 65.0900943,53.0599302 C63.7870755,50.9800211 63.0200943,48.4642029 63.0200943,45.7428847 C63.0200943,42.8415417 63.8923585,40.1728723 65.3566981,38.0193682 C66.8108491,35.8828475 68.8434906,34.2620583 71.1817925,33.419112 C71.2627358,33.3992979 71.3900943,33.3641988 71.550283,33.3087194 C71.7382075,33.2436161 71.969717,33.1513393 72.2221698,33.0194343 C72.4112264,32.9186657 72.6133019,32.7980831 72.8148113,32.6435335 C73.1165094,32.4131244 73.424434,32.1091202 73.664434,31.7003847 C73.7838679,31.4977153 73.8834906,31.2690045 73.9525472,31.021612 C74.0216038,30.7730872 74.0583962,30.5070128 74.0578302,30.2324467 C74.0583962,29.9641079 74.0238679,29.6889756 73.9559434,29.4115789 C73.8433019,28.9558558 73.664434,28.545988 73.4227358,28.198393 C73.2421698,27.939112 73.0270755,27.7154963 72.795,27.5371698 C72.4463208,27.2671326 72.0653774,27.0995624 71.7031132,27.0016244 C71.3408491,26.9048186 70.994434,26.87255 70.680283,26.8719839 C70.2240566,26.8736822 69.8312264,26.9399178 69.5374528,27.0050211 C69.390283,27.038988 69.2674528,27.072955 69.1757547,27.1006946 C69.1293396,27.1142814 69.0908491,27.1261698 69.059717,27.136926 C69.0285849,27.1471161 69.0087736,27.1550417 68.9883962,27.1618351 C66.1004717,28.2312277 63.5482075,30.0569508 61.530283,32.4080293 C59.5146226,34.7574095 58.0287736,37.6332773 57.2651887,40.8199426 C57.2629245,40.8290004 57.2561321,40.8533434 57.2442453,40.8901409 C57.2193396,40.9727938 57.1706604,41.1143227 57.1016038,41.2694384 C57.0489623,41.3860583 56.985,41.5094715 56.9142453,41.6221285 C56.8095283,41.7919632 56.6872642,41.9261326 56.595,41.9918021 C56.5480189,42.0263351 56.5100943,42.0450169 56.4778302,42.0569054 C56.4438679,42.0687938 56.415,42.0738888 56.3680189,42.0738888 C56.355566,42.0738888 56.3414151,42.0738888 56.325,42.0721905 L56.3261321,42.0721905 C56.085,42.0506781 55.9559434,41.9974632 55.8772642,41.9527401 C55.8183962,41.9170748 55.7827358,41.8848062 55.7465094,41.8400831 C55.695,41.7772442 55.6423585,41.6770417 55.605,41.5304178 C55.5670755,41.3854921 55.5478302,41.2015045 55.5478302,41.0163847 C55.5478302,40.7922029 55.575566,40.5668888 55.6038679,40.4078103 C55.6168868,40.3285541 55.6310377,40.2657153 55.6395283,40.2260872 C55.6446226,40.2062731 55.6485849,40.1921202 55.650283,40.1853269 L55.6599057,40.1485293 C56.7982075,35.4990211 59.3233019,31.4711079 62.7053774,28.6139219 C64.3961321,27.1861781 66.3008491,26.0499839 68.354434,25.2710087 C70.4085849,24.4925996 72.6127358,24.0697112 74.9114151,24.0697112 C77.2016038,24.0697112 79.3989623,24.4892029 81.4451887,25.2619508 C84.5170755,26.4230541 87.2561321,28.3818145 89.445,30.9214095 C91.634434,33.4604384 93.2719811,36.579736 94.1380189,40.0460624 L94.1482075,40.0862566 L94.1482075,40.087955 C94.1533019,40.1049384 94.1917925,40.244769 94.2268868,40.4491368 C94.2653774,40.6580335 94.2999057,40.9376946 94.2982075,41.2065996 C94.2987736,41.3815293 94.2851887,41.551364 94.2563208,41.692893 C94.2353774,41.8010211 94.2059434,41.8915996 94.1753774,41.9600996 C94.1510377,42.0127483 94.1272642,42.0523764 94.1040566,42.0840789 C94.0678302,42.1305004 94.0361321,42.1599384 93.9840566,42.1910748 C93.9319811,42.2210789 93.8521698,42.2561781 93.7078302,42.2788227 C93.6806604,42.2833517 93.6568868,42.2839178 93.6370755,42.2839178 C93.585566,42.2839178 93.5533019,42.2771244 93.5080189,42.2590087 C93.4683962,42.2431574 93.420283,42.2154178 93.3631132,42.1701285 C93.2617925,42.0920045 93.1389623,41.9533062 93.0257547,41.7823393 C92.8542453,41.5247566 92.7082075,41.1975417 92.6165094,40.9456202 C92.5706604,40.8199426 92.5378302,40.7123806 92.5168868,40.6404839 C92.5061321,40.6053847 92.4987736,40.5787773 92.4942453,40.5617938 L92.4908491,40.5470748 L92.490283,40.5453764 L92.4874528,40.533488 C91.7000943,37.4453269 90.2317925,34.657207 88.2614151,32.3712318 C86.2899057,30.0863888 83.8140566,28.3008599 81.0127358,27.2292029 L80.9991509,27.2241079 C80.9634906,27.2110872 80.7806604,27.1454178 80.4976415,27.0797483 C80.2134906,27.0152112 79.8280189,26.9489756 79.3763208,26.9478434 C79.0989623,26.9478434 78.7961321,26.9733186 78.4780189,27.048612 C78.239717,27.1046574 77.9917925,27.1890087 77.7478302,27.3141202 C77.3810377,27.4998062 77.0221698,27.782864 76.7368868,28.1576326 C76.4499057,28.531269 76.2382075,28.9881244 76.1108491,29.5038558 C76.0536792,29.7359632 76.0253774,29.9703351 76.0265094,30.1984798 C76.0248113,30.5370169 76.0882075,30.8619674 76.1963208,31.1501202 C76.289717,31.403174 76.4142453,31.6296202 76.5529245,31.8294591 C76.7974528,32.1793186 77.084434,32.4510541 77.3663208,32.6718393 C77.7925472,33.0024508 78.2153774,33.223236 78.5414151,33.3726905 C78.7938679,33.4870459 78.989717,33.5572442 79.079717,33.5883806 C81.3082075,34.4992607 83.235566,36.1285417 84.6076415,38.2327938 C85.9865094,40.3478021 86.8016038,42.9360831 86.8021698,45.7428847 C86.8016038,48.2694591 86.1421698,50.6188393 85.004434,52.6059054 C83.8672642,54.5935376 82.2540566,56.2143269 80.3538679,57.2837194 L80.3170755,57.3057979 C80.294434,57.3199508 80.1670755,57.3986409 79.9836792,57.5333764 C79.710283,57.7388764 79.3066981,58.0660913 78.9308491,58.5337029 C78.7434906,58.769207 78.5612264,59.0403764 78.4185849,59.3647607 C78.2765094,59.6868806 78.1740566,60.0673103 78.1740566,60.486236 C78.1723585,60.8694963 78.2651887,61.2787979 78.4548113,61.6535665 C78.6336792,62.007955 78.8346226,62.3181864 79.0604717,62.5859591 C79.3972642,62.986769 79.7946226,63.2896409 80.2117925,63.4775913 C80.6266981,63.666674 81.0512264,63.7391368 81.4293396,63.7391368 L81.434434,63.7391368 C81.7412264,63.7391368 82.019717,63.6949798 82.2631132,63.6321409 C82.6299057,63.5375996 82.9214151,63.4045624 83.1325472,63.2924715 C83.2706604,63.2177442 83.3753774,63.1526409 83.4399057,63.10905 C88.0270755,60.4845376 91.4227358,55.8367277 92.6431132,50.2927566 C92.6510377,50.2678475 92.6759434,50.1784012 92.7217925,50.0617814 C92.7619811,49.9615789 92.8174528,49.8409963 92.8836792,49.727207 C92.9821698,49.5539756 93.1083962,49.403955 93.2199057,49.3218682 C93.2753774,49.2799756 93.3263208,49.2533682 93.3806604,49.2346864 C93.435,49.2154384 93.4921698,49.2029839 93.5787736,49.2024178 C93.6240566,49.2024178 93.6772642,49.2069467 93.7406604,49.2171368 L93.7412264,49.2171368 C93.930283,49.2505376 94.0219811,49.3009219 94.0831132,49.3439467 C94.1283962,49.3773475 94.1606604,49.4096161 94.1934906,49.4566037 C94.2416038,49.526236 94.2885849,49.6326657 94.3180189,49.7674012 C94.349717,49.9010045 94.3627358,50.0583847 94.3627358,50.1993475 C94.3627358,50.3244591 94.3531132,50.4371161 94.3440566,50.5107112 C94.3400943,50.5469426 94.335566,50.5752483 94.3333019,50.5888351 L94.3304717,50.6001574 C93.5742453,54.2006533 91.9910377,57.4563847 89.8180189,60.1222236 C87.660283,62.7676822 84.9240566,64.8283434 81.8351887,66.074364 C81.719717,66.1049343 81.5357547,66.1598475 81.3048113,66.2515583 C81.0393396,66.3585541 80.714434,66.5136698 80.3685849,66.7423806 C80.1099057,66.9133475 79.8382075,67.1250748 79.5761321,67.3877525 C79.1827358,67.7812029 78.8119811,68.2918393 78.5448113,68.926455 C78.2770755,69.5599384 78.1191509,70.3106079 78.119717,71.162612 C78.119717,73.4146202 78.1248113,77.8473062 78.1248113,81.4455376 C78.1248113,83.2452194 78.1231132,84.8354384 78.119717,85.8385955 L78.119717,85.8782236 C78.119717,86.6051161 78.1842453,87.2510541 78.3348113,87.8386822 C78.4480189,88.2785541 78.6110377,88.6878558 78.8414151,89.0535665 C79.0134906,89.3281326 79.2223585,89.5760913 79.4646226,89.7883847 C79.8263208,90.1042773 80.2559434,90.3273269 80.7019811,90.4597979 C81.1480189,90.5945335 81.6121698,90.6471822 82.0887736,90.6471822 C82.9117925,90.64605 83.7846226,90.4948971 84.7480189,90.2531657 C85.1442453,90.1535293 85.5846226,90.0261533 85.9610377,89.9140624 C86.3368868,89.8008393 86.6476415,89.7029012 86.7648113,89.6661037 C95.5899057,86.8870417 103.205943,81.0945459 108.613868,73.4078269 C114.021792,65.7199756 117.226132,56.1299756 117.226132,45.7428847 C117.225566,33.1405831 112.510472,21.7141037 104.865,13.4312649 C101.041415,9.28899628 96.4819811,5.93193017 91.4136792,3.60915744 C86.3453774,1.2858186 80.7648113,0.000169834711 74.9136792,0.000169834711 Z M47.2638679,50.2502979 L47.2638679,50.2491657 L47.2638679,50.2502979 Z" id="Fill-1"></path>
                            <path d="M146.268679,118.89494 C146.268679,113.177738 146.268679,112.151936 146.341698,110.978945 C146.415283,109.696693 147.091698,109.160581 148.081132,108.976593 C148.520943,108.903564 149.188302,108.849217 149.441321,108.803362 C149.676226,108.760337 149.735094,108.60975 149.735094,108.463693 C149.735094,108.24404 149.551698,108.170445 149.148113,108.170445 C148.048868,108.170445 144.913585,108.280271 144.729623,108.280271 C144.546792,108.280271 141.649811,108.20611 140.441321,108.20611 C140.037736,108.20611 139.855472,108.280271 139.855472,108.499924 C139.855472,108.645982 139.970943,108.760337 140.246038,108.819779 C140.526226,108.879221 141.161887,108.866767 141.564906,108.976593 C142.370943,109.160581 143.022453,109.32985 143.118113,110.978945 C143.186038,112.151936 143.190566,113.177738 143.190566,118.89494 L143.190566,125.344697 C143.190566,128.86254 143.190566,131.758221 143.007736,133.295792 C142.861132,134.358957 142.844151,135.182089 140.999434,135.260779 C140.663208,135.274932 140.157736,135.327015 139.827736,135.346829 C139.53566,135.364379 139.465472,135.571577 139.465472,135.680837 C139.465472,135.901056 139.649434,135.974085 140.052453,135.974085 C141.151698,135.974085 144.546792,135.86256 144.729623,135.86256 C144.913585,135.86256 147.221887,135.971255 149.236981,135.971255 C149.639434,135.971255 149.82283,135.86256 149.82283,135.678573 C149.82283,135.56818 149.749245,135.346829 149.529623,135.346829 C149.200189,135.346829 148.394151,135.273234 147.881321,135.200205 C146.780943,135.053015 146.562453,134.358957 146.452075,133.295792 C146.268679,131.758221 146.268679,128.86254 146.268679,125.344697 L146.268679,118.89494 Z M105.340755,113.434188 C106.514151,114.75437 110.654151,119.37161 114.904528,123.952052 C118.788113,128.12942 124.064717,133.517143 124.46717,133.88342 C126.409811,135.825197 126.517358,135.974085 127.143396,135.953139 C127.398679,135.944081 127.472264,136.04485 127.472264,133.625837 L127.545849,112.151936 C127.545849,109.953709 127.693019,109.146428 128.902075,108.890544 C129.341321,108.780717 129.59717,108.780717 129.78,108.780717 C130.036981,108.780717 130.183019,108.538986 130.183019,108.392362 C130.183019,108.173841 129.92717,108.135912 129.524717,108.135912 C128.021887,108.135912 126.813396,108.245738 126.409811,108.245738 C126.006226,108.245738 124.247547,108.135912 122.598679,108.135912 C122.158868,108.135912 121.866226,108.173841 121.866226,108.392362 C121.866226,108.538986 121.903019,108.780717 122.158868,108.780717 C122.453208,108.780717 123.295472,108.816949 123.954906,108.964139 C125.090943,109.256821 125.346792,110.063536 125.384151,112.445184 L125.786604,131.061333 C124.61434,129.851544 120.620377,125.381494 116.993208,121.496808 C111.350377,115.450126 106.205094,109.828031 105.655472,109.205304 C105.289811,108.838461 104.51717,108.032879 104.058113,108.030614 C103.765472,108.029482 103.65566,108.433688 103.65566,109.863131 L103.618868,130.584664 C103.618868,133.919651 103.435472,134.812982 102.520755,135.069998 C101.971132,135.252854 101.218302,135.26644 100.873585,135.289085 C100.528868,135.312862 100.447925,135.532515 100.447925,135.678573 C100.447925,135.935589 100.667547,135.971255 101.034906,135.971255 C102.683774,135.971255 104.497925,135.86256 104.827925,135.86256 C105.158491,135.86256 106.623962,135.971255 108.711509,135.971255 C109.152453,135.971255 109.372075,135.898792 109.372075,135.678573 C109.372075,135.532515 109.262264,135.289085 109.078302,135.289085 C108.748302,135.289085 107.943396,135.252854 107.246604,135.069998 C106.25717,134.776184 105.891509,133.993246 105.817358,130.987738 L105.340755,113.434188 Z M56.5358491,118.89494 C56.5358491,113.177738 56.5358491,112.151936 56.609434,110.978945 C56.6824528,109.696693 56.9756604,109.072833 58.0386792,108.890544 C58.4779245,108.816949 58.9913208,108.780717 59.2477358,108.780717 C59.3937736,108.780717 59.5403774,108.707688 59.5403774,108.560498 C59.5403774,108.340279 59.3575472,108.152895 58.9545283,108.152895 C57.855283,108.152895 55.1801887,108.263854 54.9973585,108.263854 C54.8145283,108.263854 52.4032075,108.152895 50.7549057,108.152895 C50.3518868,108.152895 50.1684906,108.340279 50.1684906,108.560498 C50.1684906,108.707688 50.3145283,108.780717 50.4611321,108.780717 C50.790566,108.780717 51.4137736,108.816949 51.7069811,108.890544 C52.9160377,109.146428 53.3116981,109.732358 53.385283,110.978945 C53.4577358,112.151936 53.4577358,113.177738 53.4577358,118.89494 L53.4577358,125.344697 C53.4577358,128.86254 53.3881132,131.751428 53.2749057,133.295792 C53.1718868,134.691267 52.44,135.043957 51.7069811,135.191147 C51.3769811,135.264742 50.9366038,135.316825 50.6077358,135.338337 C50.2069811,135.364379 50.2069811,135.547234 50.2069811,135.65706 C50.2069811,135.876713 50.3275472,135.950308 50.8550943,135.971255 C51.4041509,135.993333 52.7626415,135.935589 53.4950943,135.898792 C54.2281132,135.898792 54.8507547,135.86256 54.9973585,135.86256 C56.0598113,135.86256 57.1958491,135.898792 58.7343396,135.971255 C60.2733962,136.008052 62.1786792,136.081081 64.8169811,136.081081 C66.7584906,136.081081 66.869434,135.935589 67.125283,135.092643 C67.4179245,134.028345 67.6749057,131.830684 67.6749057,131.427044 C67.6749057,131.024536 67.6386792,130.878478 67.455283,130.878478 C67.2356604,130.878478 67.1620755,131.061333 67.125283,131.354581 C67.0154717,132.050337 66.6492453,132.966312 66.1726415,133.552808 C65.2930189,134.615974 63.6815094,134.652771 61.739434,134.652771 C58.8809434,134.652771 57.9288679,134.395755 57.3418868,133.809825 C56.6824528,133.1503 56.5358491,130.804317 56.5358491,125.417726 L56.5358491,118.89494 Z M38.5284906,124.483069 C38.5284906,124.483069 38.4135849,122.620548 38.4135849,121.137891 C38.4135849,119.966031 38.5596226,118.263721 38.5596226,118.263721 C38.5596226,117.969907 38.5596226,117.567399 38.3032075,117.567399 C38.1203774,117.567399 38.0467925,117.714023 38.0467925,117.896312 C38.0467925,118.263721 38.0467925,118.629998 37.9001887,119.106102 C37.7535849,119.618436 37.4241509,120.242862 35.9949057,120.389486 C35.3818868,120.45742 33.7562264,120.511201 32.46,120.541771 L31.2645283,120.543469 C31.0816981,120.543469 30.5218868,120.568379 30.5218868,119.634288 L30.5218868,110.498312 C30.5218868,110.241296 30.4222642,109.696693 31.3556604,109.696693 C31.7586792,109.696693 35.1384906,109.732358 35.7616981,109.806519 C37.74,110.026172 38.1062264,110.46661 38.3626415,111.05254 C38.5454717,111.492978 38.5822642,112.115139 38.5822642,112.372155 C38.5822642,112.664837 38.6558491,112.847693 38.8754717,112.847693 C39.0220755,112.847693 39.0956604,112.629172 39.1324528,112.445184 C39.2054717,112.005312 39.2784906,110.392449 39.3158491,110.026172 C39.4250943,109.00037 39.6084906,108.560498 39.6084906,108.304048 C39.6084906,108.120626 39.5716981,107.974569 39.4624528,107.974569 C39.2784906,107.974569 39.1324528,108.120626 38.9484906,108.156858 C38.6558491,108.230453 37.9375472,108.375379 37.2413208,108.41161 C36.3984906,108.448407 29.1871698,108.203845 28.9307547,108.203845 L27.3792453,108.203845 C26.5732075,108.167614 25.5322642,108.135912 24.689434,108.135912 C24.2864151,108.135912 24.2558491,108.340279 24.2558491,108.560498 C24.2558491,108.707688 24.4024528,108.780717 24.5490566,108.780717 C24.8790566,108.780717 25.5016981,108.816949 25.7949057,108.890544 C27.0039623,109.146428 27.2971698,109.732358 27.3701887,110.978945 C27.4437736,112.151936 27.4437736,113.177738 27.4437736,118.89494 L27.4437736,125.344697 C27.4437736,128.86254 27.4437736,131.758221 27.2603774,133.295792 C27.1137736,134.358957 26.9513208,134.904126 25.7360377,135.231341 C25.409434,135.320221 24.8909434,135.351924 24.5586792,135.377965 C24.3390566,135.394949 24.2535849,135.56818 24.2535849,135.678573 C24.2535849,135.898792 24.4369811,135.971255 24.840566,135.971255 C25.3896226,135.971255 26.7837736,135.898792 27.5167925,135.898792 C28.2860377,135.86256 28.9092453,135.86256 28.9822642,135.86256 C29.5324528,135.86256 30.4115094,135.898792 31.8407547,135.971255 C33.27,136.008052 35.2850943,136.081081 38.0332075,136.081081 C39.4624528,136.081081 39.7545283,136.081081 40.0115094,135.12944 C40.1949057,134.358957 40.4881132,131.866916 40.4881132,131.574234 C40.4881132,131.317783 40.4881132,131.024536 40.2679245,131.024536 C40.0850943,131.024536 40.0115094,131.171726 39.9379245,131.574234 C39.6820755,133.076705 39.2422642,133.809825 38.2890566,134.212333 C37.3369811,134.615974 35.7243396,134.615974 34.7716981,134.615974 C31.1813208,134.615974 30.6311321,134.13987 30.5218868,131.611598 C30.4850943,130.841114 30.5218868,126.590151 30.5218868,125.344697 L30.5218868,122.664705 C30.5218868,122.518647 30.4675472,121.844403 31.3556604,121.867048 C31.9788679,121.882899 35.0286792,121.935548 36.0175472,122.046507 C37.4467925,122.192564 37.7416981,122.760379 37.8877358,123.273845 C38.0343396,123.749949 38.0343396,124.116226 38.0343396,124.483069 C38.0343396,124.66649 38.1441509,124.886709 38.3258491,124.868027 C38.6060377,124.839155 38.5284906,124.483069 38.5284906,124.483069 Z M90.0237736,124.483069 C90.0237736,124.483069 89.9083019,122.620548 89.9083019,121.137891 C89.9083019,119.966031 90.0543396,118.263721 90.0543396,118.263721 C90.0543396,117.969907 90.0543396,117.567399 89.7979245,117.567399 C89.6145283,117.567399 89.5409434,117.714023 89.5409434,117.896312 C89.5409434,118.263721 89.5409434,118.629998 89.3943396,119.106102 C89.2483019,119.618436 88.9177358,120.242862 87.4890566,120.389486 C86.8766038,120.45742 85.2503774,120.511201 83.9541509,120.541771 L82.7598113,120.543469 C82.5758491,120.543469 82.0160377,120.568379 82.0160377,119.634288 L82.0160377,110.498312 C82.0160377,110.241296 81.9175472,109.696693 82.8503774,109.696693 C83.2528302,109.696693 86.6326415,109.732358 87.2558491,109.806519 C89.234717,110.026172 89.6009434,110.46661 89.8573585,111.05254 C90.0407547,111.492978 90.0769811,112.115139 90.0769811,112.372155 C90.0769811,112.664837 90.15,112.847693 90.3701887,112.847693 C90.5167925,112.847693 90.5909434,112.629172 90.6266038,112.445184 C90.7001887,112.005312 90.7737736,110.392449 90.81,110.026172 C90.9192453,109.00037 91.1037736,108.560498 91.1037736,108.304048 C91.1037736,108.120626 91.0664151,107.974569 90.9560377,107.974569 C90.7737736,107.974569 90.6266038,108.120626 90.4437736,108.156858 C90.15,108.230453 89.4328302,108.375379 88.7354717,108.41161 C87.8937736,108.448407 80.6824528,108.203845 80.4254717,108.203845 L78.8745283,108.203845 C78.0684906,108.167614 77.0269811,108.135912 76.184717,108.135912 C75.7811321,108.135912 75.750566,108.340279 75.750566,108.560498 C75.750566,108.707688 75.8971698,108.780717 76.0443396,108.780717 C76.3737736,108.780717 76.9958491,108.816949 77.2890566,108.890544 C78.4986792,109.146428 78.7913208,109.732358 78.8649057,110.978945 C78.9379245,112.151936 78.9379245,113.177738 78.9379245,118.89494 L78.9379245,125.344697 C78.9379245,128.86254 78.9379245,131.758221 78.7556604,133.295792 C78.6079245,134.358957 78.4466038,134.904126 77.2307547,135.231341 C76.9041509,135.320221 76.3850943,135.351924 76.0533962,135.377965 C75.8337736,135.394949 75.7483019,135.56818 75.7483019,135.678573 C75.7483019,135.898792 75.9311321,135.971255 76.334717,135.971255 C76.8849057,135.971255 78.2784906,135.898792 79.0115094,135.898792 C79.7807547,135.86256 80.4045283,135.86256 80.4769811,135.86256 C81.0266038,135.86256 81.9062264,135.898792 83.3349057,135.971255 C84.764717,136.008052 86.7786792,136.081081 89.5273585,136.081081 C90.9560377,136.081081 91.2498113,136.081081 91.5062264,135.12944 C91.6884906,134.358957 91.9833962,131.866916 91.9833962,131.574234 C91.9833962,131.317783 91.9833962,131.024536 91.7632075,131.024536 C91.5798113,131.024536 91.5062264,131.171726 91.4332075,131.574234 C91.1762264,133.076705 90.7369811,133.809825 89.7843396,134.212333 C88.8311321,134.615974 87.2184906,134.615974 86.2664151,134.615974 C82.6754717,134.615974 82.1264151,134.13987 82.0160377,131.611598 C81.9798113,130.841114 82.0160377,126.590151 82.0160377,125.344697 L82.0160377,122.664705 C82.0160377,122.518647 81.9622642,121.844403 82.8503774,121.867048 C83.4730189,121.882899 86.5233962,121.935548 87.5116981,122.046507 C88.9420755,122.192564 89.2364151,122.760379 89.3824528,123.273845 C89.5290566,123.749949 89.5290566,124.116226 89.5290566,124.483069 C89.5290566,124.66649 89.6388679,124.886709 89.820566,124.868027 C90.1013208,124.839155 90.0237736,124.483069 90.0237736,124.483069 Z M5.45943396,136.484721 C7.43773585,136.484721 9.41716981,136.04485 10.9924528,134.946019 C13.5203774,133.1503 14.1067925,130.365011 14.1067925,128.86254 C14.1067925,125.931193 13.080566,123.658804 8.75716981,120.250221 L7.7309434,119.444073 C4.21358491,116.696147 3.26150943,115.376531 3.26150943,113.287564 C3.26150943,110.613234 5.23981132,109.036602 7.76716981,109.036602 C11.1390566,109.036602 11.9530189,110.275263 12.2383019,110.911577 C12.450566,111.38485 12.6328302,112.338755 12.72,112.862412 C12.7754717,113.197552 12.8535849,113.853114 13.1173585,113.839527 C13.3007547,113.831036 13.3737736,113.583643 13.3737736,112.997147 C13.3737736,110.505106 13.5203774,108.74392 13.5203774,108.560498 C13.5203774,108.378209 13.4473585,108.304048 13.1541509,108.304048 C12.8609434,108.304048 12.5683019,108.26725 11.8715094,108.120626 C10.9550943,107.900974 9.89320755,107.75435 8.46339623,107.75435 C3.81056604,107.75435 0.879622642,110.429812 0.879622642,114.35073 C0.879622642,116.842205 1.75867925,119.11516 5.64283019,122.302957 L7.29169811,123.658804 C10.4428302,126.261238 11.505283,127.726345 11.505283,130.254618 C11.505283,132.600036 9.78283019,135.12944 6.2654717,135.12944 C3.81056604,135.12944 1.39245283,134.103073 0.842264151,131.390812 C0.733018868,130.878478 0.733018868,130.365011 0.733018868,130.034965 C0.733018868,129.742283 0.696226415,129.632457 0.476603774,129.632457 C0.293207547,129.632457 0.219056604,129.815879 0.182830189,130.218387 C0.146603774,130.804317 0,132.270556 0,134.103073 C0,135.092643 0.0362264151,135.239267 0.549622642,135.495151 C2.05188679,136.228271 3.73698113,136.484721 5.45943396,136.484721 Z" id="Fill-3"></path>
                        </g>
                    </g>
                </g>
            </g>
        </g>
    </g>
</svg>