<?xml version="1.0" encoding="utf-8"?>
<!-- Generator: Adobe Illustrator 15.0.0, SVG Export Plug-In . SVG Version: 6.00 Build 0)  -->
<!DOCTYPE svg PUBLIC "-//W3C//DTD SVG 1.1//EN" "http://www.w3.org/Graphics/SVG/1.1/DTD/svg11.dtd">
<svg version="1.1" id="Layer_1" xmlns="http://www.w3.org/2000/svg" xmlns:xlink="http://www.w3.org/1999/xlink" x="0px" y="0px"
	 width="113.503px" height="27.908px" viewBox="0 0 113.503 27.908" enable-background="new 0 0 113.503 27.908"
	 xml:space="preserve">
<g>
	<defs>
		<rect id="SVGID_1_" width="113.504" height="27.908"/>
	</defs>
	<clipPath id="SVGID_2_">
		<use xlink:href="#SVGID_1_"  overflow="visible"/>
	</clipPath>
	<path clip-path="url(#SVGID_2_)" fill="#313694" d="M49.574,24.059c-3.815,0-7.138-2.167-8.826-5.344
		c-0.45,1.438-1.097,2.788-1.908,4.019c2.535,3.154,6.405,5.175,10.734,5.175c1.053,0,1.906-0.861,1.906-1.925
		C51.48,24.921,50.627,24.059,49.574,24.059 M40.134,10.595c0.17-0.485,0.375-0.953,0.614-1.402
		c1.688-3.177,5.011-5.344,8.826-5.344c1.053,0,1.906-0.861,1.906-1.925C51.48,0.862,50.627,0,49.574,0
		c-4.329,0-8.199,2.02-10.734,5.175c-0.213,0.265-0.417,0.54-0.612,0.821c-0.2,0.292-0.392,0.592-0.57,0.898
		c-1.211,2.073-1.908,4.486-1.908,7.06c0,1.177-0.202,2.307-0.57,3.359c-0.171,0.485-0.375,0.954-0.614,1.402
		c-1.687,3.177-5.01,5.344-8.825,5.344c-3.815,0-7.138-2.167-8.827-5.344c-0.449,1.438-1.095,2.788-1.908,4.019
		c2.537,3.154,6.405,5.175,10.735,5.175c4.329,0,8.198-2.021,10.734-5.175c0.214-0.265,0.416-0.54,0.61-0.82
		c0.202-0.292,0.393-0.592,0.573-0.899c1.209-2.074,1.905-4.485,1.905-7.06C39.563,12.776,39.766,11.646,40.134,10.595 M1.907,3.849
		c3.815,0,7.138,2.167,8.827,5.344c0.448-1.438,1.096-2.787,1.908-4.018C10.105,2.02,6.237,0,1.907,0C0.854,0,0,0.862,0,1.924
		C0,2.988,0.854,3.849,1.907,3.849 M16.302,10.595c0.169-0.485,0.374-0.953,0.612-1.402c1.689-3.177,5.012-5.344,8.827-5.344
		c3.815,0,7.138,2.167,8.825,5.344c0.449-1.438,1.097-2.787,1.909-4.018C33.939,2.02,30.07,0,25.741,0
		c-4.33,0-8.198,2.02-10.735,5.175c-0.213,0.265-0.416,0.54-0.611,0.821c-0.201,0.292-0.391,0.592-0.571,0.898
		c-1.21,2.073-1.907,4.486-1.907,7.06c0,1.177-0.202,2.307-0.571,3.359c-0.17,0.485-0.374,0.954-0.612,1.402
		c-1.689,3.177-5.012,5.344-8.827,5.344C0.854,24.059,0,24.921,0,25.983c0,1.063,0.854,1.925,1.907,1.925
		c4.33,0,8.198-2.021,10.735-5.175c0.213-0.265,0.417-0.54,0.61-0.82c0.202-0.292,0.392-0.592,0.572-0.899
		c1.209-2.074,1.906-4.485,1.906-7.06C15.73,12.776,15.933,11.646,16.302,10.595"/>
	<path clip-path="url(#SVGID_2_)" fill="#313694" d="M105.23,18.587c0,0.141,0.126,0.267,0.266,0.267h1.273
		c0.153,0,0.266-0.126,0.266-0.267v-6.019h0.014l5.853,6.425h0.336c0.14,0,0.266-0.112,0.266-0.252v-9.42
		c0-0.14-0.126-0.266-0.266-0.266h-1.287c-0.154,0-0.266,0.126-0.266,0.266v5.781h-0.015l-5.823-6.187h-0.351
		c-0.14,0-0.266,0.112-0.266,0.252V18.587z M96.02,18.587c0,0.141,0.11,0.267,0.265,0.267h5.697c0.153,0,0.266-0.126,0.266-0.267
		V17.44c0-0.139-0.112-0.265-0.266-0.265h-4.145v-2.453h3.458c0.141,0,0.267-0.112,0.267-0.266v-1.161
		c0-0.139-0.126-0.265-0.267-0.265h-3.458v-2.298h4.145c0.153,0,0.266-0.126,0.266-0.266V9.32c0-0.139-0.112-0.265-0.266-0.265
		h-5.697c-0.154,0-0.265,0.126-0.265,0.265V18.587z M89.088,18.839c0.042,0.084,0.112,0.154,0.238,0.154h0.14
		c0.126,0,0.196-0.07,0.238-0.154l4.34-9.419c0.084-0.182-0.027-0.364-0.237-0.364h-1.429c-0.126,0-0.21,0.084-0.237,0.154
		l-2.688,6.019h-0.098l-2.688-6.019c-0.027-0.07-0.111-0.154-0.238-0.154H85c-0.21,0-0.322,0.182-0.238,0.364L89.088,18.839z
		 M78.994,15.51l1.372-3.081h0.042l1.4,3.081H78.994z M75.998,18.854h1.218c0.225,0,0.351-0.141,0.406-0.28l0.687-1.512h4.186
		l0.687,1.512c0.098,0.196,0.195,0.28,0.405,0.28h1.219c0.21,0,0.321-0.183,0.237-0.364l-4.312-9.42
		c-0.042-0.084-0.099-0.154-0.238-0.154h-0.14c-0.126,0-0.196,0.07-0.238,0.154l-4.354,9.42
		C75.676,18.671,75.788,18.854,75.998,18.854 M62.628,18.531c-0.027,0.196,0.084,0.322,0.267,0.322h1.26
		c0.126,0,0.238-0.112,0.252-0.21l0.812-5.305h0.042l2.479,5.5c0.042,0.084,0.112,0.154,0.238,0.154h0.252
		c0.126,0,0.21-0.07,0.237-0.154l2.45-5.5h0.042l0.826,5.305c0.028,0.098,0.14,0.21,0.266,0.21h1.274
		c0.182,0,0.294-0.126,0.252-0.322l-1.652-9.406c-0.014-0.112-0.098-0.21-0.252-0.21h-0.224c-0.126,0-0.196,0.056-0.238,0.14
		l-3.08,6.607h-0.042l-3.08-6.607c-0.042-0.084-0.126-0.14-0.237-0.14h-0.225c-0.153,0-0.237,0.098-0.252,0.21L62.628,18.531z"/>
</g>
</svg>
