<?xml version="1.0" encoding="UTF-8" standalone="no"?>
<svg width="180px" height="262px" viewBox="0 0 180 262" version="1.1" xmlns="http://www.w3.org/2000/svg" xmlns:xlink="http://www.w3.org/1999/xlink" xmlns:sketch="http://www.bohemiancoding.com/sketch/ns">
    <!-- Generator: Sketch 3.5.2 (25235) - http://www.bohemiancoding.com/sketch -->
    <title>Page 1</title>
    <desc>Created with Sketch.</desc>
    <defs></defs>
    <g id="Page-1" stroke="none" stroke-width="1" fill="none" fill-rule="evenodd" sketch:type="MSPage">
        <g sketch:type="MSLayerGroup">
            <path d="M39.2549,175.7187 C43.5889,175.7187 45.6299,166.3007 54.0899,166.3007 C60.1749,166.3007 63.0079,171.3847 63.0079,171.3847 L60.8409,186.7207 C60.8409,186.7207 58.6749,188.4707 54.4239,188.4707 C48.3409,188.4707 48.3409,184.4707 39.2559,184.4707 L38.8389,184.4707 C29.7539,184.4707 29.7539,188.4707 23.6689,188.4707 C19.4189,188.4707 17.2529,186.7207 17.2529,186.7207 L15.0859,171.3847 C15.0859,171.3847 17.9189,166.3007 24.0039,166.3007 C32.4639,166.3007 34.5039,175.7187 38.8389,175.7187 L39.2559,175.7187 L39.2549,175.7187 L39.2549,175.7187 Z" id="Stroke-1" stroke="#FFFFFF" sketch:type="MSShapeGroup"></path>
            <path d="M23.5859,166.3008 C23.5859,166.3008 19.9189,175.7188 28.7529,185.0118 M16.4999,180.8868 C17.4179,182.0548 20.5019,185.5548 26.5029,185.4298 C32.5029,185.3048 37.4629,179.7618 38.8379,175.7188" id="Stroke-3" stroke="#FFFFFF" sketch:type="MSShapeGroup"></path>
            <path d="M18.0581,168.0801 C17.7041,167.3591 18.0011,166.4861 18.7231,166.1331 C19.4441,165.7781 20.3161,166.0761 20.6701,166.7971 M20.7101,166.8091 C20.5661,166.0171 21.0911,165.2601 21.8821,165.1161 C22.6731,164.9731 23.4301,165.4971 23.5741,166.2881 M23.7201,166.2671 C23.8091,165.4701 24.5301,164.8941 25.3291,164.9841 C26.1271,165.0741 26.7021,165.7951 26.6121,166.5941 M31.6341,169.5661 C32.2151,169.0111 33.1361,169.0311 33.6911,169.6111 C34.2461,170.1921 34.2261,171.1131 33.6451,171.6691 C33.6381,171.6761 33.6311,171.6831 33.6241,171.6891 M26.6131,166.5881 C26.9351,165.8511 27.7931,165.5161 28.5291,165.8381 C29.2661,166.1601 29.6021,167.0171 29.2801,167.7541 M29.3761,167.7191 C29.8691,167.0831 30.7831,166.9671 31.4181,167.4601 C32.0531,167.9531 32.1681,168.8671 31.6761,169.5021 M33.7161,171.6711 C34.3211,171.1421 35.2401,171.2021 35.7701,171.8071 C36.3001,172.4121 36.2391,173.3321 35.6341,173.8611 M17.9181,168.3441 L18.3781,144.5061 L15.8351,145.6731 L16.4181,169.5941 M23.5861,166.3011 C23.5861,166.3011 19.9191,175.7191 28.7531,185.0121 M16.5001,180.8871 C17.4181,182.0551 20.5021,185.5551 26.5031,185.4301 C32.5031,185.3051 37.4631,179.7621 38.8381,175.7191" id="Stroke-5" stroke="#FFFFFF" sketch:type="MSShapeGroup"></path>
            <path d="M54.4878,166.3008 C54.4878,166.3008 58.1548,175.7188 49.3208,185.0118 M61.5718,180.8868 C60.6548,182.0548 57.5718,185.5548 51.5718,185.4298 C45.5698,185.3048 40.6118,179.7618 39.2358,175.7188 M15.0318,171.4338 C14.3778,170.9668 14.1618,170.1488 14.5488,169.6098 C14.9348,169.0698 15.7788,169.0118 16.4318,169.4788" id="Stroke-7" stroke="#FFFFFF" sketch:type="MSShapeGroup"></path>
            <path d="M60.0161,168.0801 C60.3701,167.3581 60.0731,166.4861 59.3511,166.1331 C58.6291,165.7771 57.7571,166.0761 57.4031,166.7971 M57.3631,166.8091 C57.5151,166.0191 56.9981,165.2561 56.2091,165.1041 C55.4201,164.9521 54.6571,165.4691 54.5051,166.2581 C54.5031,166.2671 54.5021,166.2781 54.5001,166.2881 M54.3541,166.2671 C54.2641,165.4701 53.5441,164.8941 52.7451,164.9841 C51.9471,165.0741 51.3721,165.7951 51.4621,166.5941 M46.4401,169.5661 C45.8591,169.0111 44.9381,169.0311 44.3831,169.6111 C43.8281,170.1921 43.8481,171.1131 44.4291,171.6691 C44.4351,171.6761 44.4431,171.6831 44.4501,171.6891 M51.4601,166.5881 C51.1301,165.8551 50.2681,165.5291 49.5361,165.8591 C48.8141,166.1841 48.4851,167.0251 48.7941,167.7541 M48.6971,167.7191 C48.2041,167.0831 47.2901,166.9671 46.6551,167.4601 C46.0201,167.9531 45.9041,168.8671 46.3971,169.5021 M44.3571,171.6711 C43.7521,171.1421 42.8321,171.2021 42.3031,171.8071 C41.7731,172.4121 41.8341,173.3321 42.4391,173.8611 M60.1561,168.3441 L59.6961,144.5061 L62.2391,145.6731 L61.6551,169.5941 M54.4881,166.3011 C54.4881,166.3011 58.1551,175.7191 49.3211,185.0121 M61.5721,180.8871 C60.6551,182.0551 57.5721,185.5551 51.5721,185.4301 C45.5701,185.3051 40.6121,179.7621 39.2361,175.7191" id="Stroke-9" stroke="#FFFFFF" sketch:type="MSShapeGroup"></path>
            <path d="M63.042,171.4336 C63.695,170.9666 63.912,170.1486 63.525,169.6096 C63.138,169.0696 62.295,169.0116 61.641,169.4786" id="Stroke-11" stroke="#FFFFFF" sketch:type="MSShapeGroup"></path>
            <path d="M98.3594,147.6855 L98.5074,174.4335 L98.5074,174.4235 C98.5104,174.9875 98.9694,175.4415 99.5334,175.4395 L99.5344,175.4395" id="Stroke-13" stroke="#FFFFFF" sketch:type="MSShapeGroup"></path>
            <path d="M95.5801,146.873 L95.6641,174.428 C95.6661,174.991 96.1231,175.447 96.6871,175.445 L104.5851,175.421 C105.1481,175.42 105.6031,174.961 105.6011,174.398 L105.5251,146.844 L105.5251,146.788 C105.5171,144.042 103.2841,141.822 100.5381,141.831 C97.7921,141.84 95.5721,144.072 95.5811,146.818 L95.5811,146.873 L95.5801,146.873 L95.5801,146.873 Z" id="Stroke-15" stroke="#FFFFFF" sketch:type="MSShapeGroup"></path>
            <path d="M101.1133,175.5352 L101.1683,181.7192 C101.1773,182.7432 101.1953,184.6892 100.2913,186.1872 C100.4533,186.5832 100.5853,187.0002 100.6873,187.4372 C101.0663,189.0712 100.9373,190.5962 100.7993,191.2382 C100.7583,191.4452 100.5553,191.5782 100.3493,191.5372 C100.1423,191.4952 100.0083,191.2942 100.0503,191.0872 C100.0503,191.0842 100.0503,191.0812 100.0523,191.0782 C100.2153,190.3102 100.3043,188.6032 99.7383,186.9182 L99.6193,187.0382 C98.7163,187.9002 97.4253,188.2922 95.7863,188.2032 C94.1283,188.1132 92.8803,187.2732 92.4453,185.9532 C92.0603,184.7762 92.4043,183.4872 93.3023,182.7462 C94.3103,181.9162 95.7873,181.9462 97.3553,182.8222 C98.4103,183.4102 99.2833,184.2772 99.8773,185.3302 C100.4273,184.0802 100.4143,182.5642 100.4073,181.7242 L100.3513,175.5422 L101.1163,175.5352 L101.1133,175.5352 L101.1133,175.5352 Z M95.0363,182.9032 C94.5563,182.9072 94.1333,183.0512 93.7863,183.3362 C93.1403,183.8692 92.8863,184.8482 93.1713,185.7142 C93.5083,186.7372 94.4763,187.3662 95.8263,187.4392 C97.2463,187.5192 98.3453,187.1962 99.0893,186.4852 C99.2093,186.3712 99.3163,186.2492 99.4153,186.1202 C98.9293,185.1052 98.1653,184.1542 96.9783,183.4902 C96.2713,183.0962 95.6133,182.9002 95.0373,182.9052 L95.0363,182.9032 L95.0363,182.9032 Z M102.6933,147.6612 L102.8433,174.4112 L102.8433,174.4012 C102.8463,174.9652 102.3923,175.4242 101.8293,175.4262 L102.6933,147.6612 Z" id="Stroke-17" stroke="#FFFFFF" sketch:type="MSShapeGroup"></path>
            <path d="M161.1738,184.916 L144.0178,184.887 L144.0718,154.227 L161.2288,154.258 L161.1728,184.916 L161.1738,184.916 L161.1738,184.916 Z" id="Stroke-19" stroke="#FFFFFF" sketch:type="MSShapeGroup"></path>
            <path d="M163.0781,143.6553 C163.0801,142.7933 162.3831,142.0933 161.5211,142.0923 L136.2861,142.0463 C135.4251,142.0453 134.7251,142.7423 134.7241,143.6033 L134.7161,147.6713 L163.0721,147.7203 L163.0801,143.6553 L163.0781,143.6553 L163.0781,143.6553 Z M161.1651,189.8743 C161.1641,190.7363 160.4631,191.4323 159.6011,191.4313 L138.0251,191.3903 C137.1651,191.3893 136.4681,190.6903 136.4691,189.8293 L136.5441,147.6793 L161.2401,147.7223 L161.1651,189.8753 L161.1651,189.8743 L161.1651,189.8743 Z" id="Stroke-21" stroke="#FFFFFF" sketch:type="MSShapeGroup"></path>
            <path d="M154.4785,166.501 L156.8395,163.275 L155.4255,163.272 L153.7405,165.692 L151.9265,163.133 C152.6665,162.998 153.4095,162.326 153.4115,161.182 C153.4145,159.971 152.5405,159.094 151.2615,159.092 L148.3685,159.086 L148.3555,165.75 L149.4995,165.75 L149.5035,163.262 L150.6465,163.262 L152.9975,166.498 L150.5005,169.858 L151.9155,169.862 L153.8065,167.24 L155.6855,169.87 L157.0975,169.87 L154.4785,166.5 L154.4785,166.501 Z M149.5095,160.098 L151.1245,160.102 C151.7965,160.102 152.2675,160.508 152.2675,161.182 C152.2675,161.785 151.7925,162.256 151.1205,162.255 L149.5045,162.252 L149.5085,160.098 L149.5095,160.098 Z" id="Fill-23" fill="#FFFFFF" sketch:type="MSShapeGroup"></path>
            <path d="M19.9902,39.0532 C-2.1318,40.8212 0.6082,18.9782 0.6082,18.9782 C6.3542,22.6382 23.1462,17.1462 23.1462,39.0182 L23.1462,47.8282" id="Stroke-33" stroke="#FFFFFF" sketch:type="MSShapeGroup"></path>
            <path d="M32.7959,20.9912 C29.6299,22.4042 23.2629,28.6942 23.3259,37.5312 M10.5699,29.7182 C11.6429,29.7822 23.1969,30.0982 23.3859,36.9162 M22.2359,32.1012 C22.2359,26.3562 14.4079,7.7952 44.3319,0.8512 C49.2559,15.2452 49.8249,37.1512 25.9619,35.6362" id="Stroke-35" stroke="#FFFFFF" sketch:type="MSShapeGroup"></path>
            <path d="M91,48.0283 C90.7,48.0283 90.4,47.8283 90.2,47.6283 C88.9,45.8283 85.8,44.1283 82.6,42.3283 C75.6,38.5283 66.9,33.8283 66.9,23.6283 C66.9,18.2283 70.4,9.7283 79.7,9.7283 C86.2,9.7283 89.6,13.4283 91.1,15.7283 C92.6,13.4283 96,9.7283 102.5,9.7283 C111.8,9.7283 115.3,18.2283 115.3,23.6283 C115.3,33.8283 106.6,38.5283 99.6,42.3283 C96.3,44.1283 93.2,45.7283 92,47.6283 C91.6,47.8283 91.3,48.0283 91,48.0283 L91,48.0283 Z" id="Stroke-37" stroke="#FFFFFF" sketch:type="MSShapeGroup"></path>
            <path d="M70.48,225.7881 C72.314,226.1151 75.733,225.7351 78.788,224.5741 L70.48,225.7881 Z M71.524,222.1211 C71.069,223.4551 66.244,242.2411 62.839,247.1411 C59.433,252.0411 53.579,256.6851 55.833,260.1291 C58.087,263.5721 66.748,260.5101 77.771,251.1761 C88.793,241.8421 97.93,232.9501 99.943,230.2091 C101.957,227.4691 102.996,225.0551 103.023,224.5571 C103.055,223.9641 102.036,222.1961 100.742,222.7621 C100.575,221.3441 90.924,214.1411 89.094,212.9111 C87.264,211.6821 84.074,211.0191 84.744,214.0921 C85.417,217.1611 87.821,221.5311 78.314,224.7481 C77.094,222.2781 72.274,219.9211 71.524,222.1211 L71.524,222.1211 Z" id="Stroke-39" stroke="#FFFFFF" stroke-linecap="round" stroke-linejoin="round" sketch:type="MSShapeGroup"></path>
            <path d="M85.4961,218.583 C87.1181,219.033 87.1821,216.2 88.7261,215.447 C90.6261,214.521 91.9921,217.812 93.7461,216.32 M87.5631,233.956 C85.2081,236.296 69.3661,257.113 57.0161,261.033 M97.7541,219.639 C97.9711,220.053 97.8681,220.811 96.7791,222.059 C95.6931,223.307 88.2431,231.02 87.7181,231.536 C87.1921,232.053 86.9041,232.643 87.1481,233.206 C87.3931,233.771 88.5381,235.354 88.5381,235.354 C88.5381,235.354 96.2841,227.783 97.0061,227.165 C97.7261,226.549 100.5121,223.987 100.7431,222.76" id="Stroke-41" stroke="#FFFFFF" stroke-linecap="round" stroke-linejoin="round" sketch:type="MSShapeGroup"></path>
            <path d="M69.3428,229.835 L69.8998,230.001 C70.3638,230.143 70.6248,230.631 70.4838,231.095 C70.3428,231.558 69.8528,231.818 69.3898,231.678 L68.8338,231.512 L69.3428,229.835 Z M68.3168,233.236 L68.8728,233.406 C69.3348,233.546 69.5958,234.033 69.4568,234.496 C69.4558,234.498 69.4558,234.5 69.4548,234.501 C69.3098,234.965 68.8178,235.225 68.3528,235.081 L67.7978,234.911 L68.3168,233.236 Z M67.0958,237.028 L67.6458,237.215 C68.1058,237.373 68.3518,237.871 68.1938,238.328 C68.0338,238.787 67.5328,239.029 67.0738,238.872 L66.5238,238.686 L67.0958,237.028 Z M65.8218,240.696 L66.3618,240.911 C66.8138,241.092 67.0338,241.602 66.8518,242.049 C66.6698,242.499 66.1588,242.718 65.7068,242.539 L65.1668,242.323 L65.8218,240.696 Z M64.4458,244.139 L64.9728,244.383 C65.4128,244.587 65.6048,245.108 65.3988,245.547 C65.1908,245.986 64.6668,246.175 64.2258,245.969 L63.6998,245.725 L64.4458,244.139 Z M73.3428,232.898 C73.5678,233.522 74.3128,236.098 77.5558,235.37 C80.3058,234.752 89.5458,216.26 89.5458,216.26 C89.5458,216.26 83.0828,242.084 76.4958,241.63 C71.2458,241.268 73.3428,232.9 73.3428,232.9 L73.3428,232.898 L73.3428,232.898 Z M57.6148,253.648 C56.9448,254.503 56.9348,256.492 58.6548,255.314 C60.3748,254.137 63.0408,251.438 63.7428,250.881 C64.4448,250.324 65.0928,249.531 65.9868,250.107 C66.8818,250.684 68.3118,251.969 69.0698,251.202 C69.8618,250.402 67.0258,249.147 68.8458,246.637 C70.6658,244.126 74.4058,244.096 77.2898,245.54 L57.6148,253.648 Z" id="Stroke-43" stroke="#FFFFFF" stroke-linecap="round" stroke-linejoin="round" sketch:type="MSShapeGroup"></path>
            <path d="M152.1055,223.04 C159.0445,223.04 164.6895,228.707 164.6895,235.67 C164.6895,244.428 158.3335,257.665 148.7525,257.665 C147.4455,257.668 146.1665,257.277 145.0835,256.545 L144.7655,256.346 L144.0585,256.346 L143.7655,256.545 C142.6815,257.278 141.4025,257.668 140.0955,257.665 C130.5155,257.665 124.1605,244.428 124.1605,235.671 C124.1605,228.707 129.8065,223.041 136.7455,223.041 C139.2595,223.041 141.6875,223.783 143.7675,225.187 L144.0845,225.387 L144.7925,225.387 L145.0855,225.187 C147.1585,223.785 149.6055,223.036 152.1075,223.04 M152.1055,221.878 C149.2655,221.878 146.6265,222.744 144.4355,224.225 L144.4125,224.225 C142.1485,222.691 139.4765,221.874 136.7425,221.878 C129.1525,221.878 123.0005,228.053 123.0005,235.671 C123.0005,245.568 130.0705,258.828 140.0955,258.828 C141.6345,258.83 143.1385,258.371 144.4125,257.508 L144.4355,257.508 C145.7105,258.371 147.2145,258.83 148.7525,258.828 C158.7775,258.828 165.8475,245.568 165.8475,235.671 C165.8475,228.053 159.6955,221.878 152.1055,221.878" id="Fill-45" fill="#FFFFFF" sketch:type="MSShapeGroup"></path>
            <path d="M146.5078,224.0479 C146.5078,224.0479 142.9578,225.7759 140.3678,228.8199 M140.6638,216.8279 C140.6638,216.8279 143.9188,219.5759 144.3618,225.0699" id="Stroke-47" stroke="#FFFFFF" stroke-linecap="round" sketch:type="MSShapeGroup"></path>
            <path d="M15.2598,215.9453 L15.2598,212.8283 C15.2598,212.8283 15.2078,211.8683 16.2198,211.8683 L24.7598,211.8683 C25.7718,211.8683 25.7198,212.8283 25.7198,212.8283 L25.7198,215.9453 L15.2598,215.9453 L15.2598,215.9453 Z M15.9598,216.0083 L15.9598,217.5023 C15.9848,218.2283 14.8178,218.9553 13.5198,220.3583 C12.2218,221.7583 12.4548,221.9683 12.4028,223.4723 L12.4028,258.2583 C12.4028,260.1663 13.0498,261.4253 14.8428,261.4253 L26.1498,261.4253 C27.9438,261.4253 28.5898,260.1653 28.5898,258.2583 L28.5898,223.4723 C28.5398,221.9663 28.7728,221.7593 27.4748,220.3583 C26.1768,218.9553 25.0088,218.2283 25.0348,217.5023 L25.0348,216.0093 L15.9598,216.0083 Z" id="Stroke-49" stroke="#FFFFFF" sketch:type="MSShapeGroup"></path>
            <path d="M14.8428,261.4258 L26.1498,261.4258 C27.9438,261.4258 28.5898,260.1648 28.5898,258.2578 L28.5898,223.4728 C28.5798,223.1158 28.5818,222.8338 28.5778,222.5898 L12.4178,222.5898 C12.4118,222.8338 12.4148,223.1158 12.4028,223.4728 L12.4028,258.2578 C12.4028,260.1658 13.0498,261.4258 14.8428,261.4258 L14.8428,261.4258 Z" id="Stroke-51" stroke="#FFFFFF" sketch:type="MSShapeGroup"></path>
            <path d="M16.4141,256.0996 L22.2141,256.0996 L16.4141,256.0996 Z M16.4141,254.5646 L22.2141,254.5646 L16.4141,254.5646 Z M16.4141,253.0786 L23.5781,253.0786 L16.4141,253.0786 Z M21.4761,247.7076 C21.4761,249.1386 20.3161,250.2976 18.8861,250.2976 C17.4561,250.2976 16.2961,249.1386 16.2961,247.7076 C16.2961,246.2776 17.4561,245.1186 18.8861,245.1186 C20.3161,245.1186 21.4761,246.2776 21.4761,247.7076 L21.4761,247.7076 Z" id="Stroke-53" stroke="#FFFFFF" sketch:type="MSShapeGroup"></path>
            <path d="M165.6465,82.313 C165.6465,78.859 163.0085,78.515 163.0085,76.67 C163.0085,73.25 163.0425,71.517 160.6565,71.517 L160.6365,71.517 C158.2505,71.517 158.2845,73.25 158.2845,76.669 C158.2845,78.514 155.6465,78.859 155.6465,82.312" id="Stroke-55" stroke="#FFFFFF" stroke-linecap="round" sketch:type="MSShapeGroup"></path>
            <path d="M153.9727,101.2402 L159.3067,101.2402 L153.9727,101.2402 Z M153.9727,107.9082 L159.3067,107.9082 L153.9727,107.9082 Z M153.9727,111.2412 L162.2227,111.2412 L153.9727,111.2412 Z M153.9727,104.5742 L162.2227,104.5742 L153.9727,104.5742 Z M153.9727,97.9082 L162.2227,97.9082 L153.9727,97.9082 Z M154.0077,87.7952 C154.0077,88.5732 154.0587,89.2952 153.1427,90.2402 C152.5027,90.9032 151.0297,91.3502 151.0297,95.0732 L151.0297,118.6852 C151.0297,118.6852 153.6217,120.0752 160.8797,120.0752 C168.1367,120.0752 170.2457,118.6852 170.2457,118.6852 L170.2457,95.0732 C170.2457,91.3512 168.7717,90.9032 168.1307,90.2402 C167.2187,89.2952 167.2677,88.5732 167.2677,87.7952 L154.0077,87.7952 Z M152.8297,82.3232 L168.4637,82.3232 L168.4637,87.6582 L152.8297,87.6582 L152.8297,82.3232 Z" id="Stroke-57" stroke="#FFFFFF" stroke-linecap="round" sketch:type="MSShapeGroup"></path>
            <path d="M54.7002,77.9502 L45.2022,73.0542 L44.4152,72.6482 C44.3812,72.6312 44.3462,72.6172 44.3102,72.6082 L44.3052,72.6082 L36.5552,70.6212 C36.3792,70.5762 36.1922,70.6302 36.0672,70.7612 C36.0442,70.7882 33.7632,73.1482 30.5102,73.1482 C28.5902,73.1482 26.6932,72.3352 24.8732,70.7322 C24.7482,70.6222 24.5782,70.5852 24.4182,70.6222 L16.6682,72.6102 L16.6622,72.6102 C16.6252,72.6192 16.5902,72.6332 16.5572,72.6502 L15.7702,73.0572 L6.2702,77.9532 C6.0452,78.0702 5.9432,78.3362 6.0322,78.5732 L9.7422,88.5132 C9.8142,88.7082 10.0002,88.8382 10.2092,88.8392 L15.6102,88.8392 L15.6102,111.2032 C15.6102,111.4792 15.8342,111.7032 16.1102,111.7032 L16.1122,111.7032 C16.1342,111.7032 16.0192,111.6932 16.4592,111.6932 C18.1692,111.6932 23.7672,112.2802 24.0412,119.8372 C24.0482,120.0212 24.1562,120.1862 24.3212,120.2672 C24.4512,120.3322 27.5392,121.8292 31.1362,121.8292 C33.2842,121.8292 35.1592,121.2912 36.7102,120.2322 C36.8422,120.1432 36.9242,119.9962 36.9302,119.8372 C37.2042,112.2802 42.8032,111.6932 44.5132,111.6932 C44.7002,111.6932 44.8112,111.7012 44.8212,111.7032 C45.0962,111.7252 45.3372,111.5202 45.3592,111.2442 C45.3602,111.2312 45.3612,111.2172 45.3612,111.2032 L45.3612,88.8382 L50.7642,88.8382 C50.9712,88.8382 51.1582,88.7082 51.2312,88.5142 L54.9412,78.5722 C55.0302,78.3342 54.9272,78.0682 54.7012,77.9522 L54.7002,77.9502 Z M10.5582,87.8382 L7.1242,78.6382 L16.3102,73.9022 C19.8142,79.7822 17.9052,84.7342 15.8772,87.8372 L10.5572,87.8372 L10.5582,87.8382 Z M44.3602,110.6922 C42.7102,110.7282 36.3702,111.3982 35.9402,119.5402 C34.6002,120.3952 32.9852,120.8282 31.1382,120.8282 C28.3582,120.8282 25.8332,119.8382 25.0282,119.4882 C24.5782,111.3962 18.2582,110.7282 16.6122,110.6932 L16.6122,88.4552 C19.8922,83.3932 20.0972,78.3792 17.2272,73.4972 L24.4152,71.6542 C26.3652,73.3072 28.4152,74.1442 30.5112,74.1442 C33.6332,74.1442 35.8912,72.2982 36.5792,71.6592 L43.7492,73.4962 C40.8792,78.3762 41.0832,83.3912 44.3622,88.4542 L44.3622,110.6912 L44.3602,110.6922 Z M50.4152,87.8382 L45.0952,87.8382 C43.0672,84.7342 41.1572,79.7822 44.6622,73.9022 L53.8482,78.6372 L50.4152,87.8372 L50.4152,87.8382 Z" id="Fill-59" fill="#FFFFFF" sketch:type="MSShapeGroup"></path>
            <path d="M91.1299,76.9463 C93.0629,77.7283 100.3769,84.7633 100.3769,84.7633 C100.3769,84.7633 90.2359,84.7333 88.3049,83.9533 C86.3709,83.1693 85.4379,80.9673 86.2199,79.0333 C86.9979,77.1013 89.1939,76.1663 91.1249,76.9443 C91.1269,76.9453 91.1289,76.9453 91.1299,76.9463 L91.1299,76.9463 Z M121.9469,85.9733 L77.1639,85.9733 L77.1639,119.7683 L121.9489,119.7683 L121.9489,85.9733 L121.9469,85.9733 L121.9469,85.9733 Z" id="Stroke-61" stroke="#FFFFFF" sketch:type="MSShapeGroup"></path>
            <path d="M107.9805,76.9463 C106.0495,77.7283 98.7345,84.7633 98.7345,84.7633 C98.7345,84.7633 108.8755,84.7333 110.8065,83.9533 C112.7405,83.1693 113.6735,80.9673 112.8925,79.0333 C112.1135,77.1013 109.9155,76.1663 107.9825,76.9463 L107.9825,76.9463 L107.9805,76.9463 L107.9805,76.9463 Z" id="Stroke-63" stroke="#FFFFFF" sketch:type="MSShapeGroup"></path>
            <path d="M99.5547,81.1729 C100.9177,81.1729 102.0237,82.2799 102.0237,83.6459 C102.0237,85.0119 100.9177,86.1189 99.5547,86.1189 C98.1917,86.1189 97.0857,85.0119 97.0857,83.6459 C97.0857,82.2799 98.1917,81.1729 99.5547,81.1729 L99.5547,81.1729 Z" id="Stroke-65" stroke="#FFFFFF" sketch:type="MSShapeGroup"></path>
            <path d="M99.5547,84.4683 L99.5547,118.4483 M78.0097,97.5743 L121.1017,97.5743" id="Stroke-67" stroke="#FFFFFF" sketch:type="MSShapeGroup"></path>
            <path d="M176.12247,19.7787899 C174.573963,19.7787899 173.310707,21.1775641 172.617953,22.0826534 C171.96595,21.1775641 170.702694,19.7787899 169.113436,19.7787899 C167.279677,19.7787899 165.405168,20.9307216 165.405168,23.5637085 C165.405168,27.7188908 170.621194,30.2695968 172.04745,30.9278435 L172.04745,46.3143604 C172.04745,47.548573 171.436198,48.1656793 170.213692,48.1656793 L151.42785,48.1656793 C150.409095,48.1656793 149.47184,47.2194496 149.47184,46.1909391 L149.47184,37.057766 C150.286844,36.8520639 150.898097,36.1526768 151.020348,35.3298684 C151.34635,35.3298684 151.753852,35.3298684 152.161354,35.288728 C155.176868,35.2475876 156.929127,31.2981073 157.010627,31.1335456 C157.255128,30.5575798 160.841146,17.5572072 160.922646,15.376765 C161.004147,13.1140419 158.885136,11.4272847 157.010627,10.6456168 C156.969877,9.74052755 156.236373,9 155.299119,9 C154.361864,9 153.587611,9.78166797 153.587611,10.7278976 C153.587611,11.6741273 154.361864,12.4557952 155.299119,12.4557952 C155.869622,12.4557952 156.358624,12.1678123 156.684626,11.7564081 C157.947882,12.2912336 159.863141,13.607727 159.822391,15.3356246 C159.781641,17.145803 156.399374,29.7759118 156.032622,30.681001 C156.032622,30.7221414 154.524865,34.0956558 152.202104,34.1367963 C151.713101,34.1367963 151.305599,34.1367963 150.938848,34.1779367 C150.612846,33.3962687 149.879342,32.8614432 148.982838,32.8614432 C148.086334,32.8614432 147.35283,33.3962687 147.026829,34.1779367 C146.660077,34.1779367 146.252575,34.1779367 145.722822,34.1367963 C143.400061,34.0956558 141.892304,30.7221414 141.892304,30.681001 C141.525552,29.7759118 138.143285,17.145803 138.102535,15.3356246 C138.061785,13.5665866 139.977044,12.2912336 141.2403,11.7564081 C141.566302,12.1678123 142.055304,12.4557952 142.625807,12.4557952 C143.563062,12.4557952 144.337315,11.6741273 144.337315,10.7278976 C144.337315,9.78166797 143.563062,9 142.625807,9 C141.688553,9 140.955049,9.74052755 140.914299,10.6456168 C139.03979,11.4272847 136.920779,13.1140419 137.00228,15.376765 C137.08378,17.5160668 140.669798,30.5575798 140.914299,31.1335456 C140.995799,31.2981073 142.707307,35.2064472 145.763572,35.288728 C146.211825,35.288728 146.619327,35.288728 146.945328,35.3298684 C147.067579,36.1526768 147.638082,36.8109235 148.412335,37.0166256 L148.412335,46.1909391 C148.412335,47.7954155 149.879342,49.2764706 151.4686,49.2764706 L170.295192,49.2764706 C172.128951,49.2764706 173.269956,48.1656793 173.269956,46.27322 L173.269956,30.8867031 C174.614713,30.3107372 179.830738,27.7188908 179.830738,23.5637085 C179.830738,20.971862 177.956229,19.7787899 176.12247,19.7787899 Z M172.658703,29.9404735 C171.599198,29.4879289 166.546174,27.1017845 166.546174,23.5637085 C166.546174,21.6301088 167.89093,20.9307216 169.154186,20.9307216 C170.458193,20.9307216 171.762199,22.7409001 172.169701,23.3991468 L172.658703,24.2630956 L173.147706,23.3991468 C173.514458,22.6997597 174.818464,20.9307216 176.163221,20.9307216 C177.426477,20.9307216 178.771233,21.6301088 178.771233,23.5637085 C178.730483,27.1017845 173.718209,29.4467884 172.658703,29.9404735 L172.658703,29.9404735 Z" id="Shape" fill="#FFFFFF" sketch:type="MSShapeGroup"></path>
        </g>
    </g>
</svg>