<?xml version="1.0" encoding="UTF-8"?>
<svg width="50px" height="41px" viewBox="0 0 50 41" version="1.1" xmlns="http://www.w3.org/2000/svg" xmlns:xlink="http://www.w3.org/1999/xlink">
    <!-- Generator: Sketch 51.3 (57544) - http://www.bohemiancoding.com/sketch -->
    <title>Group 20</title>
    <desc>Created with Sketch.</desc>
    <defs>
        <polygon id="path-1" points="0.000135135135 0.655394467 49.8202703 0.655394467 49.8202703 40.625 0.000135135135 40.625"></polygon>
    </defs>
    <g id="Page-1" stroke="none" stroke-width="1" fill="none" fill-rule="evenodd">
        <g id="20190114_Bank_Cobranded_LP_v12" transform="translate(-1018.000000, -2291.000000)">
            <g id="Section-3" transform="translate(162.000000, 2070.000000)">
                <g id="Group-32" transform="translate(0.000000, 217.000000)">
                    <g id="Group-14" transform="translate(856.000000, 4.000000)">
                        <g id="Group-20">
                            <g id="Group-3">
                                <mask id="mask-2" fill="white">
                                    <use xlink:href="#path-1"></use>
                                </mask>
                                <g id="Clip-2"></g>
                                <path d="M45.1859459,16.072249 C45.0062162,16.072249 44.8298649,16.0849027 44.6548649,16.1042162 C42.5697297,7.25329406 34.5244595,0.655394467 24.9102703,0.655394467 C15.2960811,0.655394467 7.25013514,7.25329406 5.16567568,16.1042162 C4.99067568,16.0849027 4.81432432,16.072249 4.63459459,16.072249 C2.07513514,16.072249 0.000135135135,18.1168186 0.000135135135,20.6395645 C0.000135135135,23.1623105 2.07513514,25.2082121 4.63459459,25.2082121 C4.81432432,25.2082121 4.99067568,25.1955584 5.16567568,25.1762449 C7.25013514,34.027167 15.2960811,40.6250666 24.9102703,40.6250666 C34.5244595,40.6250666 42.5697297,34.027167 44.6548649,25.1762449 C44.8298649,25.1955584 45.0062162,25.2082121 45.1859459,25.2082121 C47.7454054,25.2082121 49.8204054,23.1623105 49.8204054,20.6395645 C49.8204054,18.1168186 47.7454054,16.072249 45.1859459,16.072249" id="Fill-1" fill="#E5C0AD" mask="url(#mask-2)"></path>
                            </g>
                            <g id="Group-7" transform="translate(19.791667, 1.041667)">
                                <path d="M5.41868056,0.0565277778 C5.93326389,0.373194444 6.40409722,0.802361111 6.78951389,1.33569444 C8.18881944,3.27180556 7.938125,5.84263889 6.22909722,7.07805556 C4.52076389,8.31347222 2.00131944,7.74541667 0.601319444,5.80930556" id="Fill-4" fill="#E5C0AD"></path>
                                <path d="M5.41868056,0.0565277778 C5.93326389,0.373194444 6.40409722,0.802361111 6.78951389,1.33569444 C8.18881944,3.27180556 7.938125,5.84263889 6.22909722,7.07805556 C4.52076389,8.31347222 2.00131944,7.74541667 0.601319444,5.80930556" id="Stroke-6" stroke="#9D7967" stroke-linecap="round" stroke-linejoin="round"></path>
                            </g>
                            <g id="Group-11" transform="translate(13.541667, 16.666667)">
                                <path d="M8.26430556,0.372578125 C7.40111111,1.83898438 5.92125,2.80539062 4.24138889,2.80539062 C2.49833333,2.80539062 0.971944444,1.76554688 0.124027778,0.207734375" id="Fill-8" fill="#E5C0AD"></path>
                                <path d="M8.26430556,0.372578125 C7.40111111,1.83898438 5.92125,2.80539062 4.24138889,2.80539062 C2.49833333,2.80539062 0.971944444,1.76554688 0.124027778,0.207734375" id="Stroke-10" stroke="#9D7967" stroke-linecap="round" stroke-linejoin="round"></path>
                            </g>
                            <g id="Group-15" transform="translate(28.125000, 16.666667)">
                                <path d="M8.03544872,0.372578125 C7.23865385,1.83898438 5.87262821,2.80539062 4.32198718,2.80539062 C2.71301282,2.80539062 1.30339744,1.76554688 0.521346154,0.207734375" id="Fill-12" fill="#E5C0AD"></path>
                                <path d="M8.03544872,0.372578125 C7.23865385,1.83898438 5.87262821,2.80539062 4.32198718,2.80539062 C2.71301282,2.80539062 1.30339744,1.76554688 0.521346154,0.207734375" id="Stroke-14" stroke="#9D7967" stroke-linecap="round" stroke-linejoin="round"></path>
                            </g>
                            <g id="Group-19" transform="translate(19.791667, 28.125000)">
                                <path d="M10.4166667,0.133032129 C9.31196581,1.30823293 7.41880342,2.08333333 5.26851852,2.08333333 C3.03846154,2.08333333 1.08475783,1.24949799 0,0" id="Fill-16" fill="#E5C0AD"></path>
                                <path d="M10.4166667,0.133032129 C9.31196581,1.30823293 7.41880342,2.08333333 5.26851852,2.08333333 C3.03846154,2.08333333 1.08475783,1.24949799 0,0" id="Stroke-18" stroke="#9D7967" stroke-linecap="round" stroke-linejoin="round"></path>
                            </g>
                        </g>
                    </g>
                </g>
            </g>
        </g>
    </g>
</svg>