<svg width="325" height="33" viewBox="0 0 325 33" fill="none" xmlns="http://www.w3.org/2000/svg"><path fill-rule="evenodd" clip-rule="evenodd" d="M299.98 31.648c0-.732.61-1.336 1.365-1.336.746 0 1.357.604 1.357 1.336 0 .757-.603 1.352-1.357 1.352a1.358 1.358 0 0 1-1.365-1.352zm.26 0c0 .612.494 1.088 1.105 1.088a1.08 1.08 0 0 0 1.09-1.088c0-.587-.487-1.072-1.09-1.072-.61 0-1.105.476-1.105 1.072z" fill="#E3173E"/><path fill-rule="evenodd" clip-rule="evenodd" d="M302.024 32.405h-.252l-.435-.698h-.268v.698h-.22V30.9h.654c.134 0 .252.008.37.076.116.06.166.195.166.323 0 .297-.21.407-.477.416l.46.69zm-.712-.876c.218 0 .51.04.51-.24 0-.195-.167-.212-.368-.212h-.385v.45h.242z" fill="#E3173E"/><path d="M294.904 33c9.482-8.24 22.8-16.27 30.096-19.145-1.14-.74-2.898-1.795-4.867-2.943-9.415 3.155-20.43 10.19-30.28 18.125a120.474 120.474 0 0 1 5.05 3.963z" fill="#E3173E"/><path d="M290.557 10.597c-1.408-.663-2.915-1.326-4.13-1.88-3.576 1.787-8.21 4.517-14.08 8.76 1.28.68 2.63 1.506 4.08 2.33 4.514-3.4 9.08-6.624 14.13-9.21z" fill="#14377D"/><path d="M298.992 6.626c-1.7-.987-7.69-3.19-11.794-4.16-1.214.477-2.923 1.14-4.104 1.642 1.466.425 7.036 1.914 11.777 4.355a217.447 217.447 0 0 1 4.122-1.837z" fill="#E3173E"/><path d="M278.813 6.03c-5.302 2.475-10.822 5.886-13.846 7.825 1.072.485 2.153.918 3.652 1.658 6.667-4.584 11.902-7.365 13.996-8.3-1.482-.502-2.906-.91-3.803-1.183z" fill="#14377D"/><path d="M302.962 5.24c1.198-.392 2.63-.792 3.845-1.14-3.543-1.514-7.957-3.096-11.903-4.11-.62.172-2.504.7-3.853 1.116 1.358.348 5.848 1.403 11.912 4.133zM280.698 22.445c1.432.885 2.99 2.084 4.48 3.07 9.885-7.773 19.627-13.812 30.357-17.205-1.49-.766-2.798-1.446-4.456-2.27-6.443 1.666-17.382 6.122-30.382 16.405z" fill="#E3173E"/><path d="M0 30.627h7.22c3.66 0 5.378-1.914 5.378-4.627 0-2.177-1.13-3.666-3.493-4.142 2.077-.527 3.024-1.794 3.024-3.69 0-2.4-1.727-4.313-5.38-4.313H0v16.772zm6.274-7.12c1.365 0 2.287.673 2.287 2.085 0 1.488-.92 2.084-2.286 2.084H3.937v-4.168h2.337zm-.444-6.7c1.365 0 2.287.595 2.287 1.964 0 1.37-.922 1.966-2.287 1.966H3.937v-3.93H5.83zm21.334-2.952h-4.08l-6.18 16.772h4.104l1.105-3.47h5.973l1.105 3.47h4.156l-6.182-16.772zM25.13 17.86l1.96 6.184h-3.963l2.002-6.183zm28.838-4.005H50.24v11.21l-7.027-11.21h-4.196v16.772h3.727V19.443l7.028 11.184h4.196V13.855zm17.314 16.772l-5.428-8.53v8.53h-4.012V13.855h4.012v8.07l5.17-8.07h4.48L70.1 21.9l5.923 8.72h-4.74v.007zm18.914-8.386c0 3.352 1.985 5.42 4.557 5.42 2.57 0 4.556-2.06 4.556-5.42 0-3.35-1.986-5.417-4.557-5.417-2.572.01-4.557 2.067-4.557 5.418zm-4.247 0c.024-4.906 3.442-8.742 8.803-8.742 5.352 0 8.778 3.836 8.803 8.743-.025 4.909-3.443 8.744-8.803 8.744-5.353 0-8.78-3.827-8.804-8.743zm23.126 8.387h4.004V24.02h5.218V20.81h-5.218v-3.734h6.324l.712-3.206h-11.04v16.755zm29.753-16.772h-4.08l-6.182 16.772h4.104l1.106-3.47h5.972l1.106 3.47h4.154l-6.18-16.772zM136.8 17.86l1.96 6.184H134.8l2.002-6.183zm32.114-4.005h-4.7l-4.296 9.058-4.272-9.058h-4.7v16.772h3.61v-11.21l5.312 11.21 5.31-11.21v11.21h3.728V13.855h.008zm7.79 16.772h11.275V27.42h-7.27v-3.733h5.73v-3.113h-5.73v-3.496h6.65l.713-3.206h-11.375v16.755h.008zm26.587 0h4.364l-4.13-7.12c2.245-.62 3.325-2.227 3.325-4.6 0-3.045-1.792-5.052-5.855-5.052h-6.35v16.772h3.938V24.02h1.064l3.643 6.607zm-3-13.676c1.65 0 2.522.74 2.522 2.136 0 1.437-.87 2.16-2.52 2.16h-1.702V16.96h1.7v-.01zm13.386 13.677h4.01V13.855h-4.01v16.772zm23.805-4.508c-1.558 1.08-2.9 1.462-4.272 1.462-3.09 0-5.22-2.135-5.22-5.34 0-3.207 2.13-5.342 5.12-5.342 1.364 0 2.688.383 4.18 1.463v-3.785c-1.366-.766-2.924-1.08-4.7-1.08-5.478 0-8.896 3.836-8.92 8.743.024 4.96 3.4 8.744 8.945 8.744 1.843 0 3.443-.314 4.858-1.08V26.12h.01zm14.7-12.265h-4.08l-6.18 16.772h4.103l1.106-3.47h5.972l1.106 3.47h4.155l-6.182-16.772zm-2.035 4.006l1.96 6.184h-3.962l2.002-6.183z" fill="#14377D"/></svg>