<?xml version="1.0" encoding="UTF-8"?>
<svg width="53px" height="53px" viewBox="0 0 53 53" version="1.1" xmlns="http://www.w3.org/2000/svg" xmlns:xlink="http://www.w3.org/1999/xlink">
    <!-- Generator: Sketch 51.3 (57544) - http://www.bohemiancoding.com/sketch -->
    <title>Group 25</title>
    <desc>Created with Sketch.</desc>
    <defs></defs>
    <g id="Page-1" stroke="none" stroke-width="1" fill="none" fill-rule="evenodd">
        <g id="Section-3" transform="translate(-136.000000, -240.000000)">
            <g id="Group-30" transform="translate(136.000000, 241.000000)">
                <g id="Group-19">
                    <g id="Group-25" transform="translate(1.000000, 0.000000)">
                        <g id="Group-5" transform="translate(0.000000, 0.123175)" stroke="#A0A0A0" stroke-linecap="round" stroke-linejoin="round">
                            <path d="M25.6553375,0.283075 L25.6553375,50.7807625" id="Stroke-1"></path>
                            <path d="M50.9045063,25.5324875 L0.40600625,25.5324875" id="Stroke-3"></path>
                        </g>
                        <polyline id="Stroke-6" stroke="#A0A0A0" stroke-linecap="round" stroke-linejoin="round" points="29.1691563 3.629275 25.6550938 7.1433375 22.1418437 3.629275"></polyline>
                        <polyline id="Stroke-7" stroke="#A0A0A0" stroke-linecap="round" stroke-linejoin="round" points="33.3406125 7.39025625 25.655175 15.0748812 17.97055 7.39025625"></polyline>
                        <polyline id="Stroke-8" stroke="#A0A0A0" stroke-linecap="round" stroke-linejoin="round" points="22.1415187 47.6812375 25.6555812 44.167175 29.1688313 47.6812375"></polyline>
                        <polyline id="Stroke-9" stroke="#A0A0A0" stroke-linecap="round" stroke-linejoin="round" points="17.9701437 43.9202562 25.6555812 36.2356312 33.3402062 43.9202562"></polyline>
                        <polyline id="Stroke-10" stroke="#A0A0A0" stroke-linecap="round" stroke-linejoin="round" points="47.6811563 29.169075 44.1670937 25.655825 47.6811563 22.1417625"></polyline>
                        <polyline id="Stroke-11" stroke="#A0A0A0" stroke-linecap="round" stroke-linejoin="round" points="43.9207437 33.3402875 36.2353063 25.6556625 43.9207437 17.970225"></polyline>
                        <polyline id="Stroke-12" stroke="#A0A0A0" stroke-linecap="round" stroke-linejoin="round" points="3.6296 22.1414375 7.1436625 25.6555 3.6296 29.16875"></polyline>
                        <path d="M43.5091312,7.8013 L7.80138125,43.50905" id="Stroke-13" stroke="#A0A0A0" stroke-linecap="round" stroke-linejoin="round"></path>
                        <polyline id="Stroke-14" stroke="#A0A0A0" stroke-linecap="round" stroke-linejoin="round" points="43.7146125 12.5652313 38.7453625 12.5652313 38.7453625 7.59598125"></polyline>
                        <polyline id="Stroke-15" stroke="#A0A0A0" stroke-linecap="round" stroke-linejoin="round" points="7.5960625 38.7452813 12.5653125 38.7452813 12.5653125 43.7145313"></polyline>
                        <path d="M43.5091312,43.5092125 L7.80138125,7.8014625" id="Stroke-16" stroke="#A0A0A0" stroke-linecap="round" stroke-linejoin="round"></path>
                        <polyline id="Stroke-17" stroke="#A0A0A0" stroke-linecap="round" stroke-linejoin="round" points="38.7454437 43.714775 38.7454437 38.745525 43.7146938 38.745525"></polyline>
                        <polyline id="Stroke-18" stroke="#A0A0A0" stroke-linecap="round" stroke-linejoin="round" points="12.5653125 7.59581875 12.5653125 12.5650688 7.5960625 12.5650688"></polyline>
                        <polyline id="Stroke-19" stroke="#A0A0A0" stroke-linecap="round" stroke-linejoin="round" points="7.38993125 17.970225 15.0753687 25.6556625 7.38993125 33.3402875"></polyline>
                        <g id="Group-24" transform="translate(20.312500, 20.435675)">
                            <path d="M10.1777812,5.2199875 C10.1777812,7.8898625 8.01328125,10.0543625 5.34259375,10.0543625 C2.67271875,10.0543625 0.50821875,7.8898625 0.50821875,5.2199875 C0.50821875,2.5493 2.67271875,0.3848 5.34259375,0.3848 C8.01328125,0.3848 10.1777812,2.5493 10.1777812,5.2199875" id="Fill-20" fill="#BCE2D2"></path>
                            <path d="M10.1777812,5.2199875 C10.1777812,7.8898625 8.01328125,10.0543625 5.34259375,10.0543625 C2.67271875,10.0543625 0.50821875,7.8898625 0.50821875,5.2199875 C0.50821875,2.5493 2.67271875,0.3848 5.34259375,0.3848 C8.01328125,0.3848 10.1777812,2.5493 10.1777812,5.2199875 Z" id="Stroke-22" stroke="#A0A0A0" stroke-linecap="round" stroke-linejoin="round"></path>
                        </g>
                    </g>
                </g>
            </g>
        </g>
    </g>
</svg>