<?xml version="1.0" encoding="UTF-8"?>
<svg width="53px" height="53px" viewBox="0 0 53 53" version="1.1" xmlns="http://www.w3.org/2000/svg" xmlns:xlink="http://www.w3.org/1999/xlink">
    <!-- Generator: Sketch 51.3 (57544) - http://www.bohemiancoding.com/sketch -->
    <title>Group 15</title>
    <desc>Created with Sketch.</desc>
    <defs></defs>
    <g id="Page-1" stroke="none" stroke-width="1" fill="none" fill-rule="evenodd">
        <g id="20181211_Fertility" transform="translate(-211.000000, -2255.000000)">
            <g id="Section-3" transform="translate(76.000000, 2015.000000)">
                <g id="Group-30" transform="translate(136.000000, 241.000000)">
                    <g id="Group-19">
                        <g id="Group-15">
                            <path d="M12.7035103,39.1187931 L0.448544828,51.3737586" id="Stroke-1" stroke="#000000" stroke-linecap="round" stroke-linejoin="round"></path>
                            <polygon id="Fill-3" fill="#E7E7E7" points="14.6467862 40.9609379 10.7243724 37.0385241 14.6467862 33.1161103 18.5692 37.0385241"></polygon>
                            <polygon id="Fill-4" fill="#FFEAE6" points="25.5306552 37.9210897 18.5761034 37.0451586 14.6536897 33.1236414 13.7643103 26.1547448 35.3362414 4.58191724 47.1025862 16.3482621"></polygon>
                            <polygon id="Fill-5" fill="#E7E7E7" points="44.0631862 13.3087724 38.3754621 7.62194483 44.0631862 1.93422069 49.7500138 7.62194483"></polygon>
                            <path d="M42.4451793,0.316662069 L51.3685586,9.24004138" id="Stroke-6" stroke="#A0A0A0"></path>
                            <path d="M30.175331,9.81535862 L34.6858828,14.3250138" id="Stroke-8" stroke="#EEC2B9"></path>
                            <path d="M27.4296414,12.5610483 L30.8616414,15.9921517" id="Stroke-9" stroke="#EEC2B9"></path>
                            <path d="M24.6839517,15.3058414 L29.1945034,19.8163931" id="Stroke-10" stroke="#EEC2B9"></path>
                            <path d="M21.9387103,18.051531 L25.3707103,21.483531" id="Stroke-11" stroke="#EEC2B9"></path>
                            <path d="M19.1930207,20.7972207 L23.7035724,25.3077724" id="Stroke-12" stroke="#EEC2B9"></path>
                            <path d="M16.447331,23.5429103 L19.879331,26.9749103" id="Stroke-13" stroke="#EEC2B9"></path>
                            <path d="M33.7672759,3.01331034 L48.6715517,17.9175862" id="Stroke-14" stroke="#A0A0A0"></path>
                        </g>
                    </g>
                </g>
            </g>
        </g>
    </g>
</svg>