<?xml version="1.0" encoding="UTF-8"?>
<svg width="40px" height="51px" viewBox="0 0 40 51" version="1.1" xmlns="http://www.w3.org/2000/svg" xmlns:xlink="http://www.w3.org/1999/xlink">
    <!-- Generator: Sketch 49.3 (51167) - http://www.bohemiancoding.com/sketch -->
    <title>Page 1</title>
    <desc>Created with Sketch.</desc>
    <defs>
        <polygon id="path-1" points="0.784506667 0.637404444 4.76886222 0.637404444 4.76886222 4.62222222 0.784506667 4.62222222"></polygon>
        <polygon id="path-3" points="1.10621333 0.637404444 5.09056889 0.637404444 5.09056889 4.62222222 1.10621333 4.62222222"></polygon>
        <polygon id="path-5" points="0.000577777778 0.869208889 39.3859556 0.869208889 39.3859556 13.9662756 0.000577777778 13.9662756"></polygon>
        <polygon id="path-7" points="0 50.9479822 39.3859556 50.9479822 39.3859556 -0.000462222222 0 -0.000462222222"></polygon>
    </defs>
    <g id="Final-design-v3" stroke="none" stroke-width="1" fill="none" fill-rule="evenodd">
        <g id="Landing-Page---Employers" transform="translate(-184.000000, -1006.000000)">
            <g id="Page-1" transform="translate(184.000000, 1006.000000)">
                <g id="Group-3" transform="translate(4.622222, 46.325760)">
                    <mask id="mask-2" fill="white">
                        <use xlink:href="#path-1"></use>
                    </mask>
                    <g id="Clip-2"></g>
                    <path d="M4.76886222,2.62958222 C4.76886222,3.72967111 3.87792889,4.62291556 2.77668444,4.62291556 C1.67659556,4.62291556 0.784506667,3.72967111 0.784506667,2.62958222 C0.784506667,1.53064889 1.67659556,0.637404444 2.77668444,0.637404444 C3.87792889,0.637404444 4.76886222,1.53064889 4.76886222,2.62958222" id="Fill-1" fill="#CDCBCB" mask="url(#mask-2)"></path>
                </g>
                <g id="Group-6" transform="translate(28.888889, 46.325760)">
                    <mask id="mask-4" fill="white">
                        <use xlink:href="#path-3"></use>
                    </mask>
                    <g id="Clip-5"></g>
                    <path d="M5.09056889,2.62958222 C5.09056889,3.72967111 4.19848,4.62291556 3.09839111,4.62291556 C1.99830222,4.62291556 1.10621333,3.72967111 1.10621333,2.62958222 C1.10621333,1.53064889 1.99830222,0.637404444 3.09839111,0.637404444 C4.19848,0.637404444 5.09056889,1.53064889 5.09056889,2.62958222" id="Fill-4" fill="#CDCBCB" mask="url(#mask-4)"></path>
                </g>
                <g id="Group-9" transform="translate(0.000000, 33.614649)">
                    <mask id="mask-6" fill="white">
                        <use xlink:href="#path-5"></use>
                    </mask>
                    <g id="Clip-8"></g>
                    <polyline id="Fill-7" fill="#FFCAC1" mask="url(#mask-6)" points="39.3865333 0.869208889 39.3865333 13.9662756 0.000577777778 13.9662756 0.000577777778 0.869208889"></polyline>
                </g>
                <mask id="mask-8" fill="white">
                    <use xlink:href="#path-7"></use>
                </mask>
                <g id="Clip-11"></g>
                <polygon id="Fill-10" fill="#E7E7E7" mask="url(#mask-8)" points="0 34.4836267 39.3859556 34.4836267 39.3859556 -0.000462222222 0 -0.000462222222"></polygon>
                <path d="M5.35010667,41.1034578 L15.0267289,41.1034578" id="Stroke-12" stroke="#000000" stroke-linecap="round" stroke-linejoin="round" mask="url(#mask-8)"></path>
                <g id="Group-15" mask="url(#mask-8)">
                    <g transform="translate(26.577778, 39.392427)">
                        <path d="M2.90518222,1.71103111 C2.90518222,2.27609778 2.44642667,2.73600889 1.88020444,2.73600889 C1.31513778,2.73600889 0.856382222,2.27609778 0.856382222,1.71103111 C0.856382222,1.14480889 1.31513778,0.686053333 1.88020444,0.686053333 C2.44642667,0.686053333 2.90518222,1.14480889 2.90518222,1.71103111" id="Fill-13" stroke="none" fill="#000000" fill-rule="evenodd"></path>
                        <path d="M2.90518222,1.71103111 C2.90518222,2.27609778 2.44642667,2.73600889 1.88020444,2.73600889 C1.31513778,2.73600889 0.856382222,2.27609778 0.856382222,1.71103111 C0.856382222,1.14480889 1.31513778,0.686053333 1.88020444,0.686053333 C2.44642667,0.686053333 2.90518222,1.14480889 2.90518222,1.71103111 Z" id="Stroke-14" stroke="#000000" stroke-width="1" fill="none"></path>
                    </g>
                </g>
                <g id="Group-18" mask="url(#mask-8)">
                    <g transform="translate(31.200000, 39.392427)">
                        <path d="M2.83642667,1.71103111 C2.83642667,2.27609778 2.37767111,2.73600889 1.81144889,2.73600889 C1.24638222,2.73600889 0.787626667,2.27609778 0.787626667,1.71103111 C0.787626667,1.14480889 1.24638222,0.686053333 1.81144889,0.686053333 C2.37767111,0.686053333 2.83642667,1.14480889 2.83642667,1.71103111" id="Fill-16" stroke="none" fill="#000000" fill-rule="evenodd"></path>
                        <path d="M2.83642667,1.71103111 C2.83642667,2.27609778 2.37767111,2.73600889 1.81144889,2.73600889 C1.24638222,2.73600889 0.787626667,2.27609778 0.787626667,1.71103111 C0.787626667,1.14480889 1.24638222,0.686053333 1.81144889,0.686053333 C2.37767111,0.686053333 2.83642667,1.14480889 2.83642667,1.71103111 Z" id="Stroke-17" stroke="#000000" stroke-width="1" fill="none"></path>
                    </g>
                </g>
                <path d="M25.4199111,8.07190222 C25.4199111,8.07190222 23.5479111,11.48888 19.6340444,11.48888 C16.1766222,11.48888 13.8504889,8.06843556 13.8504889,8.06843556 L4.38764444,17.0817689 C7.2592,22.6261244 13.0485333,26.4151911 19.7241778,26.4151911 C26.3512889,26.4151911 32.1071111,22.6804356 34.9994667,17.1996356 L25.4199111,8.07190222 Z" id="Fill-19" fill="#111111" mask="url(#mask-8)"></path>
                <path d="M25.4199111,8.07190222 C25.4199111,8.07190222 23.5479111,11.48888 19.6340444,11.48888 C16.1766222,11.48888 13.8504889,8.06843556 13.8504889,8.06843556 L4.38764444,17.0817689 C7.2592,22.6261244 13.0485333,26.4151911 19.7241778,26.4151911 C26.3512889,26.4151911 32.1071111,22.6804356 34.9994667,17.1996356 L25.4199111,8.07190222 Z" id="Stroke-20" stroke="#000000" stroke-linecap="round" stroke-linejoin="round" mask="url(#mask-8)"></path>
            </g>
        </g>
    </g>
</svg>