<?xml version="1.0" encoding="UTF-8"?>
<svg width="50px" height="50px" viewBox="0 0 50 50" version="1.1" xmlns="http://www.w3.org/2000/svg" xmlns:xlink="http://www.w3.org/1999/xlink">
    <!-- Generator: Sketch 49.3 (51167) - http://www.bohemiancoding.com/sketch -->
    <title>Page 1</title>
    <desc>Created with Sketch.</desc>
    <defs>
        <polygon id="path-1" points="0.560252069 0.111 25.092 0.111 25.092 14.9848 0.560252069 14.9848"></polygon>
        <polygon id="path-3" points="0.0793 0.8691 10.21 0.8691 10.21 10.9991 0.0793 10.9991"></polygon>
    </defs>
    <g id="Final-design-v3" stroke="none" stroke-width="1" fill="none" fill-rule="evenodd">
        <g id="Landing-Page---Employers" transform="translate(-556.000000, -1001.000000)">
            <g id="Page-1" transform="translate(556.000000, 1000.000000)">
                <path d="M11.4219,43.5109 L33.0519,20.7899 C33.7309,20.1089 34.6149,19.8879 35.0249,20.2969 C35.4349,20.7059 35.2159,21.5899 34.5369,22.2709 L12.7419,45.1569" id="Fill-1" fill="#111111"></path>
                <path d="M30.3475,27.8654 L38.4705,27.8654 C39.7855,27.8654 40.9165,26.9344 41.1705,25.6444 L43.0925,15.8744 L23.7435,15.8744 L22.3005,15.8744 L7.9095,15.8744 C6.1765,15.8744 4.8745,17.4574 5.2095,19.1574 L6.4855,25.6444 C6.7395,26.9344 7.8705,27.8654 9.1855,27.8654 L30.9615,27.8654" id="Fill-3" fill="#0E6956"></path>
                <g id="Group-7" transform="translate(18.000000, 0.889300)">
                    <mask id="mask-2" fill="white">
                        <use xlink:href="#path-1"></use>
                    </mask>
                    <g id="Clip-6"></g>
                    <path d="M2.136,0.1108 L15.657,0.1108 C20.867,0.1108 25.092,4.3358 25.092,9.5468 L25.092,14.9848 L10.677,14.9848 L0.904,2.6608 C0.086,1.6298 0.82,0.1108 2.136,0.1108" id="Fill-5" fill-opacity="0.509992074" fill="#0E6956" mask="url(#mask-2)"></path>
                </g>
                <path d="M19.0523,44.0343 C19.0523,47.5573 16.1953,50.4143 12.6723,50.4143 C9.1483,50.4143 6.2913,47.5573 6.2913,44.0343 C6.2913,40.5103 9.1483,37.6533 12.6723,37.6533 C16.1953,37.6533 19.0523,40.5103 19.0523,44.0343" id="Fill-8" fill="#A0A0A0"></path>
                <path d="M16.6358,44.0343 C16.6358,46.2223 14.8608,47.9973 12.6718,47.9973 C10.4828,47.9973 8.7078,46.2223 8.7078,44.0343 C8.7078,41.8453 10.4828,40.0703 12.6718,40.0703 C14.8608,40.0703 16.6358,41.8453 16.6358,44.0343" id="Fill-10" fill="#FFFFFF"></path>
                <path d="M41.3797,44.1994 L0.6967,3.5304 C0.0167,2.8494 -0.2033,1.9664 0.2057,1.5564 C0.6157,1.1474 1.4987,1.3674 2.1787,2.0474 L43.0267,42.8804" id="Fill-12" fill="#111111"></path>
                <g id="Group-16" transform="translate(39.000000, 39.889300)">
                    <mask id="mask-4" fill="white">
                        <use xlink:href="#path-3"></use>
                    </mask>
                    <g id="Clip-15"></g>
                    <path d="M10.2103,5.9341 C10.2103,8.7321 7.9423,10.9991 5.1443,10.9991 C2.3473,10.9991 0.0793,8.7321 0.0793,5.9341 C0.0793,3.1361 2.3473,0.8691 5.1443,0.8691 C7.9423,0.8691 10.2103,3.1361 10.2103,5.9341" id="Fill-14" fill="#A0A0A0" mask="url(#mask-4)"></path>
                </g>
                <path d="M47.1141,45.8234 C47.1141,47.4634 45.7841,48.7934 44.1441,48.7934 C42.5051,48.7934 41.1751,47.4634 41.1751,45.8234 C41.1751,44.1834 42.5051,42.8534 44.1441,42.8534 C45.7841,42.8534 47.1141,44.1834 47.1141,45.8234" id="Fill-17" fill="#FFFFFF"></path>
                <path d="M30.511,28.9796 C30.511,30.6796 29.133,32.0586 27.431,32.0586 C25.731,32.0586 24.352,30.6796 24.352,28.9796 C24.352,27.2786 25.731,25.8996 27.431,25.8996 C29.133,25.8996 30.511,27.2786 30.511,28.9796" id="Fill-19" fill="#A0A0A0"></path>
            </g>
        </g>
    </g>
</svg>