<?xml version="1.0" encoding="UTF-8"?>
<svg width="199px" height="67px" viewBox="0 0 199 67" version="1.1" xmlns="http://www.w3.org/2000/svg" xmlns:xlink="http://www.w3.org/1999/xlink">
    <!-- Generator: Sketch 48.2 (47327) - http://www.bohemiancoding.com/sketch -->
    <title>app-store</title>
    <desc>Created with Sketch.</desc>
    <defs></defs>
    <g id="Page-1" stroke="none" stroke-width="1" fill="none" fill-rule="evenodd">
        <g id="app-store" fill-rule="nonzero">
            <path d="M182.85,0 L12.49,0 C11.3734737,0.0217632959 10.2602384,0.128740855 9.16,0.32 C8.06029298,0.505510824 6.99493249,0.856135797 6,1.36 C5.00373976,1.88106153 4.09591503,2.55602416 3.31,3.36 C2.52423615,4.13112989 1.86602581,5.02224542 1.36,6 C0.868977055,6.99678028 0.531817251,8.06220526 0.36,9.16 C0.153870377,10.2589912 0.0335076016,11.3723469 0,12.49 L0,53.92 C0.0142075734,55.0327485 0.114507018,56.1427291 0.3,57.24 C0.470910435,58.3380077 0.808112818,59.4035672 1.3,60.4 C1.81638477,61.3962169 2.49193536,62.3014547 3.3,63.08 C4.09184454,63.8598986 5.00336363,64.5080899 6,65 C6.99746276,65.4893226 8.06262524,65.8263993 9.16,66 C10.2612005,66.179689 11.3743155,66.2766269 12.49,66.29 L186.18,66.29 C187.292407,66.2774139 188.402257,66.1804692 189.5,66 C190.600184,65.8247524 191.668405,65.4877742 192.67,65 C193.665179,64.4819608 194.570164,63.8065993 195.35,63 C196.154012,62.2178902 196.829045,61.3133459 197.35,60.32 C197.841023,59.3232197 198.178183,58.2577947 198.35,57.16 C198.535599,56.0625623 198.639219,54.9528273 198.66,53.84 L198.66,52.31 L198.66,15.83 L198.66,14.02 L198.66,12.49 C198.639219,11.3771727 198.535599,10.2674377 198.35,9.17 C198.178183,8.07220526 197.841023,7.00678028 197.35,6.01 C196.324333,4.01192344 194.698077,2.38566696 192.7,1.36 C191.698734,0.871402128 190.630387,0.534384433 189.53,0.36 C188.424375,0.153199607 187.30432,0.0328355519 186.18,7.21422921e-15 L184.65,7.21422921e-15 L182.85,0 Z" id="Shape" fill="#000000"></path>
            <path d="M14,65 L12.5,65 C11.4614224,64.9865681 10.4252614,64.8963218 9.4,64.73 C8.44320894,64.5649953 7.51635784,64.2582919 6.65,63.82 C5.79123865,63.3844037 5.00794634,62.8138157 4.33,62.13 C3.64390586,61.4540137 3.0730321,60.670329 2.64,59.81 C2.19894484,58.9253417 1.89866462,57.977266 1.75,57 C1.57815634,55.9719054 1.48455443,54.9322557 1.47,53.89 L1.47,14 L1.47,12.51 C1.48097861,11.4679852 1.57123922,10.4283167 1.74,9.4 C1.89775066,8.43954895 2.20124906,7.50882053 2.64,6.64 C3.08017704,5.79042938 3.65417906,5.01721489 4.34,4.35 C5.02289116,3.66486198 5.80913429,3.0912082 6.67,2.65 C7.53321033,2.21472255 8.45681328,1.91134932 9.41,1.75 C10.4384864,1.58259748 11.4780521,1.4923458 12.52,1.48 L186.16,1.48 C187.195329,1.49206556 188.228268,1.58232235 189.25,1.75 C190.213328,1.91438592 191.146865,2.22107147 192.02,2.66 C193.73673,3.54509788 195.134902,4.94326986 196.02,6.66 C196.453228,7.52319125 196.753294,8.44698959 196.91,9.4 C197.082662,10.4348918 197.179586,11.4810022 197.2,12.53 L197.2,53.91 C197.181991,54.942126 197.088408,55.9715467 196.92,56.99 C196.763699,57.9539929 196.460155,58.8882342 196.02,59.76 C195.581151,60.6107865 195.010804,61.3869981 194.33,62.06 C193.652799,62.7473708 192.869465,63.3213654 192.01,63.76 C191.137613,64.2007378 190.203798,64.5075145 189.24,64.67 C188.214848,64.8372026 187.178622,64.9274546 186.14,64.94 L14,64.94 L14,65 Z" id="Shape" fill="#FFFFFF"></path>
            <g id="Group" transform="translate(15.000000, 13.000000)" fill="#000000">
                <path d="M26.5,20 C26.5367599,17.0700319 28.0731084,14.3634917 30.57,12.83 C28.9893831,10.5704516 26.4361077,9.18819947 23.68,9.1 C20.78,8.8 17.97,10.83 16.49,10.83 C15.01,10.83 12.71,9.13 10.26,9.18 C7.0381975,9.28567676 4.1078972,11.0734636 2.54,13.89 C-0.8,19.67 1.69,28.17 4.89,32.84 C6.49,35.13 8.36,37.68 10.81,37.59 C13.26,37.5 14.1,36.09 17,36.09 C19.9,36.09 20.7,37.62 23.2,37.56 C25.7,37.5 27.39,35.26 28.93,32.95 C30.0792762,31.3191865 30.9635229,29.5169434 31.55,27.61 C28.4898066,26.3192964 26.5003012,23.3212497 26.5,20 Z M21.78,6.05 C23.1731938,4.37429421 23.8615376,2.22321985 23.7,0.05 C21.5580296,0.275625623 19.5798366,1.30042957 18.16,2.92 C16.7490364,4.51071909 16.0293869,6.59770276 16.16,8.72 C18.3449847,8.74494783 20.4190675,7.75957396 21.78,6.05 Z" id="Shape"></path>
                <path d="M55.23,32.06 L47.37,32.06 L45.48,37.63 L42.16,37.63 L49.6,17 L53.06,17 L60.5,37.63 L57.12,37.63 L55.23,32.06 Z M48.23,29.49 L54.46,29.49 L51.39,20.49 L51.3,20.49 L48.23,29.49 Z M76.58,30.12 C76.58,34.79 74.08,37.79 70.31,37.79 C68.3598487,37.8911817 66.5231324,36.8699209 65.58,35.16 L65.5,35.16 L65.5,42.6 L62.42,42.6 L62.42,22.6 L65.42,22.6 L65.42,25.1 L65.48,25.1 C66.463846,23.3977317 68.304933,22.3753327 70.27,22.44 C74.06,22.44 76.58,25.46 76.58,30.12 Z M73.41,30.12 C73.41,27.12 71.84,25.12 69.41,25.12 C66.98,25.12 65.47,27.12 65.47,30.12 C65.47,33.12 67.06,35.18 69.41,35.18 C71.76,35.18 73.41,33.19 73.41,30.12 Z M93.12,30.12 C93.12,34.79 90.62,37.79 86.85,37.79 C84.8998487,37.8911817 83.0631324,36.8699209 82.12,35.16 L82,35.16 L82,42.6 L79,42.6 L79,22.6 L82,22.6 L82,25.1 C82.983846,23.3977317 84.824933,22.3753327 86.79,22.44 C90.61,22.44 93.12,25.46 93.12,30.12 Z M89.95,30.12 C89.95,27.12 88.38,25.12 85.95,25.12 C83.52,25.12 82.01,27.12 82.01,30.12 C82.01,33.12 83.6,35.18 85.95,35.18 C88.3,35.18 89.95,33.19 89.95,30.12 Z M104.05,31.89 C104.28,33.89 106.26,35.28 108.98,35.28 C111.7,35.28 113.45,33.94 113.45,32.09 C113.45,30.49 112.32,29.53 109.65,28.87 L107,28.23 C103.21,27.32 101.46,25.55 101.46,22.67 C101.46,19.11 104.56,16.67 108.96,16.67 C113.36,16.67 116.3,19.11 116.41,22.67 L113.3,22.67 C113.11,20.61 111.41,19.37 108.93,19.37 C106.45,19.37 104.74,20.63 104.74,22.46 C104.74,23.92 105.83,24.78 108.48,25.46 L110.75,26.02 C114.98,27.02 116.75,28.72 116.75,31.74 C116.75,35.6 113.68,38.01 108.75,38.01 C104.18,38.01 101.09,35.65 100.89,31.92 L104.05,31.89 Z M123.37,19 L123.37,22.6 L126.23,22.6 L126.23,25 L123.37,25 L123.37,33.29 C123.37,34.58 123.94,35.18 125.2,35.18 C125.534322,35.1740256 125.868106,35.1506607 126.2,35.11 L126.2,37.54 C125.636208,37.6444261 125.063269,37.6913333 124.49,37.68 C121.49,37.68 120.26,36.54 120.26,33.62 L120.26,25 L118.07,25 L118.07,22.6 L120.26,22.6 L120.26,19 L123.37,19 Z M127.89,30.12 C127.89,25.39 130.68,22.42 135.02,22.42 C139.36,22.42 142.15,25.42 142.15,30.12 C142.15,34.82 139.39,37.82 135.02,37.82 C130.65,37.82 127.89,34.86 127.89,30.12 Z M139.01,30.12 C139.01,26.88 137.52,24.96 135.01,24.96 C132.5,24.96 131.01,26.89 131.01,30.12 C131.01,33.35 132.5,35.28 135.01,35.28 C137.52,35.28 139,33.37 139,30.12 L139.01,30.12 Z M144.69,22.6 L147.63,22.6 L147.63,25.16 L147.7,25.16 C148.110661,23.5107288 149.621598,22.3754394 151.32,22.44 C151.676714,22.4401555 152.032279,22.4804083 152.38,22.56 L152.38,25.45 C151.930153,25.311177 151.460601,25.2469936 150.99,25.26 C148.99,25.26 147.77,26.6 147.77,28.72 L147.77,37.64 L144.68,37.64 L144.69,22.6 Z M166.6,33.22 C166.18,35.95 163.53,37.82 160.13,37.82 C155.76,37.82 153.04,34.89 153.04,30.19 C153.04,25.49 155.77,22.42 160.04,22.42 C164.31,22.42 166.81,25.28 166.81,29.83 L166.81,30.89 L156.16,30.89 L156.16,31.08 C156.059645,32.192024 156.439486,33.2939034 157.203772,34.1078671 C157.968057,34.9218308 159.043866,35.3702196 160.16,35.34 C161.655812,35.4805848 163.066562,34.6227511 163.63,33.23 L166.6,33.22 Z M156.169987,28.73 L163.68,28.73 C163.738819,27.7244457 163.374845,26.7400455 162.676012,26.0146269 C161.97718,25.2892083 161.007049,24.8887496 160,24.91 C158.984329,24.9046648 158.00857,25.3050928 157.289434,26.0223512 C156.570298,26.7396096 156.16732,27.7143184 156.169987,28.73 Z" id="Shape"></path>
            </g>
            <path d="M62.8,14.5 C65.74,14.5 67.46,16.31 67.46,19.42 C67.46,22.53 65.75,24.42 62.8,24.42 L59.22,24.42 L59.22,14.5 L62.8,14.5 Z M60.8,23.01 L62.67,23.01 C64.74,23.01 65.94,21.72 65.94,19.45 C65.94,17.18 64.73,15.91 62.67,15.91 L60.76,15.91 L60.8,23.01 Z M69.2,20.66 C69.2,18.25 70.55,16.78 72.73,16.78 C74.91,16.78 76.25,18.25 76.25,20.66 C76.25,23.07 74.91,24.55 72.73,24.55 C70.55,24.55 69.2,23.08 69.2,20.66 Z M74.73,20.66 C74.73,19.04 74,18.09 72.73,18.09 C71.46,18.09 70.73,19.04 70.73,20.66 C70.73,22.28 71.45,23.23 72.73,23.23 C74.01,23.23 74.73,22.29 74.73,20.66 Z M85.62,24.4 L84.09,24.4 L82.55,18.9 L82.43,18.9 L80.89,24.4 L79.38,24.4 L77.32,16.92 L78.82,16.92 L80.16,22.62 L80.27,22.62 L81.81,16.92 L83.23,16.92 L84.77,22.62 L84.89,22.62 L86.22,16.92 L87.7,16.92 L85.62,24.4 Z M89.41,16.93 L90.83,16.93 L90.83,18.12 L90.94,18.12 C91.3243821,17.2471253 92.2193224,16.7133717 93.17,16.79 C94.84,16.79 95.76,17.79 95.76,19.57 L95.76,24.4 L94.28,24.4 L94.28,19.93 C94.28,18.73 93.76,18.13 92.67,18.13 C92.1736125,18.1045041 91.6906953,18.2962501 91.346998,18.6553082 C91.0033007,19.0143663 90.8328388,19.5052007 90.88,20 L90.88,24.4 L89.41,24.4 L89.41,16.93 Z M98.11,14 L99.59,14 L99.59,24.4 L98.11,24.4 L98.11,14 Z M101.64,20.66 C101.64,18.25 102.99,16.78 105.17,16.78 C107.35,16.78 108.69,18.25 108.69,20.66 C108.69,23.07 107.35,24.55 105.17,24.55 C102.99,24.55 101.64,23.08 101.64,20.66 Z M107.17,20.66 C107.17,19.04 106.44,18.09 105.17,18.09 C103.9,18.09 103.17,19.04 103.17,20.66 C103.17,22.28 103.89,23.23 105.17,23.23 C106.45,23.23 107.17,22.29 107.17,20.66 Z M110.24,22.29 C110.24,20.94 111.24,20.17 113.02,20.06 L115.02,19.94 L115.02,19.29 C115.02,18.5 114.5,18.05 113.49,18.05 C112.67,18.05 112.1,18.35 111.93,18.88 L110.5,18.88 C110.65,17.6 111.86,16.77 113.55,16.77 C115.42,16.77 116.48,17.7 116.48,19.28 L116.48,24.4 L115.06,24.4 L115.06,23.35 L115,23.35 C114.515179,24.1164648 113.655895,24.5632928 112.75,24.52 C112.113813,24.5908257 111.477433,24.3885451 110.998898,23.9633928 C110.520363,23.5382405 110.244567,22.9301008 110.24,22.29 Z M115.05,21.65 L115.05,21 L113.22,21.12 C112.22,21.19 111.72,21.54 111.72,22.2 C111.72,22.86 112.3,23.26 113.11,23.26 C114.075689,23.3348241 114.920345,22.6153027 115,21.65 L115.05,21.65 Z M118.45,20.66 C118.45,18.3 119.66,16.8 121.55,16.8 C122.50274,16.7558182 123.395159,17.2663286 123.84,18.11 L124,18.11 L124,14 L125.48,14 L125.48,24.4 L124,24.4 L124,23.22 L123.88,23.22 C123.400063,24.0573332 122.494362,24.5583593 121.53,24.52 C119.66,24.52 118.45,23 118.45,20.66 Z M119.97,20.66 C119.97,22.25 120.72,23.2 121.97,23.2 C123.22,23.2 123.97,22.2 123.97,20.67 C123.97,19.14 123.19,18.13 121.97,18.13 C120.75,18.13 120,19.09 120,20.66 L119.97,20.66 Z M131.54,20.66 C131.54,18.25 132.89,16.78 135.07,16.78 C137.25,16.78 138.59,18.25 138.59,20.66 C138.59,23.07 137.25,24.55 135.07,24.55 C132.89,24.55 131.54,23.08 131.54,20.66 Z M137.07,20.66 C137.07,19.04 136.34,18.09 135.07,18.09 C133.8,18.09 133.07,19.04 133.07,20.66 C133.07,22.28 133.79,23.23 135.07,23.23 C136.35,23.23 137.07,22.29 137.07,20.66 Z M140.57,16.93 L142,16.93 L142,18.12 L142.11,18.12 C142.494382,17.2471253 143.389322,16.7133717 144.34,16.79 C146.01,16.79 146.93,17.79 146.93,19.57 L146.93,24.4 L145.45,24.4 L145.45,19.93 C145.45,18.73 144.93,18.13 143.84,18.13 C143.335214,18.089119 142.838273,18.2740935 142.483074,18.6350837 C142.127875,18.9960739 141.950961,19.4959411 142,20 L142,24.4 L140.52,24.4 L140.57,16.93 Z M155.26,15.06 L155.26,17 L156.88,17 L156.88,18.2 L155.26,18.2 L155.26,22 C155.26,22.78 155.58,23.13 156.32,23.13 C156.506516,23.1406103 156.693484,23.1406103 156.88,23.13 L156.88,24.36 C156.616014,24.4088073 156.348424,24.4355663 156.08,24.44 C154.44,24.44 153.79,23.86 153.79,22.44 L153.79,18.2 L152.6,18.2 L152.6,17 L153.79,17 L153.79,15.1 L155.26,15.06 Z M158.89,14 L160.35,14 L160.35,18.12 L160.47,18.12 C160.871543,17.2373694 161.783515,16.7013857 162.75,16.78 C163.482746,16.7404091 164.194909,17.030006 164.692078,17.5697344 C165.189247,18.1094628 165.419507,18.8429634 165.32,19.57 L165.32,24.4 L163.84,24.4 L163.84,19.94 C163.84,18.75 163.28,18.14 162.24,18.14 C161.726531,18.0997056 161.221385,18.2876485 160.859123,18.6537639 C160.496862,19.0198792 160.314274,19.5269864 160.36,20.04 L160.36,24.4 L158.88,24.4 L158.89,14 Z M173.93,22.38 C173.527484,23.798327 172.154039,24.7139573 170.69,24.54 C168.55,24.54 167.24,23.07 167.24,20.68 C167.24,18.29 168.58,16.77 170.69,16.77 C172.8,16.77 174,18.2 174,20.55 L174,21.06 L168.72,21.06 L168.72,21.14 C168.681106,21.6942436 168.874521,22.2396886 169.253892,22.6456153 C169.633262,23.0515421 170.164395,23.281363 170.72,23.28 C171.443225,23.3671163 172.147106,23.0072672 172.5,22.37 L173.93,22.38 Z M168.74,20 L172.52,20 C172.578423,19.4801901 172.407837,18.9606764 172.052642,18.5766816 C171.697446,18.1926868 171.19278,17.982197 170.67,18 C170.143988,17.9939057 169.638749,18.2050269 169.27346,18.5835643 C168.908172,18.9621016 168.715177,19.4745382 168.74,20 Z" id="Shape" fill="#000000"></path>
        </g>
    </g>
</svg>