<?xml version="1.0" encoding="utf-8"?>
<svg version="1.1" id="Layer_1" xmlns="http://www.w3.org/2000/svg" xmlns:xlink="http://www.w3.org/1999/xlink" x="0px" y="0px"
	 viewBox="0 0 50 50" enable-background="new 0 0 50 50" xml:space="preserve">
<g>
	<path fill="#BDCCD4" d="M47.2,4.2v33.6H30.8l-6,8l-7-8h-15V4.2H47.2 M47.2,2.2H2.8c-1.1,0-2,0.9-2,2v33.6c0,1.1,0.9,2,2,2h14.1
		l6.4,7.3c0.4,0.4,0.9,0.7,1.5,0.7c0,0,0.1,0,0.1,0c0.6,0,1.2-0.3,1.5-0.8l5.4-7.2h15.4c1.1,0,2-0.9,2-2V4.2
		C49.2,3.1,48.3,2.2,47.2,2.2L47.2,2.2z"/>
	<path fill="#BDCCD4" d="M38.7,18.5H11.3c-0.6,0-1-0.4-1-1s0.4-1,1-1h27.3c0.6,0,1,0.4,1,1S39.2,18.5,38.7,18.5z"/>
	<path fill="#BDCCD4" d="M34.2,25.5H15.8c-0.6,0-1-0.4-1-1s0.4-1,1-1h18.5c0.6,0,1,0.4,1,1S34.8,25.5,34.2,25.5z"/>
</g>
</svg>
