<svg width="268" height="78" viewBox="0 0 268 78" xmlns="http://www.w3.org/2000/svg"><title>download-maven</title><g fill-rule="nonzero" fill="none"><path d="M267.06 69.54c0 4.23-3.42 7.66-7.66 7.66H8.46c-4.24 0-7.68-3.43-7.68-7.66V8.44C.78 4.22 4.22.78 8.46.78H259.4c4.24 0 7.66 3.44 7.66 7.67v61.1-.01z" fill="#000"/><path d="M59.26 38.57c-.06-6.45 5.27-9.58 5.52-9.73-3.02-4.4-7.7-5-9.35-5.06-3.94-.4-7.75 2.36-9.76 2.36-2.04 0-5.13-2.32-8.45-2.25-4.28.06-8.3 2.54-10.48 6.38-4.54 7.85-1.16 19.38 3.2 25.72 2.16 3.1 4.7 6.58 8.02 6.45 3.25-.13 4.46-2.07 8.38-2.07 3.9 0 5.03 2.07 8.42 2 3.5-.06 5.68-3.12 7.78-6.26 2.5-3.56 3.52-7.06 3.56-7.24-.1-.03-6.78-2.6-6.84-10.3zm-6.4-18.97c1.74-2.17 2.94-5.15 2.6-8.17-2.52.12-5.7 1.75-7.5 3.9-1.62 1.88-3.06 4.96-2.7 7.87 2.85.2 5.77-1.44 7.6-3.6zM106.3 62h-4.55l-2.5-7.8h-8.64L88.25 62h-4.42l8.57-26.6h5.28l8.6 26.6h.02zm-7.8-11.1l-2.24-6.94c-.24-.7-.68-2.38-1.34-5h-.08c-.26 1.12-.7 2.8-1.27 5l-2.2 6.95h7.14l-.01-.01zm29.82 1.28c0 3.26-.88 5.84-2.64 7.73-1.58 1.7-3.54 2.54-5.9 2.54-2.5 0-4.33-.9-5.44-2.72h-.08v10.1H110v-20.7c0-2.04-.05-4.14-.16-6.3h3.75l.23 3.04h.08c1.43-2.3 3.6-3.44 6.5-3.44 2.25 0 4.14.9 5.65 2.7 1.52 1.78 2.27 4.13 2.27 7.06v-.01zm-4.34.15c0-1.87-.42-3.4-1.26-4.62-.93-1.25-2.16-1.88-3.72-1.88-1.05 0-2 .35-2.86 1.04-.85.7-1.4 1.62-1.68 2.75-.13.54-.2.97-.2 1.3v3.2c0 1.4.43 2.58 1.3 3.54.85.97 1.96 1.45 3.33 1.45 1.6 0 2.84-.63 3.74-1.87.9-1.24 1.34-2.87 1.34-4.9l.01-.01zm26.42-.15c0 3.26-.88 5.84-2.65 7.73-1.58 1.7-3.54 2.54-5.88 2.54-2.53 0-4.35-.9-5.45-2.72h-.08v10.1h-4.26v-20.7c0-2.04-.06-4.14-.16-6.3h3.75l.24 3.04h.1c1.4-2.3 3.56-3.44 6.46-3.44 2.26 0 4.15.9 5.67 2.7 1.5 1.78 2.27 4.13 2.27 7.06l-.01-.01zm-4.35.15c0-1.87-.42-3.4-1.26-4.62-.93-1.25-2.17-1.88-3.72-1.88-1.06 0-2 .35-2.87 1.04-.84.7-1.4 1.62-1.66 2.75-.13.54-.2.97-.2 1.3v3.2c0 1.4.43 2.58 1.28 3.54.86.96 1.97 1.45 3.34 1.45 1.6 0 2.86-.63 3.75-1.87.9-1.24 1.35-2.87 1.35-4.9l-.01-.01zm29.03 2.21c0 2.27-.8 4.1-2.37 5.53-1.72 1.56-4.13 2.33-7.24 2.33-2.86 0-5.16-.55-6.9-1.66l1-3.55c1.87 1.12 3.92 1.7 6.16 1.7 1.6 0 2.85-.37 3.75-1.1.9-.72 1.34-1.7 1.34-2.9 0-1.1-.36-2-1.1-2.73-.73-.74-1.95-1.43-3.67-2.06-4.66-1.73-6.98-4.28-6.98-7.62 0-2.2.8-4 2.45-5.38 1.62-1.4 3.8-2.1 6.5-2.1 2.43 0 4.45.42 6.05 1.27L173 39.74c-1.5-.8-3.2-1.22-5.1-1.22-1.5 0-2.68.37-3.52 1.1-.7.66-1.07 1.46-1.07 2.4 0 1.07.42 1.94 1.24 2.62.7.63 2 1.32 3.87 2.05 2.3.92 3.98 2 5.06 3.23 1.08 1.23 1.62 2.77 1.62 4.6l-.02.02zm14.1-8.52h-4.7v9.3c0 2.38.82 3.57 2.48 3.57.77 0 1.4-.08 1.9-.2l.12 3.23c-.84.3-1.95.47-3.32.47-1.68 0-3-.5-3.95-1.54-.94-1.03-1.4-2.75-1.4-5.17V46h-2.8v-3.2h2.8v-3.5l4.18-1.27v4.78h4.7v3.22l-.01-.01zm21.2 6.23c0 2.95-.84 5.38-2.53 7.27-1.76 1.95-4.1 2.92-7.03 2.92-2.8 0-5.06-.93-6.73-2.8-1.68-1.87-2.52-4.23-2.52-7.07 0-2.97.86-5.4 2.6-7.3 1.7-1.9 4.04-2.85 6.96-2.85 2.8 0 5.08.94 6.8 2.8 1.63 1.82 2.44 4.16 2.44 7.03h.01zm-4.42.14c0-1.78-.38-3.3-1.15-4.56-.88-1.53-2.16-2.3-3.8-2.3-1.73 0-3.03.77-3.92 2.3-.77 1.27-1.15 2.8-1.15 4.63 0 1.77.38 3.3 1.15 4.55.92 1.54 2.2 2.3 3.87 2.3 1.63 0 2.9-.78 3.83-2.34.78-1.3 1.18-2.82 1.18-4.6l-.01.02zm18.28-5.82c-.42-.08-.87-.12-1.34-.12-1.5 0-2.66.56-3.48 1.7-.7 1-1.06 2.26-1.06 3.8V62h-4.27l.03-13.14c0-2.2-.05-4.23-.16-6.04h3.72l.14 3.67h.12c.45-1.27 1.16-2.3 2.13-3.05.94-.7 1.97-1.03 3.08-1.03.4 0 .75.03 1.06.08v4.07l.03.01zm19.06 4.93c0 .77-.04 1.4-.14 1.94h-12.8c.05 1.9.67 3.34 1.86 4.34 1.08.9 2.47 1.35 4.18 1.35 1.9 0 3.63-.3 5.18-.9l.67 2.95c-1.82.8-3.96 1.18-6.44 1.18-2.96 0-5.3-.87-7-2.62-1.7-1.75-2.54-4.1-2.54-7.05 0-2.9.8-5.3 2.37-7.24 1.65-2.05 3.9-3.07 6.7-3.07 2.77 0 4.87 1 6.3 3.06 1.12 1.63 1.68 3.65 1.68 6.04l-.02.02zm-4.05-1.1c.02-1.27-.25-2.36-.83-3.28-.74-1.2-1.87-1.78-3.4-1.78-1.4 0-2.53.58-3.4 1.74-.7.92-1.13 2.03-1.26 3.32h8.9-.01zM97.1 19.02c0 2.35-.7 4.12-2.12 5.3-1.3 1.1-3.16 1.66-5.56 1.66-1.2 0-2.2-.05-3.07-.15V12.96c1.12-.18 2.32-.27 3.6-.27 2.3 0 4.03.5 5.2 1.5 1.3 1.1 1.95 2.72 1.95 4.82v.01zm-2.2.06c0-1.53-.4-2.7-1.22-3.52-.8-.8-2-1.22-3.54-1.22-.66 0-1.23.05-1.7.14v9.78c.27.04.74.05 1.42.05 1.6 0 2.85-.43 3.72-1.32.87-.9 1.3-2.2 1.3-3.9l.02-.01zm13.92 1.99c0 1.45-.42 2.64-1.24 3.57-.87.96-2.02 1.44-3.46 1.44-1.38 0-2.48-.46-3.3-1.38-.83-.92-1.24-2.07-1.24-3.47 0-1.46.43-2.66 1.27-3.6.85-.92 2-1.38 3.43-1.38 1.38 0 2.5.45 3.34 1.37.8.9 1.2 2.05 1.2 3.45zm-2.18.07c0-.87-.18-1.6-.56-2.24-.44-.75-1.06-1.12-1.88-1.12-.84 0-1.48.37-1.92 1.12-.38.63-.56 1.38-.56 2.28 0 .87.2 1.62.56 2.24.45.75 1.1 1.13 1.9 1.13.8 0 1.43-.4 1.88-1.15.4-.64.58-1.4.58-2.26zm17.89-4.7l-2.95 9.43h-1.92l-1.22-4.1c-.3-1.02-.56-2.04-.76-3.04h-.04c-.18 1.03-.43 2.05-.76 3.04l-1.3 4.1h-1.94l-2.77-9.43h2.15l1.07 4.48c.25 1.06.46 2.07.63 3.03h.04c.15-.8.4-1.8.78-3l1.33-4.5h1.7l1.3 4.4c.3 1.07.56 2.1.75 3.1h.06c.13-.97.34-2 .63-3.1l1.14-4.4h2.06l.02-.01zm10.87 9.43h-2.1v-5.4c0-1.67-.63-2.5-1.9-2.5-.62 0-1.12.23-1.5.7-.4.44-.6.98-.6 1.6v5.6h-2.1v-6.74c0-.83-.02-1.72-.07-2.7h1.84l.1 1.48h.06c.24-.45.6-.83 1.1-1.13.55-.35 1.2-.53 1.9-.53.87 0 1.6.28 2.18.85.73.7 1.1 1.73 1.1 3.12v5.65h-.01zm5.78 0h-2.1V12.1h2.1v13.77zm12.34-4.8c0 1.45-.42 2.64-1.25 3.57-.86.96-2.02 1.44-3.45 1.44-1.4 0-2.5-.46-3.3-1.38-.83-.92-1.24-2.07-1.24-3.47 0-1.46.42-2.66 1.27-3.6.85-.92 2-1.38 3.42-1.38 1.4 0 2.5.45 3.34 1.37.8.9 1.22 2.05 1.22 3.45h-.01zm-2.18.07c0-.87-.2-1.6-.56-2.24-.44-.75-1.07-1.12-1.88-1.12-.84 0-1.48.37-1.92 1.12-.38.63-.56 1.38-.56 2.28 0 .87.18 1.62.56 2.24.45.75 1.08 1.13 1.9 1.13.8 0 1.43-.4 1.88-1.15.4-.64.58-1.4.58-2.26zm12.32 4.73h-1.88l-.16-1.1h-.06c-.64.88-1.56 1.3-2.75 1.3-.88 0-1.6-.28-2.14-.84-.5-.52-.74-1.16-.74-1.92 0-1.15.48-2.02 1.45-2.63.96-.6 2.32-.9 4.06-.9v-.17c0-1.24-.65-1.86-1.96-1.86-.93 0-1.75.23-2.45.7l-.43-1.38c.87-.54 1.95-.8 3.22-.8 2.47 0 3.7 1.3 3.7 3.9v3.46c0 .94.05 1.7.14 2.25v-.01zm-2.18-3.24v-1.46c-2.3-.04-3.46.6-3.46 1.9 0 .5.13.86.4 1.1.27.25.6.38 1.02.38.46 0 .9-.15 1.28-.44.49-.327.775-.882.76-1.47v-.01zm14.09 3.24h-1.86l-.1-1.52h-.05c-.6 1.15-1.6 1.73-3.02 1.73-1.14 0-2.1-.45-2.84-1.34-.76-.9-1.13-2.05-1.13-3.47 0-1.53.4-2.76 1.22-3.7.78-.9 1.75-1.33 2.9-1.33 1.27 0 2.15.43 2.66 1.28h.04v-5.4h2.1v11.2c0 .92.02 1.77.07 2.55h.01zm-2.17-3.98V20.3c0-.27-.02-.5-.06-.66-.12-.5-.37-.93-.76-1.27-.4-.35-.86-.53-1.4-.53-.78 0-1.4.3-1.84.94-.45.63-.68 1.42-.68 2.4 0 .92.22 1.68.65 2.26.46.62 1.07.93 1.84.93.7 0 1.24-.27 1.66-.78.4-.48.6-1.06.6-1.73l-.01.03zm20.1-.82c0 1.45-.42 2.64-1.25 3.57-.86.96-2 1.44-3.45 1.44-1.38 0-2.48-.46-3.3-1.38-.83-.92-1.24-2.07-1.24-3.47 0-1.46.42-2.66 1.27-3.6.85-.92 2-1.38 3.43-1.38 1.38 0 2.5.45 3.33 1.37.8.9 1.2 2.05 1.2 3.45h.01zm-2.18.07c0-.87-.18-1.6-.56-2.24-.44-.75-1.06-1.12-1.88-1.12-.84 0-1.48.37-1.92 1.12-.38.63-.56 1.38-.56 2.28 0 .87.18 1.62.56 2.24.45.75 1.08 1.13 1.9 1.13.8 0 1.43-.4 1.88-1.15.4-.64.58-1.4.58-2.26zm13.45 4.73h-2.1v-5.4c0-1.67-.63-2.5-1.9-2.5-.62 0-1.12.23-1.5.7-.4.44-.6.98-.6 1.6v5.6h-2.1v-6.74c0-.83-.02-1.72-.07-2.7h1.84l.1 1.48h.06c.25-.45.6-.83 1.1-1.13.56-.35 1.2-.53 1.9-.53.87 0 1.6.28 2.18.85.73.7 1.1 1.73 1.1 3.12v5.65h-.01zm14.1-7.87h-2.3v4.6c0 1.15.4 1.73 1.22 1.73.36 0 .67-.03.92-.1l.05 1.6c-.4.15-.95.23-1.62.23-.83 0-1.48-.25-1.94-.76-.46-.5-.7-1.35-.7-2.54V18h-1.37v-1.56h1.38V14.7l2.06-.6v2.34h2.3V18zm11.1 7.87h-2.1V20.5c0-1.68-.63-2.53-1.9-2.53-.97 0-1.63.5-2 1.47-.06.2-.1.46-.1.75v5.66h-2.1V12.1h2.1v5.7h.04c.67-1.04 1.62-1.56 2.85-1.56.86 0 1.58.3 2.15.86.7.7 1.07 1.76 1.07 3.16v5.6l-.01.01zm11.43-5.17c0 .38 0 .7-.06.96h-6.3c.04.93.34 1.64.92 2.13.53.43 1.22.65 2.06.65.93 0 1.78-.15 2.54-.45l.33 1.46c-.9.4-1.96.58-3.18.58-1.46 0-2.6-.43-3.44-1.3-.83-.85-1.25-2-1.25-3.45 0-1.43.4-2.62 1.17-3.56.8-1 1.9-1.5 3.3-1.5 1.35 0 2.38.5 3.07 1.5.57.8.84 1.8.84 2.97v.01zm-2-.54c.03-.62-.1-1.15-.4-1.6-.36-.6-.9-.88-1.66-.88-.68 0-1.24.28-1.67.85-.35.46-.55 1-.62 1.63h4.36-.01z" fill="#FFF"/></g></svg>