<svg width="24" height="24" xmlns="http://www.w3.org/2000/svg"><g fill="#111" fill-rule="nonzero"><path d="M12 2.162c3.204 0 3.584.012 4.849.07 1.366.062 2.633.336 3.608 1.311.975.975 1.249 2.242 1.311 3.608.058 1.265.07 1.645.07 4.849s-.012 3.584-.07 4.849c-.062 1.366-.336 2.633-1.311 3.608-.975.975-2.242 1.249-3.608 1.311-1.265.058-1.645.07-4.849.07s-3.584-.012-4.849-.07c-1.365-.062-2.633-.336-3.608-1.311-.975-.975-1.249-2.242-1.311-3.608-.058-1.265-.07-1.645-.07-4.849s.012-3.584.07-4.849c.062-1.365.336-2.633 1.311-3.608.975-.975 2.242-1.249 3.608-1.311 1.265-.058 1.645-.07 4.849-.07zM12 0C8.741 0 8.332.013 7.052.072c-1.95.09-3.663.567-5.038 1.942C.639 3.389.16 5.1.072 7.052.014 8.332 0 8.742 0 12c0 3.259.013 3.668.072 4.948.09 1.95.567 3.663 1.942 5.038 1.375 1.375 3.087 1.853 5.038 1.942 1.28.058 1.69.072 4.948.072 3.259 0 3.668-.014 4.948-.072 1.95-.09 3.663-.567 5.038-1.942 1.375-1.375 1.853-3.088 1.942-5.038.058-1.28.072-1.69.072-4.948 0-3.259-.014-3.668-.072-4.948-.09-1.95-.567-3.663-1.942-5.038C20.611.639 18.898.16 16.948.072 15.668.014 15.258 0 12 0z"/><path d="M12 5.838a6.162 6.162 0 1 0 0 12.324 6.162 6.162 0 0 0 0-12.324zM12 16a4 4 0 1 1 0-8 4 4 0 0 1 0 8z"/><circle cx="18.406" cy="5.594" r="1.44"/></g></svg>