<svg xmlns="http://www.w3.org/2000/svg" width="51" height="50"><g fill="#111" fill-rule="evenodd"><path d="M25.333 47.85c-12.65 0-22.85-10.2-22.85-22.85 0-12.65 10.2-22.85 22.85-22.85 12.65 0 22.85 10.25 22.85 22.85 0 12.6-10.2 22.85-22.85 22.85m0-47.85c-13.8 0-25 11.2-25 25s11.2 25 25 25 25-11.2 25-25-11.2-25-25-25"/><path d="M25.83 13.05c-3.394 0-3.82.014-5.153.075-1.33.06-2.238.27-3.033.58a6.126 6.126 0 0 0-2.213 1.438 6.112 6.112 0 0 0-1.442 2.209c-.309.793-.52 1.7-.58 3.027-.061 1.33-.076 1.755-.076 5.142 0 3.387.015 3.812.076 5.142.06 1.327.271 2.234.58 3.027.32.82.747 1.516 1.442 2.209a6.127 6.127 0 0 0 2.213 1.438c.795.309 1.703.52 3.033.58 1.333.06 1.759.075 5.152.075 3.394 0 3.82-.014 5.152-.075 1.33-.06 2.239-.271 3.034-.58a6.127 6.127 0 0 0 2.213-1.438 6.111 6.111 0 0 0 1.441-2.209c.31-.793.52-1.7.581-3.027.061-1.33.075-1.755.075-5.142 0-3.387-.014-3.812-.075-5.142-.06-1.328-.272-2.234-.58-3.027a6.112 6.112 0 0 0-1.442-2.21 6.126 6.126 0 0 0-2.213-1.438c-.795-.308-1.703-.519-3.034-.58-1.332-.06-1.758-.074-5.152-.074m0 2.247c3.337 0 3.732.012 5.05.072 1.218.056 1.88.259 2.32.43.583.226 1 .496 1.437.933.437.436.708.851.935 1.434.17.44.374 1.1.43 2.315.06 1.315.073 1.71.073 5.04s-.013 3.724-.073 5.04c-.056 1.215-.26 1.876-.43 2.315a3.864 3.864 0 0 1-.935 1.434 3.872 3.872 0 0 1-1.437.933c-.44.17-1.102.374-2.32.43-1.318.06-1.713.072-5.05.072-3.336 0-3.732-.013-5.05-.073-1.217-.055-1.88-.258-2.32-.43a3.857 3.857 0 0 1-1.436-.932 3.864 3.864 0 0 1-.935-1.434c-.171-.44-.375-1.1-.43-2.316-.06-1.315-.073-1.71-.073-5.04s.013-3.724.073-5.039c.055-1.216.259-1.876.43-2.315.227-.583.497-.998.935-1.434a3.872 3.872 0 0 1 1.437-.933c.44-.171 1.102-.374 2.32-.43 1.318-.06 1.713-.072 5.05-.072"/><path d="M25.83 29.678a4.161 4.161 0 0 1-4.166-4.157 4.161 4.161 0 0 1 4.165-4.157c2.3 0 4.166 1.86 4.166 4.157a4.161 4.161 0 0 1-4.166 4.157m0-10.561c-3.544 0-6.417 2.867-6.417 6.404s2.873 6.404 6.417 6.404c3.544 0 6.417-2.867 6.417-6.404s-2.873-6.404-6.417-6.404M34 18.864c0 .826-.672 1.496-1.5 1.496s-1.5-.67-1.5-1.496c0-.827.672-1.497 1.5-1.497s1.5.67 1.5 1.497"/></g></svg>