<svg xmlns="http://www.w3.org/2000/svg" width="50" height="50" viewBox="0 0 50 50">
    <g fill="#333333" fill-rule="evenodd">
        <path d="M25 47.85C12.35 47.85 2.15 37.65 2.15 25 2.15 12.35 12.35 2.15 25 2.15 37.65 2.15 47.85 12.4 47.85 25c0 12.6-10.2 22.85-22.85 22.85M25 0C11.2 0 0 11.2 0 25s11.2 25 25 25 25-11.2 25-25S38.8 0 25 0"/>
        <path d="M17.501 15.202a2.501 2.501 0 0 1 0 5 2.501 2.501 0 1 1 0-5zm-2.157 20.774h4.313V22.1h-4.313v13.876zM22.362 22.1h4.136v1.896h.058c.576-1.091 1.983-2.241 4.08-2.241 4.368 0 5.174 2.874 5.174 6.61v7.61H31.5v-6.747c0-1.61-.03-3.68-2.24-3.68-2.245 0-2.59 1.754-2.59 3.564v6.864h-4.308V22.1z"/>
    </g>
</svg>
