<svg width="24" height="24" xmlns="http://www.w3.org/2000/svg"><path d="M23.025 0H.975A.993.993 0 0 0 0 .975V22.95c0 .6.45 1.05.975 1.05H22.95c.525 0 .975-.45.975-.975V.975C24 .45 23.55 0 23.025 0zm-15.9 20.475h-3.6V9h3.6v11.475zm-1.8-13.05c-1.125 0-2.1-.9-2.1-2.1 0-1.125.9-2.1 2.1-2.1 1.125 0 2.1.9 2.1 2.1 0 1.2-.975 2.1-2.1 2.1zm15.15 13.05H16.95v-5.55c0-1.35 0-3-1.875-3s-2.1 1.425-2.1 2.925v5.7H9.45V9h3.3v1.575h.075c.45-.9 1.65-1.875 3.375-1.875 3.6 0 4.275 2.4 4.275 5.475v6.3z" fill="#111" fill-rule="nonzero"/></svg>