<svg version="1.1" id="practitioner-icon" xmlns="http://www.w3.org/2000/svg" xmlns:xlink="http://www.w3.org/1999/xlink" x="0px" y="0px"
	 viewBox="0 0 50 50" enable-background="new 0 0 50 50" xml:space="preserve">
<path fill="#082F4E" d="M25,10.7"/>
<path fill="#082F4E" d="M38.4,10.7v22l-13.2,7.6l-13.4-7.6v-22H38.4 M38.4,8.7H11.7c-1.1,0-2,0.9-2,2v22c0,0.7,0.4,1.4,1,1.7
	l13.4,7.6c0.3,0.2,0.6,0.3,1,0.3c0.3,0,0.7-0.1,1-0.3l13.2-7.6c0.6-0.4,1-1,1-1.7v-22C40.4,9.6,39.5,8.7,38.4,8.7L38.4,8.7z"/>
<g>
	<path fill="#082F4E" d="M25,32.4c-1.1,0-2-0.9-2-2V16.8c0-1.1,0.9-2,2-2s2,0.9,2,2v13.6C27,31.5,26.2,32.4,25,32.4z"/>
	<path fill="#082F4E" d="M31.9,25.6H18.2c-1.1,0-2-0.9-2-2s0.9-2,2-2h13.6c1.1,0,2,0.9,2,2S33,25.6,31.9,25.6z"/>
</g>
</svg>
