<svg width="123" height="140" xmlns="http://www.w3.org/2000/svg" xmlns:xlink="http://www.w3.org/1999/xlink"><defs><path id="a" d="M0 138.651h122.87V.021H0z"/></defs><g fill="none" fill-rule="evenodd"><path fill="#E7F2ED" d="M1 58.04V138h122V58.04L62 44z"/><g transform="translate(0 1)"><path stroke="#231F20" d="M121.73 138.412H.574V57.497l60.578-14.208 60.578 14.208z"/><path d="M121.73 57.492H.574L44.956 7.616c2.458-2.762 5.536-4.94 9.029-6.153a21.783 21.783 0 0 1 7.15-1.206h.034c2.455 0 4.87.414 7.15 1.206 3.492 1.213 6.57 3.39 9.029 6.153l44.382 49.876z" fill="#00413E"/><path d="M121.73 57.492H.574L44.956 7.616c2.458-2.762 5.536-4.94 9.029-6.153a21.783 21.783 0 0 1 7.15-1.206h.034c2.455 0 4.87.414 7.15 1.206 3.492 1.213 6.57 3.39 9.029 6.153l44.382 49.876z" stroke="#231F20"/><mask id="b" fill="#fff"><use xlink:href="#a"/></mask><path fill="#F8F8F8" mask="url(#b)" d="M13.231 124.924h97.827V7.85H13.231z"/><path stroke="#231F20" mask="url(#b)" d="M13.231 124.924h97.827V7.85H13.231z"/><path fill="#00413E" mask="url(#b)" d="M121.73 138.412H.574V57.497l60.578 28.889 60.578-28.89z"/><path stroke="#231F20" mask="url(#b)" d="M121.73 138.412H.574V57.497l60.578 28.889 60.578-28.89z"/><path d="M.574 138.412l56.332-56.349a6.812 6.812 0 0 1 9.634 0l55.761 55.777-121.727.572z" fill="#00413E" mask="url(#b)"/><path d="M.574 138.412l56.332-56.349a6.812 6.812 0 0 1 9.634 0l55.761 55.777-121.727.572z" stroke="#231F20" mask="url(#b)"/><path d="M78.818 45.062c0 9.949-8.063 18.014-18.008 18.014-9.946 0-18.008-8.065-18.008-18.014 0-9.948 8.062-18.013 18.008-18.013 9.945 0 18.008 8.065 18.008 18.013" fill="#E7F2ED" mask="url(#b)"/><path d="M78.818 45.062c0 9.949-8.063 18.014-18.008 18.014-9.946 0-18.008-8.065-18.008-18.014 0-9.948 8.062-18.013 18.008-18.013 9.945 0 18.008 8.065 18.008 18.013z" stroke="#231F20" mask="url(#b)"/><path d="M56.772 42.333a1.502 1.502 0 1 1-3.005 0 1.502 1.502 0 0 1 3.005 0" fill="#000" mask="url(#b)"/><path d="M56.772 42.333a1.502 1.502 0 1 1-3.005 0 1.502 1.502 0 0 1 3.005 0z" stroke="#000" stroke-linecap="round" stroke-linejoin="round" mask="url(#b)"/><path d="M67.852 42.333a1.502 1.502 0 1 1-3.005 0 1.502 1.502 0 0 1 3.005 0" fill="#000" mask="url(#b)"/><path d="M67.852 42.333a1.502 1.502 0 1 1-3.005 0 1.502 1.502 0 0 1 3.005 0zM68.365 49.777c-1.583 2.43-4.395 4.16-7.51 4.16a8.865 8.865 0 0 1-7.6-4.295" stroke="#000" stroke-linecap="round" stroke-linejoin="round" mask="url(#b)"/></g></g></svg>