<svg width="24" height="19" xmlns="http://www.w3.org/2000/svg"><path d="M24 2.255c-.873.363-1.745.654-2.764.727 1.019-.582 1.746-1.527 2.11-2.618-.946.581-1.964.945-3.055 1.163C19.418.582 18.18 0 16.873 0c-2.618 0-4.8 2.11-4.8 4.8 0 .364.072.727.145 1.09-4-.217-7.49-2.108-9.89-5.017a4.577 4.577 0 0 0-.655 2.4c0 1.672.872 3.127 2.109 4-.8 0-1.527-.218-2.182-.582v.073c0 2.327 1.673 4.218 3.855 4.654-.437.073-.8.146-1.237.146-.29 0-.582 0-.873-.073.582 1.89 2.4 3.273 4.437 3.345-1.6 1.31-3.71 2.037-5.964 2.037-.363 0-.8 0-1.163-.073 2.181 1.31 4.727 2.11 7.418 2.11 8.8 0 13.6-7.274 13.6-13.6v-.583C22.545 4 23.345 3.2 24 2.255z" fill="#111" fill-rule="nonzero"/></svg>