<svg width="50" height="50" viewBox="0 0 50 50" xmlns="http://www.w3.org/2000/svg"><title>Shape</title><path d="M25 0C11.2 0 0 11.2 0 25s11.2 25 25 25 25-11.2 25-25S38.8 0 25 0zm0 47.85C12.35 47.85 2.15 37.65 2.15 25 2.15 12.35 12.35 2.15 25 2.15 37.65 2.15 47.85 12.4 47.85 25c0 12.6-10.2 22.85-22.85 22.85zM13.85 34c2.25 1.45 4.9 2.25 7.75 2.25 9.4 0 14.65-7.9 14.35-15 1-.7 1.85-1.6 2.5-2.6-.9.4-1.9.65-2.9.8a4.76 4.76 0 0 0 2.2-2.8c-1 .6-2.05 1-3.2 1.25-.9-1-2.25-1.6-3.7-1.6-3.25 0-5.65 3.05-4.9 6.2-4.2-.2-7.9-2.2-10.4-5.3-1.3 2.25-.7 5.25 1.55 6.75-.85-.05-1.6-.25-2.3-.65-.05 2.35 1.6 4.55 4.05 5-.7.2-1.5.25-2.3.1.65 2 2.5 3.45 4.7 3.5-2.05 1.65-4.7 2.4-7.4 2.1z" fill="#333" fill-rule="nonzero"/></svg>