<svg width="50" height="28" viewBox="0 0 267.87 145.21" xmlns="http://www.w3.org/2000/svg">
  <g data-name="Layer 2">
    <path d="M258 125.19a52.06 52.06 0 01-46-27.81 83.22 83.22 0 01-9.93 20.91A71.55 71.55 0 00258 145.21a10 10 0 000-20m-49.17-70.08a52.76 52.76 0 013.2-7.3A52 52 0 01258 20a10 10 0 000-20 71.53 71.53 0 00-55.9 26.93c-1.11 1.38-2.17 2.81-3.19 4.27s-2 3.08-3 4.67A72.64 72.64 0 00186 72.61a52.79 52.79 0 01-6.16 24.77 51.82 51.82 0 01-91.85 0 82.53 82.53 0 01-9.93 20.91 71.41 71.41 0 00111.71 0c1.12-1.38 2.17-2.81 3.18-4.27s2-3.08 3-4.68a72.69 72.69 0 009.91-36.73 52.93 52.93 0 013-17.48M9.92 20a52.08 52.08 0 0145.93 27.8 82.63 82.63 0 019.93-20.9A71.55 71.55 0 009.92 0a10 10 0 000 20m74.9 35.1A52.71 52.71 0 0188 47.83a51.83 51.83 0 0191.85 0 82.63 82.63 0 019.93-20.9 71.39 71.39 0 00-111.71 0c-1.07 1.38-2.15 2.81-3.17 4.27s-2 3.08-3 4.67A72.63 72.63 0 0062 72.61a52.76 52.76 0 01-3 17.48 53.26 53.26 0 01-3.19 7.29 52.09 52.09 0 01-45.89 27.81 10 10 0 000 20 71.57 71.57 0 0055.86-26.92c1.11-1.36 2.22-2.79 3.22-4.27s2-3.08 3-4.68a72.7 72.7 0 009.92-36.73 52.67 52.67 0 013-17.48" fill="#0b8470" data-name="Layer 1"/>
  </g>
</svg>