<svg width="40" height="51" xmlns="http://www.w3.org/2000/svg" xmlns:xlink="http://www.w3.org/1999/xlink"><defs><path id="a" d="M.12.295h6.896v3.422H.12z"/></defs><g fill="none" fill-rule="evenodd"><path fill="#B97965" d="M32.777 6H0v45h40V6z"/><path fill="#FFF" d="M34.865 8H38v41H2V8h3.114"/><path fill="#E7E7E7" d="M8 10h25V3H8z"/><g transform="translate(17)"><mask id="b" fill="#fff"><use xlink:href="#a"/></mask><path d="M.12 3.717C.12 1.827 1.664.295 3.568.295s3.448 1.532 3.448 3.422" fill="#E7E7E7" mask="url(#b)"/></g><path stroke="#000" stroke-width=".5" d="M29.977 30.152H9.836h10.07zM29.977 34.066H9.836h10.07zM29.977 37.98H9.836h10.07zM29.977 41.894H9.836h10.07z"/><path fill="#F4D1B9" d="M14.554 26.238H25.26v-12.86H14.554z"/><path d="M24.147 26.238c0-2.324-1.899-4.208-4.24-4.208-2.343 0-4.242 1.884-4.242 4.208h8.482z" fill="#CFE6DC"/><path d="M21.876 19.965c0 1.08-.882 1.956-1.97 1.956a1.963 1.963 0 0 1-1.97-1.956c0-1.08.882-1.954 1.97-1.954s1.97.875 1.97 1.954" fill="#F5FAF8"/></g></svg>