<svg width="45" height="52" xmlns="http://www.w3.org/2000/svg" xmlns:xlink="http://www.w3.org/1999/xlink"><defs><path id="a" d="M0 .083h44.584v23.825H0z"/></defs><g fill="none" fill-rule="evenodd"><path d="M13.682 32.945c-.81-.151-1.707-.465-2.871-1.63-1.164-1.163-.494-.277-1.164-.08-.914.268-.867.049-1.129.376-.871 1.086-1.623-5.733-.537-7.363 1.086-1.63 1.069-.778 1.612-4.191.543-3.415-.985-3.06.645-7.095s2.9-5.004 5.074-8.108c2.172-3.104 5.729-3.231 5.729-3.231s-2.998 2.746-1.99 3.6c1.01.854 2.097 2.042 2.097 2.042s-4.129.848-4.983 3.021c-.853 2.173-2.095 3.104-2.017 6.053.078 2.948 1.009 4.734 1.63 7.139.62 2.406.853 2.483 1.397 4.967.542 2.483-.311 2.87.698 3.957 1.008 1.087-3.153.738-4.19.543" fill="#111"/><g transform="translate(0 27.61)"><mask id="b" fill="#fff"><use xlink:href="#a"/></mask><path d="M16.513.083C11.853 2.677 5.466 3.158 2.54 7.79A16.435 16.435 0 0 0 0 16.595v7.313h44.584v-7.313c0-3.42-1.04-6.17-2.82-8.805-2.967-4.392-8.326-4.523-13.692-7.707" fill="#BFE6EF" mask="url(#b)"/></g><path fill="#9E6350" d="M16.74 27.634l-3.062 1.397 8.732 12.872 4.202-6.106 4.062-6.14-3.1-1.567z"/><path d="M31.383 18.35c0 6.286-4.092 11.38-9.14 11.38-5.047 0-9.139-5.094-9.139-11.38 0-6.284 4.092-11.378 9.14-11.378 5.047 0 9.139 5.094 9.139 11.379" fill="#9E6350"/><path d="M18.944 5.385c.181.913 1.407 1.625 2.056 1.875 1.313.505 1.941.388 5.123 2.328 3.181 1.94 3.247 5.62 3.247 7.405 0 1.784-.65 3.244-.806 6.503-.155 3.259-1.51 3.396-1.82 4.715-.311 1.32.077 2.251.775 4.19.699 1.941.465 1.553.465 2.872 0 1.32 2.033.8 2.85.516.837-.29 3.514-.05 3.359-1.292-.156-1.241 2.328-.698 2.638-3.802.31-3.104-.078-3.414-.155-5.975-.077-2.561 1.32-1.63.233-4.346s-1.165-1.862-1.63-5.742c-.465-3.88-.225-3.059-2.483-7.45-1.007-1.96-1.276-2.388-3.156-4.485-2.861-3.186-5.634-2.9-7.74-2.364-2.223.563-2.736 1.762-2.956 3.01-.088.502-.099 1.54 0 2.042" fill="#111"/></g></svg>