<svg width="44" height="51" xmlns="http://www.w3.org/2000/svg" xmlns:xlink="http://www.w3.org/1999/xlink"><defs><path id="a" d="M.822.521h28.464V31.2H.822z"/><path d="M16.287.574C11.692 3.125 5.391 3.598 2.507 8.152A16.118 16.118 0 0 0 0 16.81V24h43.976v-7.19c0-3.363-1.025-6.067-2.781-8.658-2.928-4.319-8.213-4.448-13.507-7.578" id="c"/><path d="M16.287.574C11.692 3.125 5.391 3.598 2.507 8.152A16.118 16.118 0 0 0 0 16.81V24h43.976v-7.19c0-3.363-1.025-6.067-2.781-8.658-2.928-4.319-8.213-4.448-13.507-7.578h-11.4z" id="e"/><path d="M16.287.574C11.692 3.125 5.391 3.598 2.507 8.152A16.118 16.118 0 0 0 0 16.81V24h43.976v-7.19c0-3.363-1.025-6.067-2.781-8.658-2.928-4.319-8.213-4.448-13.507-7.578h-11.4z" id="g"/><path d="M16.287.574C11.692 3.125 5.391 3.598 2.507 8.152A16.118 16.118 0 0 0 0 16.81V24h43.976v-7.19c0-3.363-1.025-6.067-2.781-8.658-2.928-4.319-8.213-4.448-13.507-7.578" id="i"/><path d="M16.287.574C11.692 3.125 5.391 3.598 2.507 8.152A16.118 16.118 0 0 0 0 16.81V24h43.976v-7.19c0-3.363-1.025-6.067-2.781-8.658-2.928-4.319-8.213-4.448-13.507-7.578h-11.4z" id="k"/><path d="M16.287.574C11.692 3.125 5.391 3.598 2.507 8.152A16.118 16.118 0 0 0 0 16.81V24h43.976v-7.19c0-3.363-1.025-6.067-2.781-8.658-2.928-4.319-8.213-4.448-13.507-7.578" id="m"/><path d="M16.287.574C11.692 3.125 5.391 3.598 2.507 8.152A16.118 16.118 0 0 0 0 16.81V24h43.976v-7.19c0-3.363-1.025-6.067-2.781-8.658-2.928-4.319-8.213-4.448-13.507-7.578" id="o"/><path d="M16.287.574C11.692 3.125 5.391 3.598 2.507 8.152A16.118 16.118 0 0 0 0 16.81V24h43.976v-7.19c0-3.363-1.025-6.067-2.781-8.658-2.928-4.319-8.213-4.448-13.507-7.578" id="q"/></defs><g fill="none" fill-rule="evenodd"><g transform="translate(7)"><mask id="b" fill="#fff"><use xlink:href="#a"/></mask><path d="M.822 31.2V14.901C.822 6.96 7.194.521 15.054.521c7.86 0 14.232 6.44 14.232 14.381v16.201" fill="#51372A" mask="url(#b)"/></g><g transform="translate(0 27)"><mask id="d" fill="#fff"><use xlink:href="#c"/></mask><path d="M16.287.573C11.692 3.125 5.392 3.597 2.507 8.152A16.125 16.125 0 0 0 0 16.81V24h43.977v-7.19c0-3.363-1.027-6.067-2.782-8.658-2.928-4.32-8.214-4.448-13.507-7.579" fill="#CFE6DC" mask="url(#d)"/></g><g transform="translate(0 27)"><mask id="f" fill="#fff"><use xlink:href="#e"/></mask><path fill="#DCB689" mask="url(#f)" d="M17.523-.142L13.06 2.111 22.1 17.14l8.546-15.068-5.49-2.954z"/></g><g transform="translate(0 27)"><mask id="h" fill="#fff"><use xlink:href="#g"/></mask><path fill="#FFF" mask="url(#h)" d="M16.753 8.604l5.3 8.859 4.87-8.831z"/></g><g transform="translate(0 27)"><mask id="j" fill="#fff"><use xlink:href="#i"/></mask><path d="M35.056 13.176a2.943 2.943 0 0 1-2.947 2.938 2.943 2.943 0 0 1-2.947-2.938 2.943 2.943 0 0 1 2.947-2.938 2.943 2.943 0 0 1 2.947 2.938" fill="#999" mask="url(#j)"/></g><g transform="translate(0 27)"><mask id="l" fill="#fff"><use xlink:href="#k"/></mask><path d="M35.056 13.176a2.943 2.943 0 0 1-2.947 2.938 2.943 2.943 0 0 1-2.947-2.938 2.943 2.943 0 0 1 2.947-2.938 2.943 2.943 0 0 1 2.947 2.938z" stroke="#000" mask="url(#l)"/></g><g transform="translate(0 27)"><mask id="n" fill="#fff"><use xlink:href="#m"/></mask><path d="M32.11 1.988v8.172" stroke="#000" mask="url(#n)"/></g><g transform="translate(0 27)"><mask id="p" fill="#fff"><use xlink:href="#o"/></mask><path d="M11.79 1.678v8.018" stroke="#000" mask="url(#p)"/></g><g transform="translate(0 27)"><mask id="r" fill="#fff"><use xlink:href="#q"/></mask><path d="M9.25 14.954H6.514c0-2.904 2.362-5.258 5.275-5.258 2.911 0 5.273 2.354 5.273 5.258h-2.52" stroke="#000" mask="url(#r)"/></g><g><path d="M23.683 7.87c1.272.385 2.848 1.16 3.866 2.034 2.4 2.061 3.949 5.316 3.949 8.979 0 6.231-4.484 11.282-10.015 11.282-5.53 0-10.013-5.05-10.013-11.282 0-.77.068-1.522.198-2.248" fill="#DCB689"/><path d="M25.075 5.12s-1.81 11.526-17.53 11.794" fill="#51372A"/></g></g></svg>