<svg id="Layer_1" data-name="Layer 1" xmlns="http://www.w3.org/2000/svg" xmlns:xlink="http://www.w3.org/1999/xlink" viewBox="0 0 54 54"><defs><style>.cls-1{fill:none;}.cls-2{fill:#f05f60;}.cls-3{fill:#abc7ef;}.cls-4{clip-path:url(#clip-path);}.cls-5{fill:#0d8570;}.cls-6{fill:#fff;}</style><clipPath id="clip-path"><circle class="cls-1" cx="26.96" cy="27" r="18.3"/></clipPath></defs><title>Artboard 3</title><path class="cls-2" d="M8.41,27.18a.5.5,0,0,1-.29-.92c.63-.44,1.33-.89,2.09-1.33a.5.5,0,0,1,.69.19.51.51,0,0,1-.18.69c-.73.43-1.41.86-2,1.28A.52.52,0,0,1,8.41,27.18Z"/><path class="cls-2" d="M43.12,17.64h0c-.65,0-1.33-.07-2.06-.07h-.33a.54.54,0,0,1-.51-.51.5.5,0,0,1,.5-.51H41c.75,0,1.46,0,2.14.07a.52.52,0,0,1,.47.54A.51.51,0,0,1,43.12,17.64Z"/><circle class="cls-3" cx="26.96" cy="27" r="18.3"/><g class="cls-4"><path class="cls-5" d="M40.14,11.46c-2.11,2.6-3,2.32-5,4s-1.29,3.78-.86,4.21-1.89,1.71-3,2.14-1.87,5.41-1.62,6.27-.27.51,2.91.51,4.46-3.95,7.55-2,.26,6.87,4.47,4,4.58-.51,5-4.8"/><path class="cls-5" d="M18,10.58c3.35,3.43,6.75,7.64,4,8.58s-4.78.6-7.78.77S8.05,22,9.34,18.05"/><path class="cls-5" d="M7,31.94c5.53,0,11.78-2.78,12.13,0s1.66,1.94,5,3.06,6.25-1.41,4.5,4.44S26.11,50,24.2,50.29s-15.54-5-15.54-5Z"/></g><path class="cls-2" d="M13.2,35.66a.51.51,0,0,1,0-1q1.14,0,2.4-.09a.5.5,0,0,1,.54.47.5.5,0,0,1-.47.54q-1.29.09-2.46.09Zm-2.43-.07h0a18.75,18.75,0,0,1-2.48-.32.51.51,0,1,1,.2-1,18.76,18.76,0,0,0,2.35.3.51.51,0,0,1,0,1Zm7.28-.24a.51.51,0,0,1-.05-1c.77-.09,1.57-.2,2.39-.33a.51.51,0,0,1,.15,1c-.83.13-1.64.23-2.43.32Zm4.81-.74a.51.51,0,0,1-.09-1c.77-.15,1.56-.31,2.36-.49a.51.51,0,0,1,.61.38.51.51,0,0,1-.39.61c-.81.18-1.61.35-2.39.5ZM6.05,34.53a.46.46,0,0,1-.22-.06,3.35,3.35,0,0,1-1.89-2,.5.5,0,0,1,.34-.63.51.51,0,0,1,.63.35,2.45,2.45,0,0,0,1.38,1.39.52.52,0,0,1,.22.68A.51.51,0,0,1,6.05,34.53Zm21.56-1a.5.5,0,0,1-.49-.38.51.51,0,0,1,.36-.62l1.16-.31q.59-.15,1.17-.33a.51.51,0,0,1,.29,1l-1.2.33-1.17.31Zm4.67-1.36a.5.5,0,0,1-.48-.35.51.51,0,0,1,.32-.64c.78-.25,1.55-.51,2.29-.78a.5.5,0,0,1,.65.31.5.5,0,0,1-.31.64c-.75.28-1.52.54-2.31.8Zm4.58-1.65a.49.49,0,0,1-.47-.32.5.5,0,0,1,.28-.66c.76-.31,1.5-.62,2.22-.94a.51.51,0,1,1,.41.93c-.72.32-1.48.64-2.26.95A.39.39,0,0,1,36.86,30.53Zm-31.95,0a.56.56,0,0,1-.27-.08.51.51,0,0,1-.16-.7,9.47,9.47,0,0,1,1.68-1.93.49.49,0,0,1,.71,0,.51.51,0,0,1,0,.72,8.32,8.32,0,0,0-1.5,1.72A.51.51,0,0,1,4.91,30.52Zm36.38-2a.52.52,0,0,1-.45-.28.5.5,0,0,1,.22-.68c.75-.38,1.46-.76,2.12-1.15a.51.51,0,0,1,.69.18.51.51,0,0,1-.18.7c-.68.39-1.4.78-2.17,1.17A.46.46,0,0,1,41.29,28.54Zm4.2-2.47a.5.5,0,0,1-.29-.92,18,18,0,0,0,1.86-1.46.51.51,0,0,1,.68.75,18.61,18.61,0,0,1-2,1.54A.52.52,0,0,1,45.49,26.07ZM49,22.75a.56.56,0,0,1-.27-.08.51.51,0,0,1-.16-.7,2.83,2.83,0,0,0,.51-1.48,1.52,1.52,0,0,0-.06-.42.54.54,0,0,1,.35-.65.48.48,0,0,1,.61.32l0,.07a2.59,2.59,0,0,1,.09.68,3.83,3.83,0,0,1-.66,2A.51.51,0,0,1,49,22.75ZM47.84,18.7a.59.59,0,0,1-.23-.05,8.47,8.47,0,0,0-2.18-.7.52.52,0,0,1-.4-.6.5.5,0,0,1,.6-.4,9.71,9.71,0,0,1,2.44.79.5.5,0,0,1,.22.68A.5.5,0,0,1,47.84,18.7Z"/><path class="cls-6" d="M23.05,34.57a3.78,3.78,0,0,1-7.55,0c0-3.12,3.77-8.64,3.77-8.64S23.05,31.45,23.05,34.57Z"/></svg>