<svg id="Layer_1" data-name="Layer 1" xmlns="http://www.w3.org/2000/svg" viewBox="0 0 54 54"><defs><style>.cls-1{fill:#70b3a7;}.cls-2{fill:#0d8570;}.cls-10,.cls-3,.cls-5,.cls-7{fill:none;stroke-linejoin:round;stroke-width:0.82px;}.cls-3{stroke:#0b8470;}.cls-10,.cls-3,.cls-5{stroke-linecap:round;}.cls-4{fill:#fad6d1;}.cls-5,.cls-7{stroke:#f7b4aa;}.cls-6{fill:#f7b4aa;}.cls-8{fill:#abc7ef;}.cls-9{fill:#5273b7;}.cls-10{stroke:#fff;}.cls-11{fill:#fff;}</style></defs><title>Artboard 2</title><rect class="cls-1" x="6.55" y="26.24" width="36.33" height="20.6" rx="4.23"/><path class="cls-1" d="M43.57,40.74a1.81,1.81,0,0,1,2-1.49,1.84,1.84,0,0,1,1.9,1.93,1.8,1.8,0,0,1-1.86,2A1.91,1.91,0,0,1,43.57,40.74Z"/><path class="cls-2" d="M45.54,42.15a.89.89,0,0,0,.92-1A1,1,0,0,0,44.54,41,.94.94,0,0,0,45.54,42.15Z"/><path class="cls-1" d="M43.57,31.44a1.82,1.82,0,0,1,2-1.5,1.85,1.85,0,0,1,1.9,1.94,1.79,1.79,0,0,1-1.86,1.94A1.9,1.9,0,0,1,43.57,31.44Z"/><path class="cls-2" d="M45.54,32.84a.89.89,0,0,0,.92-1,1,1,0,0,0-1.92-.22A.94.94,0,0,0,45.54,32.84Z"/><line class="cls-3" x1="41.11" y1="33.43" x2="8.32" y2="33.44"/><path class="cls-2" d="M22.05,36.05s-.39,1.35,1.2,1.46a14.31,14.31,0,0,0,3.24,0,1.09,1.09,0,0,0,.89-1.42Z"/><line class="cls-3" x1="13.49" y1="27.24" x2="13.45" y2="30.12"/><line class="cls-3" x1="21.1" y1="27.27" x2="21.05" y2="30.15"/><line class="cls-3" x1="28.71" y1="27.29" x2="28.66" y2="30.18"/><line class="cls-3" x1="36.32" y1="27.32" x2="36.27" y2="30.2"/><path class="cls-4" d="M23.25,12.59h9.51a6,6,0,0,1,6,6v7.61a0,0,0,0,1,0,0H17.21a0,0,0,0,1,0,0V18.63A6,6,0,0,1,23.25,12.59Z"/><path class="cls-5" d="M17.49,18.65A5.65,5.65,0,0,1,23.14,13h4.42"/><line class="cls-5" x1="23.22" y1="19" x2="32.48" y2="19"/><path class="cls-6" d="M23.62,22.19h-.8a.43.43,0,0,1-.43-.5l.4-2.73a.43.43,0,0,1,.43-.37h0a.44.44,0,0,1,.43.37l.4,2.73A.44.44,0,0,1,23.62,22.19Z"/><path class="cls-5" d="M31.81,15.93v-4.8a4,4,0,0,0-7.93,0v4.8"/><path class="cls-7" d="M35.4,26.23a3.4,3.4,0,0,1,3.4-3.4"/><path class="cls-7" d="M17.21,22.83a3.41,3.41,0,0,1,3.41,3.4"/><path class="cls-8" d="M11.35,26.28h6a.9.9,0,0,0,.86-.94l-.35-9.72c0-1.27-1.08-1.7-2.36-1.69H13.11c-1.27,0-2.31.43-2.35,1.7l-.28,9.71A.91.91,0,0,0,11.35,26.28Z"/><rect class="cls-9" x="11.8" y="11.64" width="5.13" height="2.29" rx="0.66"/><line class="cls-10" x1="15.87" y1="12.59" x2="15.87" y2="12.99"/><path class="cls-11" d="M16.43,21.44a2.07,2.07,0,0,1-4.13,0c0-1.71,2.07-4.73,2.07-4.73S16.43,19.73,16.43,21.44Z"/></svg>