<svg id="Layer_1" data-name="Layer 1" xmlns="http://www.w3.org/2000/svg" xmlns:xlink="http://www.w3.org/1999/xlink" viewBox="0 0 54 54"><defs><style>.cls-1,.cls-8{fill:none;}.cls-2{fill:#70b3a7;}.cls-3{fill:#0d8570;}.cls-4{clip-path:url(#clip-path);}.cls-5{fill:#dec5b5;stroke:#a86b59;stroke-width:0.86px;}.cls-5,.cls-8{stroke-linecap:round;stroke-linejoin:round;}.cls-6{fill:#fff;}.cls-7{fill:#da1f26;}.cls-8{stroke:#0b8470;stroke-width:0.83px;}</style><clipPath id="clip-path"><path class="cls-1" d="M24.83,22.23a8.61,8.61,0,0,0-17.21,0V35.4H24.83Z"/></clipPath></defs><title>Artboard 1</title><path class="cls-2" d="M29.17,35.4H46.38V22.23a8.6,8.6,0,0,0-8.6-8.6H16.22V35.4Z"/><path class="cls-3" d="M24.83,22.23a8.61,8.61,0,0,0-17.21,0V35.4H24.83Z"/><g class="cls-4"><rect class="cls-5" x="13.33" y="21.88" width="23.28" height="13.07"/><line class="cls-5" x1="13.33" y1="21.88" x2="36.61" y2="34.95"/><path class="cls-6" d="M19.37,31.34a2.31,2.31,0,1,1-4.61,0c0-1.91,2.31-5.28,2.31-5.28S19.37,29.43,19.37,31.34Z"/></g><rect class="cls-3" x="24.07" y="35.4" width="5.76" height="10.96"/><polygon class="cls-7" points="31.55 25.8 30.18 25.8 30.18 7.64 35.84 7.64 31.55 25.8"/><circle class="cls-3" cx="31.38" cy="25.8" r="2.53"/><path class="cls-8" d="M46,31.58V22.33a8.26,8.26,0,0,0-8.26-8.26"/></svg>