<svg width="109" height="102" viewBox="0 0 109 102" xmlns="http://www.w3.org/2000/svg"><title>Pump and Post Illo - no bg</title><g fill="none" fill-rule="evenodd"><path fill="#B97965" d="M62.878 83.52v18.156h-16.61V83.52"/><path d="M108.947 84.708H.202V45.634c0-14.824 12.037-26.842 26.89-26.842h54.966c14.85 0 26.89 12.018 26.89 26.842v39.074z" fill="#B97965"/><path d="M.2 72.798V45.633c0-14.824 12.04-26.84 26.89-26.84 14.85 0 26.89 12.016 26.89 26.84v26.6" fill="#E1A795"/><path stroke="#CCC" stroke-linecap="round" stroke-linejoin="round" d="M75.38 30.37V.638H89.34"/><path d="M82.51 37.488c0 3.93-3.193 7.117-7.13 7.117s-7.13-3.186-7.13-7.117c0-3.93 3.193-7.116 7.13-7.116s7.13 3.185 7.13 7.116" fill="#FFB8AC"/><path fill="#A05C4A" d="M.202 84.708h108.745v-11.91H.202z"/><path fill="#FFF" d="M15.277 72.798H53.93v-27.93H15.278z"/><path fill="#606060" d="M53.98 61.872L15.28 44.868H53.93"/></g></svg>