<svg width="111" height="97" viewBox="0 0 111 97" xmlns="http://www.w3.org/2000/svg" xmlns:xlink="http://www.w3.org/1999/xlink"><title>Pump and Carry Illo - no bg</title><defs><path id="a" d="M0 2.034h110.815v68.484H0z"/></defs><g fill="none" fill-rule="evenodd"><g transform="translate(0 25.772)"><mask id="b" fill="#fff"><use xlink:href="#a"/></mask><path d="M110.815 70.518H0v-41.35C0 14.18 12.148 2.033 27.135 2.033H83.68c14.988 0 27.135 12.148 27.135 27.133v41.35z" fill="#0E6956" mask="url(#b)"/></g><path fill="#8EAD9F" d="M38.228 26.733v23.83h-8.153v-23.83M80.74 26.733v23.83H72.59v-23.83"/><path d="M34.05 27.78c0-14.198 9.56-25.707 21.358-25.707 11.796 0 21.36 11.51 21.36 25.706" stroke="#8EAD9F" stroke-width="4"/><path d="M55.408 86.328c-9.856 0-17.845-7.99-17.845-17.845V63.05h35.69v5.433c0 9.856-7.99 17.845-17.845 17.845" fill="#8EAD9F"/></g></svg>