<svg width="100" height="112" viewBox="0 0 100 112" xmlns="http://www.w3.org/2000/svg" xmlns:xlink="http://www.w3.org/1999/xlink"><title>Pump and Check Illo - no bg</title><defs><path id="a" d="M0 .127h99.79v99.787H0z"/></defs><g fill="none" fill-rule="evenodd"><g transform="translate(0 11.846)"><mask id="b" fill="#fff"><use xlink:href="#a"/></mask><path d="M99.79 50.02c0 27.557-22.34 49.894-49.894 49.894C22.336 99.914 0 77.577 0 50.02 0 22.464 22.337.127 49.896.127 77.45.127 99.79 22.464 99.79 50.02" fill="#94BCFC" mask="url(#b)"/></g><path d="M59.463 12.923S49.2 17.235 48.583 29.555c-.615 12.323.823 14.376 10.47 27.11 9.646 12.73 7.184 20.535 17.24 16.633 10.058-3.902 11.496-1.233 15.805-10.27 4.31-9.034 6.98-11.703 6.98-11.703s-3.08-17.046-15.806-26.9c0 0-10.878-9.45-23.81-11.502M14 95.324s4.725-7.41 12.33-7c7.605.413 12.128-1.03 15.62 6.176 3.493 7.206 12.33 2.883 15.21 4.94 2.876 2.06 10.686 8.236 10.686 8.236s-11.268 4.087-23.018 3.09c-10.286-.875-20.66-6.327-27.95-12.765-1.615-1.424-1.455-.82-2.878-2.676M0 55.372s17.425-4.487 19.524 2.04c2.1 6.53 4.83 1.43 4.83 6.733 0 5.304 9.237-4.487 9.027-7.55-.21-3.06-1.68-15.71-6.506-19.176-4.83-3.47-10.5-12.65-10.5-12.65S2.1 37.622 0 55.37" fill="#00413E"/><path d="M80.77 17.162c-2.488 0-4.5-2.026-4.5-4.525 0-2.5 2.012-4.526 4.5-4.526s4.502 2.027 4.502 4.527-2.014 4.525-4.502 4.525M80.77 0c-7.137 0-12.924 5.814-12.924 12.99 0 6.17 12.867 26.856 12.867 26.856s12.98-20.922 12.98-26.857C93.692 5.813 87.906 0 80.77 0" fill="#F8A89A"/></g></svg>